<?xml version="1.0" encoding="utf-8" standalone="no"?>
<!DOCTYPE svg PUBLIC "-//W3C//DTD SVG 1.1//EN"
  "http://www.w3.org/Graphics/SVG/1.1/DTD/svg11.dtd">
<svg xmlns:xlink="http://www.w3.org/1999/xlink" width="460.8pt" height="345.6pt" viewBox="0 0 460.8 345.6" xmlns="http://www.w3.org/2000/svg" version="1.1">
 <metadata>
  <rdf:RDF xmlns:dc="http://purl.org/dc/elements/1.1/" xmlns:cc="http://creativecommons.org/ns#" xmlns:rdf="http://www.w3.org/1999/02/22-rdf-syntax-ns#">
   <cc:Work>
    <dc:type rdf:resource="http://purl.org/dc/dcmitype/StillImage"/>
    <dc:date>2025-01-27T19:16:17.732088</dc:date>
    <dc:format>image/svg+xml</dc:format>
    <dc:creator>
     <cc:Agent>
      <dc:title>Matplotlib v3.8.0, https://matplotlib.org/</dc:title>
     </cc:Agent>
    </dc:creator>
   </cc:Work>
  </rdf:RDF>
 </metadata>
 <defs>
  <style type="text/css">*{stroke-linejoin: round; stroke-linecap: butt}</style>
 </defs>
 <g id="figure_1">
  <g id="patch_1">
   <path d="M 0 345.6 
L 460.8 345.6 
L 460.8 0 
L 0 0 
z
" style="fill: #fffff0"/>
  </g>
  <g id="axes_1">
   <g id="patch_2">
    <path d="M 215.39786 78.631784 
L 236.16 90.618811 
L 256.92214 78.631784 
L 256.92214 54.65773 
L 236.16 42.670703 
L 215.39786 54.65773 
z
" clip-path="url(#p0fd63424de)" style="fill: #d18a45"/>
   </g>
   <g id="patch_3">
    <path d="M 194.63572 114.592865 
L 215.39786 126.579892 
L 236.16 114.592865 
L 236.16 90.618811 
L 215.39786 78.631784 
L 194.63572 90.618811 
z
" clip-path="url(#p0fd63424de)" style="fill: #e8ad70"/>
   </g>
   <g id="patch_4">
    <path d="M 236.16 114.592865 
L 256.92214 126.579892 
L 277.68428 114.592865 
L 277.68428 90.618811 
L 256.92214 78.631784 
L 236.16 90.618811 
z
" clip-path="url(#p0fd63424de)" style="fill: #ffcf9e"/>
   </g>
   <g id="patch_5">
    <path d="M 173.87358 150.553946 
L 194.63572 162.540973 
L 215.39786 150.553946 
L 215.39786 126.579892 
L 194.63572 114.592865 
L 173.87358 126.579892 
z
" clip-path="url(#p0fd63424de)" style="fill: #ffcf9e"/>
   </g>
   <g id="patch_6">
    <path d="M 215.39786 150.553946 
L 236.16 162.540973 
L 256.92214 150.553946 
L 256.92214 126.579892 
L 236.16 114.592865 
L 215.39786 126.579892 
z
" clip-path="url(#p0fd63424de)" style="fill: #d18a45"/>
   </g>
   <g id="patch_7">
    <path d="M 256.92214 150.553946 
L 277.68428 162.540973 
L 298.44642 150.553946 
L 298.44642 126.579892 
L 277.68428 114.592865 
L 256.92214 126.579892 
z
" clip-path="url(#p0fd63424de)" style="fill: #e8ad70"/>
   </g>
   <g id="patch_8">
    <path d="M 153.111441 186.515027 
L 173.87358 198.502054 
L 194.63572 186.515027 
L 194.63572 162.540973 
L 173.87358 150.553946 
L 153.111441 162.540973 
z
" clip-path="url(#p0fd63424de)" style="fill: #d18a45"/>
   </g>
   <g id="patch_9">
    <path d="M 194.63572 186.515027 
L 215.39786 198.502054 
L 236.16 186.515027 
L 236.16 162.540973 
L 215.39786 150.553946 
L 194.63572 162.540973 
z
" clip-path="url(#p0fd63424de)" style="fill: #e8ad70"/>
   </g>
   <g id="patch_10">
    <path d="M 236.16 186.515027 
L 256.92214 198.502054 
L 277.68428 186.515027 
L 277.68428 162.540973 
L 256.92214 150.553946 
L 236.16 162.540973 
z
" clip-path="url(#p0fd63424de)" style="fill: #ffcf9e"/>
   </g>
   <g id="patch_11">
    <path d="M 277.68428 186.515027 
L 298.44642 198.502054 
L 319.208559 186.515027 
L 319.208559 162.540973 
L 298.44642 150.553946 
L 277.68428 162.540973 
z
" clip-path="url(#p0fd63424de)" style="fill: #d18a45"/>
   </g>
   <g id="patch_12">
    <path d="M 173.87358 222.476108 
L 194.63572 234.463135 
L 215.39786 222.476108 
L 215.39786 198.502054 
L 194.63572 186.515027 
L 173.87358 198.502054 
z
" clip-path="url(#p0fd63424de)" style="fill: #ffcf9e"/>
   </g>
   <g id="patch_13">
    <path d="M 215.39786 222.476108 
L 236.16 234.463135 
L 256.92214 222.476108 
L 256.92214 198.502054 
L 236.16 186.515027 
L 215.39786 198.502054 
z
" clip-path="url(#p0fd63424de)" style="fill: #d18a45"/>
   </g>
   <g id="patch_14">
    <path d="M 256.92214 222.476108 
L 277.68428 234.463135 
L 298.44642 222.476108 
L 298.44642 198.502054 
L 277.68428 186.515027 
L 256.92214 198.502054 
z
" clip-path="url(#p0fd63424de)" style="fill: #e8ad70"/>
   </g>
   <g id="patch_15">
    <path d="M 194.63572 258.437189 
L 215.39786 270.424216 
L 236.16 258.437189 
L 236.16 234.463135 
L 215.39786 222.476108 
L 194.63572 234.463135 
z
" clip-path="url(#p0fd63424de)" style="fill: #e8ad70"/>
   </g>
   <g id="patch_16">
    <path d="M 236.16 258.437189 
L 256.92214 270.424216 
L 277.68428 258.437189 
L 277.68428 234.463135 
L 256.92214 222.476108 
L 236.16 234.463135 
z
" clip-path="url(#p0fd63424de)" style="fill: #ffcf9e"/>
   </g>
   <g id="patch_17">
    <path d="M 215.39786 294.39827 
L 236.16 306.385297 
L 256.92214 294.39827 
L 256.92214 270.424216 
L 236.16 258.437189 
L 215.39786 270.424216 
z
" clip-path="url(#p0fd63424de)" style="fill: #d18a45"/>
   </g>
   <g id="line2d_1">
    <defs>
     <path id="m8061535cb5" d="M 0 13 
C 3.44764 13 6.754538 11.630238 9.192388 9.192388 
C 11.630238 6.754538 13 3.44764 13 0 
C 13 -3.44764 11.630238 -6.754538 9.192388 -9.192388 
C 6.754538 -11.630238 3.44764 -13 0 -13 
C -3.44764 -13 -6.754538 -11.630238 -9.192388 -9.192388 
C -11.630238 -6.754538 -13 -3.44764 -13 0 
C -13 3.44764 -11.630238 6.754538 -9.192388 9.192388 
C -6.754538 11.630238 -3.44764 13 0 13 
z
" style="stroke: #808080"/>
    </defs>
    <g clip-path="url(#p0fd63424de)">
     <use xlink:href="#m8061535cb5" x="236.16" y="66.644757" style="stroke: #808080"/>
    </g>
   </g>
   <g id="line2d_2">
    <g clip-path="url(#p0fd63424de)">
     <use xlink:href="#m8061535cb5" x="215.39786" y="102.605838" style="stroke: #808080"/>
    </g>
   </g>
   <g id="line2d_3">
    <g clip-path="url(#p0fd63424de)">
     <use xlink:href="#m8061535cb5" x="256.92214" y="102.605838" style="stroke: #808080"/>
    </g>
   </g>
   <g id="line2d_4">
    <g clip-path="url(#p0fd63424de)">
     <use xlink:href="#m8061535cb5" x="194.63572" y="138.566919" style="stroke: #808080"/>
    </g>
   </g>
   <g id="line2d_5">
    <g clip-path="url(#p0fd63424de)">
     <use xlink:href="#m8061535cb5" x="236.16" y="138.566919" style="stroke: #808080"/>
    </g>
   </g>
   <g id="line2d_6">
    <g clip-path="url(#p0fd63424de)">
     <use xlink:href="#m8061535cb5" x="277.68428" y="138.566919" style="stroke: #808080"/>
    </g>
   </g>
   <g id="line2d_7">
    <g clip-path="url(#p0fd63424de)">
     <use xlink:href="#m8061535cb5" x="173.87358" y="174.528" style="stroke: #808080"/>
    </g>
   </g>
   <g id="line2d_8">
    <g clip-path="url(#p0fd63424de)">
     <use xlink:href="#m8061535cb5" x="215.39786" y="174.528" style="stroke: #808080"/>
    </g>
   </g>
   <g id="line2d_9">
    <g clip-path="url(#p0fd63424de)">
     <use xlink:href="#m8061535cb5" x="256.92214" y="174.528" style="stroke: #808080"/>
    </g>
   </g>
   <g id="line2d_10">
    <defs>
     <path id="m63a8720083" d="M 0 13 
C 3.44764 13 6.754538 11.630238 9.192388 9.192388 
C 11.630238 6.754538 13 3.44764 13 0 
C 13 -3.44764 11.630238 -6.754538 9.192388 -9.192388 
C 6.754538 -11.630238 3.44764 -13 0 -13 
C -3.44764 -13 -6.754538 -11.630238 -9.192388 -9.192388 
C -11.630238 -6.754538 -13 -3.44764 -13 0 
C -13 3.44764 -11.630238 6.754538 -9.192388 9.192388 
C -6.754538 11.630238 -3.44764 13 0 13 
z
" style="stroke: #000000"/>
    </defs>
    <g clip-path="url(#p0fd63424de)">
     <use xlink:href="#m63a8720083" x="298.44642" y="174.528" style="fill: #c0c0c0; stroke: #000000"/>
    </g>
   </g>
   <g id="line2d_11">
    <g clip-path="url(#p0fd63424de)">
     <use xlink:href="#m8061535cb5" x="194.63572" y="210.489081" style="stroke: #808080"/>
    </g>
   </g>
   <g id="line2d_12">
    <g clip-path="url(#p0fd63424de)">
     <use xlink:href="#m8061535cb5" x="236.16" y="210.489081" style="stroke: #808080"/>
    </g>
   </g>
   <g id="line2d_13">
    <g clip-path="url(#p0fd63424de)">
     <use xlink:href="#m8061535cb5" x="277.68428" y="210.489081" style="stroke: #808080"/>
    </g>
   </g>
   <g id="line2d_14">
    <g clip-path="url(#p0fd63424de)">
     <use xlink:href="#m8061535cb5" x="215.39786" y="246.450162" style="stroke: #808080"/>
    </g>
   </g>
   <g id="line2d_15">
    <g clip-path="url(#p0fd63424de)">
     <use xlink:href="#m8061535cb5" x="256.92214" y="246.450162" style="stroke: #808080"/>
    </g>
   </g>
   <g id="line2d_16">
    <g clip-path="url(#p0fd63424de)">
     <use xlink:href="#m63a8720083" x="236.16" y="282.411243" style="fill: #c0c0c0; stroke: #000000"/>
    </g>
   </g>
   <g id="text_1">
    <!-- 7 -->
    <g style="fill: #ffffff" transform="translate(230.43375 71.611632) scale(0.18 -0.18)">
     <defs>
      <path id="DejaVuSans-37" d="M 525 4666 
L 3525 4666 
L 3525 4397 
L 1831 0 
L 1172 0 
L 2766 4134 
L 525 4134 
L 525 4666 
z
" transform="scale(0.015625)"/>
     </defs>
     <use xlink:href="#DejaVuSans-37"/>
    </g>
   </g>
   <g id="text_2">
    <!-- 6 -->
    <g style="fill: #ffffff" transform="translate(209.67161 107.572713) scale(0.18 -0.18)">
     <defs>
      <path id="DejaVuSans-36" d="M 2113 2584 
Q 1688 2584 1439 2293 
Q 1191 2003 1191 1497 
Q 1191 994 1439 701 
Q 1688 409 2113 409 
Q 2538 409 2786 701 
Q 3034 994 3034 1497 
Q 3034 2003 2786 2293 
Q 2538 2584 2113 2584 
z
M 3366 4563 
L 3366 3988 
Q 3128 4100 2886 4159 
Q 2644 4219 2406 4219 
Q 1781 4219 1451 3797 
Q 1122 3375 1075 2522 
Q 1259 2794 1537 2939 
Q 1816 3084 2150 3084 
Q 2853 3084 3261 2657 
Q 3669 2231 3669 1497 
Q 3669 778 3244 343 
Q 2819 -91 2113 -91 
Q 1303 -91 875 529 
Q 447 1150 447 2328 
Q 447 3434 972 4092 
Q 1497 4750 2381 4750 
Q 2619 4750 2861 4703 
Q 3103 4656 3366 4563 
z
" transform="scale(0.015625)"/>
     </defs>
     <use xlink:href="#DejaVuSans-36"/>
    </g>
   </g>
   <g id="text_3">
    <!-- 6 -->
    <g style="fill: #ffffff" transform="translate(251.19589 107.572713) scale(0.18 -0.18)">
     <use xlink:href="#DejaVuSans-36"/>
    </g>
   </g>
   <g id="text_4">
    <!-- 5 -->
    <g style="fill: #ffffff" transform="translate(188.90947 143.533794) scale(0.18 -0.18)">
     <defs>
      <path id="DejaVuSans-35" d="M 691 4666 
L 3169 4666 
L 3169 4134 
L 1269 4134 
L 1269 2991 
Q 1406 3038 1543 3061 
Q 1681 3084 1819 3084 
Q 2600 3084 3056 2656 
Q 3513 2228 3513 1497 
Q 3513 744 3044 326 
Q 2575 -91 1722 -91 
Q 1428 -91 1123 -41 
Q 819 9 494 109 
L 494 744 
Q 775 591 1075 516 
Q 1375 441 1709 441 
Q 2250 441 2565 725 
Q 2881 1009 2881 1497 
Q 2881 1984 2565 2268 
Q 2250 2553 1709 2553 
Q 1456 2553 1204 2497 
Q 953 2441 691 2322 
L 691 4666 
z
" transform="scale(0.015625)"/>
     </defs>
     <use xlink:href="#DejaVuSans-35"/>
    </g>
   </g>
   <g id="text_5">
    <!-- 5 -->
    <g style="fill: #ffffff" transform="translate(230.43375 143.533794) scale(0.18 -0.18)">
     <use xlink:href="#DejaVuSans-35"/>
    </g>
   </g>
   <g id="text_6">
    <!-- 5 -->
    <g style="fill: #ffffff" transform="translate(271.95803 143.533794) scale(0.18 -0.18)">
     <use xlink:href="#DejaVuSans-35"/>
    </g>
   </g>
   <g id="text_7">
    <!-- 4 -->
    <g style="fill: #ffffff" transform="translate(168.14733 179.494875) scale(0.18 -0.18)">
     <defs>
      <path id="DejaVuSans-34" d="M 2419 4116 
L 825 1625 
L 2419 1625 
L 2419 4116 
z
M 2253 4666 
L 3047 4666 
L 3047 1625 
L 3713 1625 
L 3713 1100 
L 3047 1100 
L 3047 0 
L 2419 0 
L 2419 1100 
L 313 1100 
L 313 1709 
L 2253 4666 
z
" transform="scale(0.015625)"/>
     </defs>
     <use xlink:href="#DejaVuSans-34"/>
    </g>
   </g>
   <g id="text_8">
    <!-- 4 -->
    <g style="fill: #ffffff" transform="translate(209.67161 179.494875) scale(0.18 -0.18)">
     <use xlink:href="#DejaVuSans-34"/>
    </g>
   </g>
   <g id="text_9">
    <!-- 4 -->
    <g style="fill: #ffffff" transform="translate(251.19589 179.494875) scale(0.18 -0.18)">
     <use xlink:href="#DejaVuSans-34"/>
    </g>
   </g>
   <g id="text_10">
    <!-- 1 -->
    <g transform="translate(292.72017 179.494875) scale(0.18 -0.18)">
     <defs>
      <path id="DejaVuSans-31" d="M 794 531 
L 1825 531 
L 1825 4091 
L 703 3866 
L 703 4441 
L 1819 4666 
L 2450 4666 
L 2450 531 
L 3481 531 
L 3481 0 
L 794 0 
L 794 531 
z
" transform="scale(0.015625)"/>
     </defs>
     <use xlink:href="#DejaVuSans-31"/>
    </g>
   </g>
   <g id="text_11">
    <!-- 3 -->
    <g style="fill: #ffffff" transform="translate(188.90947 215.455956) scale(0.18 -0.18)">
     <defs>
      <path id="DejaVuSans-33" d="M 2597 2516 
Q 3050 2419 3304 2112 
Q 3559 1806 3559 1356 
Q 3559 666 3084 287 
Q 2609 -91 1734 -91 
Q 1441 -91 1130 -33 
Q 819 25 488 141 
L 488 750 
Q 750 597 1062 519 
Q 1375 441 1716 441 
Q 2309 441 2620 675 
Q 2931 909 2931 1356 
Q 2931 1769 2642 2001 
Q 2353 2234 1838 2234 
L 1294 2234 
L 1294 2753 
L 1863 2753 
Q 2328 2753 2575 2939 
Q 2822 3125 2822 3475 
Q 2822 3834 2567 4026 
Q 2313 4219 1838 4219 
Q 1578 4219 1281 4162 
Q 984 4106 628 3988 
L 628 4550 
Q 988 4650 1302 4700 
Q 1616 4750 1894 4750 
Q 2613 4750 3031 4423 
Q 3450 4097 3450 3541 
Q 3450 3153 3228 2886 
Q 3006 2619 2597 2516 
z
" transform="scale(0.015625)"/>
     </defs>
     <use xlink:href="#DejaVuSans-33"/>
    </g>
   </g>
   <g id="text_12">
    <!-- 3 -->
    <g style="fill: #ffffff" transform="translate(230.43375 215.455956) scale(0.18 -0.18)">
     <use xlink:href="#DejaVuSans-33"/>
    </g>
   </g>
   <g id="text_13">
    <!-- 3 -->
    <g style="fill: #ffffff" transform="translate(271.95803 215.455956) scale(0.18 -0.18)">
     <use xlink:href="#DejaVuSans-33"/>
    </g>
   </g>
   <g id="text_14">
    <!-- 2 -->
    <g style="fill: #ffffff" transform="translate(209.67161 251.417037) scale(0.18 -0.18)">
     <defs>
      <path id="DejaVuSans-32" d="M 1228 531 
L 3431 531 
L 3431 0 
L 469 0 
L 469 531 
Q 828 903 1448 1529 
Q 2069 2156 2228 2338 
Q 2531 2678 2651 2914 
Q 2772 3150 2772 3378 
Q 2772 3750 2511 3984 
Q 2250 4219 1831 4219 
Q 1534 4219 1204 4116 
Q 875 4013 500 3803 
L 500 4441 
Q 881 4594 1212 4672 
Q 1544 4750 1819 4750 
Q 2544 4750 2975 4387 
Q 3406 4025 3406 3419 
Q 3406 3131 3298 2873 
Q 3191 2616 2906 2266 
Q 2828 2175 2409 1742 
Q 1991 1309 1228 531 
z
" transform="scale(0.015625)"/>
     </defs>
     <use xlink:href="#DejaVuSans-32"/>
    </g>
   </g>
   <g id="text_15">
    <!-- 2 -->
    <g style="fill: #ffffff" transform="translate(251.19589 251.417037) scale(0.18 -0.18)">
     <use xlink:href="#DejaVuSans-32"/>
    </g>
   </g>
   <g id="text_16">
    <!-- 4 -->
    <g transform="translate(230.43375 287.378118) scale(0.18 -0.18)">
     <use xlink:href="#DejaVuSans-34"/>
    </g>
   </g>
  </g>
 </g>
 <defs>
  <clipPath id="p0fd63424de">
   <rect x="148.700824" y="41.472" width="174.918353" height="266.112"/>
  </clipPath>
 </defs>
</svg>
