<?xml version="1.0" encoding="utf-8" standalone="no"?>
<!DOCTYPE svg PUBLIC "-//W3C//DTD SVG 1.1//EN"
  "http://www.w3.org/Graphics/SVG/1.1/DTD/svg11.dtd">
<svg xmlns:xlink="http://www.w3.org/1999/xlink" width="317.937154pt" height="280.512pt" viewBox="0 0 317.937154 280.512" xmlns="http://www.w3.org/2000/svg" version="1.1">
 <metadata>
  <rdf:RDF xmlns:dc="http://purl.org/dc/elements/1.1/" xmlns:cc="http://creativecommons.org/ns#" xmlns:rdf="http://www.w3.org/1999/02/22-rdf-syntax-ns#">
   <cc:Work>
    <dc:type rdf:resource="http://purl.org/dc/dcmitype/StillImage"/>
    <dc:date>2025-02-22T16:32:33.218262</dc:date>
    <dc:format>image/svg+xml</dc:format>
    <dc:creator>
     <cc:Agent>
      <dc:title>Matplotlib v3.8.0, https://matplotlib.org/</dc:title>
     </cc:Agent>
    </dc:creator>
   </cc:Work>
  </rdf:RDF>
 </metadata>
 <defs>
  <style type="text/css">*{stroke-linejoin: round; stroke-linecap: butt}</style>
 </defs>
 <g id="figure_1">
  <g id="patch_1">
   <path d="M 0 280.512 
L 317.937154 280.512 
L 317.937154 0 
L 0 0 
z
" style="fill: #fffff0"/>
  </g>
  <g id="axes_1">
   <g id="patch_2">
    <path d="M 79.155676 25.056 
L 89.132289 30.816 
L 99.108901 25.056 
L 99.108901 13.536 
L 89.132289 7.776 
L 79.155676 13.536 
z
" clip-path="url(#p1b7f61889d)" style="fill: #d18a45"/>
   </g>
   <g id="patch_3">
    <path d="M 99.108901 25.056 
L 109.085514 30.816 
L 119.062127 25.056 
L 119.062127 13.536 
L 109.085514 7.776 
L 99.108901 13.536 
z
" clip-path="url(#p1b7f61889d)" style="fill: #e8ad70"/>
   </g>
   <g id="patch_4">
    <path d="M 119.062127 25.056 
L 129.038739 30.816 
L 139.015352 25.056 
L 139.015352 13.536 
L 129.038739 7.776 
L 119.062127 13.536 
z
" clip-path="url(#p1b7f61889d)" style="fill: #ffcf9e"/>
   </g>
   <g id="patch_5">
    <path d="M 139.015352 25.056 
L 148.991964 30.816 
L 158.968577 25.056 
L 158.968577 13.536 
L 148.991964 7.776 
L 139.015352 13.536 
z
" clip-path="url(#p1b7f61889d)" style="fill: #d18a45"/>
   </g>
   <g id="patch_6">
    <path d="M 158.968577 25.056 
L 168.94519 30.816 
L 178.921802 25.056 
L 178.921802 13.536 
L 168.94519 7.776 
L 158.968577 13.536 
z
" clip-path="url(#p1b7f61889d)" style="fill: #e8ad70"/>
   </g>
   <g id="patch_7">
    <path d="M 178.921802 25.056 
L 188.898415 30.816 
L 198.875028 25.056 
L 198.875028 13.536 
L 188.898415 7.776 
L 178.921802 13.536 
z
" clip-path="url(#p1b7f61889d)" style="fill: #ffcf9e"/>
   </g>
   <g id="patch_8">
    <path d="M 198.875028 25.056 
L 208.85164 30.816 
L 218.828253 25.056 
L 218.828253 13.536 
L 208.85164 7.776 
L 198.875028 13.536 
z
" clip-path="url(#p1b7f61889d)" style="fill: #d18a45"/>
   </g>
   <g id="patch_9">
    <path d="M 218.828253 25.056 
L 228.804866 30.816 
L 238.781478 25.056 
L 238.781478 13.536 
L 228.804866 7.776 
L 218.828253 13.536 
z
" clip-path="url(#p1b7f61889d)" style="fill: #e8ad70"/>
   </g>
   <g id="patch_10">
    <path d="M 69.179063 42.336 
L 79.155676 48.096 
L 89.132289 42.336 
L 89.132289 30.816 
L 79.155676 25.056 
L 69.179063 30.816 
z
" clip-path="url(#p1b7f61889d)" style="fill: #e8ad70"/>
   </g>
   <g id="patch_11">
    <path d="M 89.132289 42.336 
L 99.108901 48.096 
L 109.085514 42.336 
L 109.085514 30.816 
L 99.108901 25.056 
L 89.132289 30.816 
z
" clip-path="url(#p1b7f61889d)" style="fill: #ffcf9e"/>
   </g>
   <g id="patch_12">
    <path d="M 109.085514 42.336 
L 119.062127 48.096 
L 129.038739 42.336 
L 129.038739 30.816 
L 119.062127 25.056 
L 109.085514 30.816 
z
" clip-path="url(#p1b7f61889d)" style="fill: #d18a45"/>
   </g>
   <g id="patch_13">
    <path d="M 129.038739 42.336 
L 139.015352 48.096 
L 148.991964 42.336 
L 148.991964 30.816 
L 139.015352 25.056 
L 129.038739 30.816 
z
" clip-path="url(#p1b7f61889d)" style="fill: #e8ad70"/>
   </g>
   <g id="patch_14">
    <path d="M 148.991964 42.336 
L 158.968577 48.096 
L 168.94519 42.336 
L 168.94519 30.816 
L 158.968577 25.056 
L 148.991964 30.816 
z
" clip-path="url(#p1b7f61889d)" style="fill: #ffcf9e"/>
   </g>
   <g id="patch_15">
    <path d="M 168.94519 42.336 
L 178.921802 48.096 
L 188.898415 42.336 
L 188.898415 30.816 
L 178.921802 25.056 
L 168.94519 30.816 
z
" clip-path="url(#p1b7f61889d)" style="fill: #d18a45"/>
   </g>
   <g id="patch_16">
    <path d="M 188.898415 42.336 
L 198.875028 48.096 
L 208.85164 42.336 
L 208.85164 30.816 
L 198.875028 25.056 
L 188.898415 30.816 
z
" clip-path="url(#p1b7f61889d)" style="fill: #e8ad70"/>
   </g>
   <g id="patch_17">
    <path d="M 208.85164 42.336 
L 218.828253 48.096 
L 228.804866 42.336 
L 228.804866 30.816 
L 218.828253 25.056 
L 208.85164 30.816 
z
" clip-path="url(#p1b7f61889d)" style="fill: #ffcf9e"/>
   </g>
   <g id="patch_18">
    <path d="M 228.804866 42.336 
L 238.781478 48.096 
L 248.758091 42.336 
L 248.758091 30.816 
L 238.781478 25.056 
L 228.804866 30.816 
z
" clip-path="url(#p1b7f61889d)" style="fill: #d18a45"/>
   </g>
   <g id="patch_19">
    <path d="M 59.202451 59.616 
L 69.179063 65.376 
L 79.155676 59.616 
L 79.155676 48.096 
L 69.179063 42.336 
L 59.202451 48.096 
z
" clip-path="url(#p1b7f61889d)" style="fill: #ffcf9e"/>
   </g>
   <g id="patch_20">
    <path d="M 79.155676 59.616 
L 89.132289 65.376 
L 99.108901 59.616 
L 99.108901 48.096 
L 89.132289 42.336 
L 79.155676 48.096 
z
" clip-path="url(#p1b7f61889d)" style="fill: #d18a45"/>
   </g>
   <g id="patch_21">
    <path d="M 99.108901 59.616 
L 109.085514 65.376 
L 119.062127 59.616 
L 119.062127 48.096 
L 109.085514 42.336 
L 99.108901 48.096 
z
" clip-path="url(#p1b7f61889d)" style="fill: #e8ad70"/>
   </g>
   <g id="patch_22">
    <path d="M 119.062127 59.616 
L 129.038739 65.376 
L 139.015352 59.616 
L 139.015352 48.096 
L 129.038739 42.336 
L 119.062127 48.096 
z
" clip-path="url(#p1b7f61889d)" style="fill: #ffcf9e"/>
   </g>
   <g id="patch_23">
    <path d="M 139.015352 59.616 
L 148.991964 65.376 
L 158.968577 59.616 
L 158.968577 48.096 
L 148.991964 42.336 
L 139.015352 48.096 
z
" clip-path="url(#p1b7f61889d)" style="fill: #d18a45"/>
   </g>
   <g id="patch_24">
    <path d="M 158.968577 59.616 
L 168.94519 65.376 
L 178.921802 59.616 
L 178.921802 48.096 
L 168.94519 42.336 
L 158.968577 48.096 
z
" clip-path="url(#p1b7f61889d)" style="fill: #e8ad70"/>
   </g>
   <g id="patch_25">
    <path d="M 178.921802 59.616 
L 188.898415 65.376 
L 198.875028 59.616 
L 198.875028 48.096 
L 188.898415 42.336 
L 178.921802 48.096 
z
" clip-path="url(#p1b7f61889d)" style="fill: #ffcf9e"/>
   </g>
   <g id="patch_26">
    <path d="M 198.875028 59.616 
L 208.85164 65.376 
L 218.828253 59.616 
L 218.828253 48.096 
L 208.85164 42.336 
L 198.875028 48.096 
z
" clip-path="url(#p1b7f61889d)" style="fill: #d18a45"/>
   </g>
   <g id="patch_27">
    <path d="M 218.828253 59.616 
L 228.804866 65.376 
L 238.781478 59.616 
L 238.781478 48.096 
L 228.804866 42.336 
L 218.828253 48.096 
z
" clip-path="url(#p1b7f61889d)" style="fill: #e8ad70"/>
   </g>
   <g id="patch_28">
    <path d="M 238.781478 59.616 
L 248.758091 65.376 
L 258.734704 59.616 
L 258.734704 48.096 
L 248.758091 42.336 
L 238.781478 48.096 
z
" clip-path="url(#p1b7f61889d)" style="fill: #ffcf9e"/>
   </g>
   <g id="patch_29">
    <path d="M 49.225838 76.896 
L 59.202451 82.656 
L 69.179063 76.896 
L 69.179063 65.376 
L 59.202451 59.616 
L 49.225838 65.376 
z
" clip-path="url(#p1b7f61889d)" style="fill: #d18a45"/>
   </g>
   <g id="patch_30">
    <path d="M 69.179063 76.896 
L 79.155676 82.656 
L 89.132289 76.896 
L 89.132289 65.376 
L 79.155676 59.616 
L 69.179063 65.376 
z
" clip-path="url(#p1b7f61889d)" style="fill: #e8ad70"/>
   </g>
   <g id="patch_31">
    <path d="M 89.132289 76.896 
L 99.108901 82.656 
L 109.085514 76.896 
L 109.085514 65.376 
L 99.108901 59.616 
L 89.132289 65.376 
z
" clip-path="url(#p1b7f61889d)" style="fill: #ffcf9e"/>
   </g>
   <g id="patch_32">
    <path d="M 109.085514 76.896 
L 119.062127 82.656 
L 129.038739 76.896 
L 129.038739 65.376 
L 119.062127 59.616 
L 109.085514 65.376 
z
" clip-path="url(#p1b7f61889d)" style="fill: #d18a45"/>
   </g>
   <g id="patch_33">
    <path d="M 129.038739 76.896 
L 139.015352 82.656 
L 148.991964 76.896 
L 148.991964 65.376 
L 139.015352 59.616 
L 129.038739 65.376 
z
" clip-path="url(#p1b7f61889d)" style="fill: #e8ad70"/>
   </g>
   <g id="patch_34">
    <path d="M 148.991964 76.896 
L 158.968577 82.656 
L 168.94519 76.896 
L 168.94519 65.376 
L 158.968577 59.616 
L 148.991964 65.376 
z
" clip-path="url(#p1b7f61889d)" style="fill: #ffcf9e"/>
   </g>
   <g id="patch_35">
    <path d="M 168.94519 76.896 
L 178.921802 82.656 
L 188.898415 76.896 
L 188.898415 65.376 
L 178.921802 59.616 
L 168.94519 65.376 
z
" clip-path="url(#p1b7f61889d)" style="fill: #d18a45"/>
   </g>
   <g id="patch_36">
    <path d="M 188.898415 76.896 
L 198.875028 82.656 
L 208.85164 76.896 
L 208.85164 65.376 
L 198.875028 59.616 
L 188.898415 65.376 
z
" clip-path="url(#p1b7f61889d)" style="fill: #e8ad70"/>
   </g>
   <g id="patch_37">
    <path d="M 208.85164 76.896 
L 218.828253 82.656 
L 228.804866 76.896 
L 228.804866 65.376 
L 218.828253 59.616 
L 208.85164 65.376 
z
" clip-path="url(#p1b7f61889d)" style="fill: #ffcf9e"/>
   </g>
   <g id="patch_38">
    <path d="M 228.804866 76.896 
L 238.781478 82.656 
L 248.758091 76.896 
L 248.758091 65.376 
L 238.781478 59.616 
L 228.804866 65.376 
z
" clip-path="url(#p1b7f61889d)" style="fill: #d18a45"/>
   </g>
   <g id="patch_39">
    <path d="M 248.758091 76.896 
L 258.734704 82.656 
L 268.711316 76.896 
L 268.711316 65.376 
L 258.734704 59.616 
L 248.758091 65.376 
z
" clip-path="url(#p1b7f61889d)" style="fill: #e8ad70"/>
   </g>
   <g id="patch_40">
    <path d="M 39.249225 94.176 
L 49.225838 99.936 
L 59.202451 94.176 
L 59.202451 82.656 
L 49.225838 76.896 
L 39.249225 82.656 
z
" clip-path="url(#p1b7f61889d)" style="fill: #e8ad70"/>
   </g>
   <g id="patch_41">
    <path d="M 59.202451 94.176 
L 69.179063 99.936 
L 79.155676 94.176 
L 79.155676 82.656 
L 69.179063 76.896 
L 59.202451 82.656 
z
" clip-path="url(#p1b7f61889d)" style="fill: #ffcf9e"/>
   </g>
   <g id="patch_42">
    <path d="M 79.155676 94.176 
L 89.132289 99.936 
L 99.108901 94.176 
L 99.108901 82.656 
L 89.132289 76.896 
L 79.155676 82.656 
z
" clip-path="url(#p1b7f61889d)" style="fill: #d18a45"/>
   </g>
   <g id="patch_43">
    <path d="M 99.108901 94.176 
L 109.085514 99.936 
L 119.062127 94.176 
L 119.062127 82.656 
L 109.085514 76.896 
L 99.108901 82.656 
z
" clip-path="url(#p1b7f61889d)" style="fill: #e8ad70"/>
   </g>
   <g id="patch_44">
    <path d="M 119.062127 94.176 
L 129.038739 99.936 
L 139.015352 94.176 
L 139.015352 82.656 
L 129.038739 76.896 
L 119.062127 82.656 
z
" clip-path="url(#p1b7f61889d)" style="fill: #ffcf9e"/>
   </g>
   <g id="patch_45">
    <path d="M 139.015352 94.176 
L 148.991964 99.936 
L 158.968577 94.176 
L 158.968577 82.656 
L 148.991964 76.896 
L 139.015352 82.656 
z
" clip-path="url(#p1b7f61889d)" style="fill: #d18a45"/>
   </g>
   <g id="patch_46">
    <path d="M 158.968577 94.176 
L 168.94519 99.936 
L 178.921802 94.176 
L 178.921802 82.656 
L 168.94519 76.896 
L 158.968577 82.656 
z
" clip-path="url(#p1b7f61889d)" style="fill: #e8ad70"/>
   </g>
   <g id="patch_47">
    <path d="M 178.921802 94.176 
L 188.898415 99.936 
L 198.875028 94.176 
L 198.875028 82.656 
L 188.898415 76.896 
L 178.921802 82.656 
z
" clip-path="url(#p1b7f61889d)" style="fill: #ffcf9e"/>
   </g>
   <g id="patch_48">
    <path d="M 198.875028 94.176 
L 208.85164 99.936 
L 218.828253 94.176 
L 218.828253 82.656 
L 208.85164 76.896 
L 198.875028 82.656 
z
" clip-path="url(#p1b7f61889d)" style="fill: #d18a45"/>
   </g>
   <g id="patch_49">
    <path d="M 218.828253 94.176 
L 228.804866 99.936 
L 238.781478 94.176 
L 238.781478 82.656 
L 228.804866 76.896 
L 218.828253 82.656 
z
" clip-path="url(#p1b7f61889d)" style="fill: #e8ad70"/>
   </g>
   <g id="patch_50">
    <path d="M 238.781478 94.176 
L 248.758091 99.936 
L 258.734704 94.176 
L 258.734704 82.656 
L 248.758091 76.896 
L 238.781478 82.656 
z
" clip-path="url(#p1b7f61889d)" style="fill: #ffcf9e"/>
   </g>
   <g id="patch_51">
    <path d="M 258.734704 94.176 
L 268.711316 99.936 
L 278.687929 94.176 
L 278.687929 82.656 
L 268.711316 76.896 
L 258.734704 82.656 
z
" clip-path="url(#p1b7f61889d)" style="fill: #d18a45"/>
   </g>
   <g id="patch_52">
    <path d="M 29.272613 111.456 
L 39.249225 117.216 
L 49.225838 111.456 
L 49.225838 99.936 
L 39.249225 94.176 
L 29.272613 99.936 
z
" clip-path="url(#p1b7f61889d)" style="fill: #ffcf9e"/>
   </g>
   <g id="patch_53">
    <path d="M 49.225838 111.456 
L 59.202451 117.216 
L 69.179063 111.456 
L 69.179063 99.936 
L 59.202451 94.176 
L 49.225838 99.936 
z
" clip-path="url(#p1b7f61889d)" style="fill: #d18a45"/>
   </g>
   <g id="patch_54">
    <path d="M 69.179063 111.456 
L 79.155676 117.216 
L 89.132289 111.456 
L 89.132289 99.936 
L 79.155676 94.176 
L 69.179063 99.936 
z
" clip-path="url(#p1b7f61889d)" style="fill: #e8ad70"/>
   </g>
   <g id="patch_55">
    <path d="M 89.132289 111.456 
L 99.108901 117.216 
L 109.085514 111.456 
L 109.085514 99.936 
L 99.108901 94.176 
L 89.132289 99.936 
z
" clip-path="url(#p1b7f61889d)" style="fill: #ffcf9e"/>
   </g>
   <g id="patch_56">
    <path d="M 109.085514 111.456 
L 119.062127 117.216 
L 129.038739 111.456 
L 129.038739 99.936 
L 119.062127 94.176 
L 109.085514 99.936 
z
" clip-path="url(#p1b7f61889d)" style="fill: #d18a45"/>
   </g>
   <g id="patch_57">
    <path d="M 129.038739 111.456 
L 139.015352 117.216 
L 148.991964 111.456 
L 148.991964 99.936 
L 139.015352 94.176 
L 129.038739 99.936 
z
" clip-path="url(#p1b7f61889d)" style="fill: #e8ad70"/>
   </g>
   <g id="patch_58">
    <path d="M 148.991964 111.456 
L 158.968577 117.216 
L 168.94519 111.456 
L 168.94519 99.936 
L 158.968577 94.176 
L 148.991964 99.936 
z
" clip-path="url(#p1b7f61889d)" style="fill: #ffcf9e"/>
   </g>
   <g id="patch_59">
    <path d="M 168.94519 111.456 
L 178.921802 117.216 
L 188.898415 111.456 
L 188.898415 99.936 
L 178.921802 94.176 
L 168.94519 99.936 
z
" clip-path="url(#p1b7f61889d)" style="fill: #d18a45"/>
   </g>
   <g id="patch_60">
    <path d="M 188.898415 111.456 
L 198.875028 117.216 
L 208.85164 111.456 
L 208.85164 99.936 
L 198.875028 94.176 
L 188.898415 99.936 
z
" clip-path="url(#p1b7f61889d)" style="fill: #e8ad70"/>
   </g>
   <g id="patch_61">
    <path d="M 208.85164 111.456 
L 218.828253 117.216 
L 228.804866 111.456 
L 228.804866 99.936 
L 218.828253 94.176 
L 208.85164 99.936 
z
" clip-path="url(#p1b7f61889d)" style="fill: #ffcf9e"/>
   </g>
   <g id="patch_62">
    <path d="M 228.804866 111.456 
L 238.781478 117.216 
L 248.758091 111.456 
L 248.758091 99.936 
L 238.781478 94.176 
L 228.804866 99.936 
z
" clip-path="url(#p1b7f61889d)" style="fill: #d18a45"/>
   </g>
   <g id="patch_63">
    <path d="M 248.758091 111.456 
L 258.734704 117.216 
L 268.711316 111.456 
L 268.711316 99.936 
L 258.734704 94.176 
L 248.758091 99.936 
z
" clip-path="url(#p1b7f61889d)" style="fill: #e8ad70"/>
   </g>
   <g id="patch_64">
    <path d="M 268.711316 111.456 
L 278.687929 117.216 
L 288.664542 111.456 
L 288.664542 99.936 
L 278.687929 94.176 
L 268.711316 99.936 
z
" clip-path="url(#p1b7f61889d)" style="fill: #ffcf9e"/>
   </g>
   <g id="patch_65">
    <path d="M 19.296 128.736 
L 29.272613 134.496 
L 39.249225 128.736 
L 39.249225 117.216 
L 29.272613 111.456 
L 19.296 117.216 
z
" clip-path="url(#p1b7f61889d)" style="fill: #d18a45"/>
   </g>
   <g id="patch_66">
    <path d="M 39.249225 128.736 
L 49.225838 134.496 
L 59.202451 128.736 
L 59.202451 117.216 
L 49.225838 111.456 
L 39.249225 117.216 
z
" clip-path="url(#p1b7f61889d)" style="fill: #e8ad70"/>
   </g>
   <g id="patch_67">
    <path d="M 59.202451 128.736 
L 69.179063 134.496 
L 79.155676 128.736 
L 79.155676 117.216 
L 69.179063 111.456 
L 59.202451 117.216 
z
" clip-path="url(#p1b7f61889d)" style="fill: #ffcf9e"/>
   </g>
   <g id="patch_68">
    <path d="M 79.155676 128.736 
L 89.132289 134.496 
L 99.108901 128.736 
L 99.108901 117.216 
L 89.132289 111.456 
L 79.155676 117.216 
z
" clip-path="url(#p1b7f61889d)" style="fill: #d18a45"/>
   </g>
   <g id="patch_69">
    <path d="M 99.108901 128.736 
L 109.085514 134.496 
L 119.062127 128.736 
L 119.062127 117.216 
L 109.085514 111.456 
L 99.108901 117.216 
z
" clip-path="url(#p1b7f61889d)" style="fill: #e8ad70"/>
   </g>
   <g id="patch_70">
    <path d="M 119.062127 128.736 
L 129.038739 134.496 
L 139.015352 128.736 
L 139.015352 117.216 
L 129.038739 111.456 
L 119.062127 117.216 
z
" clip-path="url(#p1b7f61889d)" style="fill: #ffcf9e"/>
   </g>
   <g id="patch_71">
    <path d="M 139.015352 128.736 
L 148.991964 134.496 
L 158.968577 128.736 
L 158.968577 117.216 
L 148.991964 111.456 
L 139.015352 117.216 
z
" clip-path="url(#p1b7f61889d)" style="fill: #d18a45"/>
   </g>
   <g id="patch_72">
    <path d="M 158.968577 128.736 
L 168.94519 134.496 
L 178.921802 128.736 
L 178.921802 117.216 
L 168.94519 111.456 
L 158.968577 117.216 
z
" clip-path="url(#p1b7f61889d)" style="fill: #e8ad70"/>
   </g>
   <g id="patch_73">
    <path d="M 178.921802 128.736 
L 188.898415 134.496 
L 198.875028 128.736 
L 198.875028 117.216 
L 188.898415 111.456 
L 178.921802 117.216 
z
" clip-path="url(#p1b7f61889d)" style="fill: #ffcf9e"/>
   </g>
   <g id="patch_74">
    <path d="M 198.875028 128.736 
L 208.85164 134.496 
L 218.828253 128.736 
L 218.828253 117.216 
L 208.85164 111.456 
L 198.875028 117.216 
z
" clip-path="url(#p1b7f61889d)" style="fill: #d18a45"/>
   </g>
   <g id="patch_75">
    <path d="M 218.828253 128.736 
L 228.804866 134.496 
L 238.781478 128.736 
L 238.781478 117.216 
L 228.804866 111.456 
L 218.828253 117.216 
z
" clip-path="url(#p1b7f61889d)" style="fill: #e8ad70"/>
   </g>
   <g id="patch_76">
    <path d="M 238.781478 128.736 
L 248.758091 134.496 
L 258.734704 128.736 
L 258.734704 117.216 
L 248.758091 111.456 
L 238.781478 117.216 
z
" clip-path="url(#p1b7f61889d)" style="fill: #ffcf9e"/>
   </g>
   <g id="patch_77">
    <path d="M 258.734704 128.736 
L 268.711316 134.496 
L 278.687929 128.736 
L 278.687929 117.216 
L 268.711316 111.456 
L 258.734704 117.216 
z
" clip-path="url(#p1b7f61889d)" style="fill: #d18a45"/>
   </g>
   <g id="patch_78">
    <path d="M 278.687929 128.736 
L 288.664542 134.496 
L 298.641154 128.736 
L 298.641154 117.216 
L 288.664542 111.456 
L 278.687929 117.216 
z
" clip-path="url(#p1b7f61889d)" style="fill: #e8ad70"/>
   </g>
   <g id="patch_79">
    <path d="M 9.319387 146.016 
L 19.296 151.776 
L 29.272613 146.016 
L 29.272613 134.496 
L 19.296 128.736 
L 9.319387 134.496 
z
" clip-path="url(#p1b7f61889d)" style="fill: #e8ad70"/>
   </g>
   <g id="patch_80">
    <path d="M 29.272613 146.016 
L 39.249225 151.776 
L 49.225838 146.016 
L 49.225838 134.496 
L 39.249225 128.736 
L 29.272613 134.496 
z
" clip-path="url(#p1b7f61889d)" style="fill: #ffcf9e"/>
   </g>
   <g id="patch_81">
    <path d="M 49.225838 146.016 
L 59.202451 151.776 
L 69.179063 146.016 
L 69.179063 134.496 
L 59.202451 128.736 
L 49.225838 134.496 
z
" clip-path="url(#p1b7f61889d)" style="fill: #d18a45"/>
   </g>
   <g id="patch_82">
    <path d="M 69.179063 146.016 
L 79.155676 151.776 
L 89.132289 146.016 
L 89.132289 134.496 
L 79.155676 128.736 
L 69.179063 134.496 
z
" clip-path="url(#p1b7f61889d)" style="fill: #e8ad70"/>
   </g>
   <g id="patch_83">
    <path d="M 89.132289 146.016 
L 99.108901 151.776 
L 109.085514 146.016 
L 109.085514 134.496 
L 99.108901 128.736 
L 89.132289 134.496 
z
" clip-path="url(#p1b7f61889d)" style="fill: #ffcf9e"/>
   </g>
   <g id="patch_84">
    <path d="M 109.085514 146.016 
L 119.062127 151.776 
L 129.038739 146.016 
L 129.038739 134.496 
L 119.062127 128.736 
L 109.085514 134.496 
z
" clip-path="url(#p1b7f61889d)" style="fill: #d18a45"/>
   </g>
   <g id="patch_85">
    <path d="M 129.038739 146.016 
L 139.015352 151.776 
L 148.991964 146.016 
L 148.991964 134.496 
L 139.015352 128.736 
L 129.038739 134.496 
z
" clip-path="url(#p1b7f61889d)" style="fill: #e8ad70"/>
   </g>
   <g id="patch_86">
    <path d="M 148.991964 146.016 
L 158.968577 151.776 
L 168.94519 146.016 
L 168.94519 134.496 
L 158.968577 128.736 
L 148.991964 134.496 
z
" clip-path="url(#p1b7f61889d)" style="fill: #ffcf9e"/>
   </g>
   <g id="patch_87">
    <path d="M 168.94519 146.016 
L 178.921802 151.776 
L 188.898415 146.016 
L 188.898415 134.496 
L 178.921802 128.736 
L 168.94519 134.496 
z
" clip-path="url(#p1b7f61889d)" style="fill: #d18a45"/>
   </g>
   <g id="patch_88">
    <path d="M 188.898415 146.016 
L 198.875028 151.776 
L 208.85164 146.016 
L 208.85164 134.496 
L 198.875028 128.736 
L 188.898415 134.496 
z
" clip-path="url(#p1b7f61889d)" style="fill: #e8ad70"/>
   </g>
   <g id="patch_89">
    <path d="M 208.85164 146.016 
L 218.828253 151.776 
L 228.804866 146.016 
L 228.804866 134.496 
L 218.828253 128.736 
L 208.85164 134.496 
z
" clip-path="url(#p1b7f61889d)" style="fill: #ffcf9e"/>
   </g>
   <g id="patch_90">
    <path d="M 228.804866 146.016 
L 238.781478 151.776 
L 248.758091 146.016 
L 248.758091 134.496 
L 238.781478 128.736 
L 228.804866 134.496 
z
" clip-path="url(#p1b7f61889d)" style="fill: #d18a45"/>
   </g>
   <g id="patch_91">
    <path d="M 248.758091 146.016 
L 258.734704 151.776 
L 268.711316 146.016 
L 268.711316 134.496 
L 258.734704 128.736 
L 248.758091 134.496 
z
" clip-path="url(#p1b7f61889d)" style="fill: #e8ad70"/>
   </g>
   <g id="patch_92">
    <path d="M 268.711316 146.016 
L 278.687929 151.776 
L 288.664542 146.016 
L 288.664542 134.496 
L 278.687929 128.736 
L 268.711316 134.496 
z
" clip-path="url(#p1b7f61889d)" style="fill: #ffcf9e"/>
   </g>
   <g id="patch_93">
    <path d="M 288.664542 146.016 
L 298.641154 151.776 
L 308.617767 146.016 
L 308.617767 134.496 
L 298.641154 128.736 
L 288.664542 134.496 
z
" clip-path="url(#p1b7f61889d)" style="fill: #d18a45"/>
   </g>
   <g id="patch_94">
    <path d="M 19.296 163.296 
L 29.272613 169.056 
L 39.249225 163.296 
L 39.249225 151.776 
L 29.272613 146.016 
L 19.296 151.776 
z
" clip-path="url(#p1b7f61889d)" style="fill: #d18a45"/>
   </g>
   <g id="patch_95">
    <path d="M 39.249225 163.296 
L 49.225838 169.056 
L 59.202451 163.296 
L 59.202451 151.776 
L 49.225838 146.016 
L 39.249225 151.776 
z
" clip-path="url(#p1b7f61889d)" style="fill: #e8ad70"/>
   </g>
   <g id="patch_96">
    <path d="M 59.202451 163.296 
L 69.179063 169.056 
L 79.155676 163.296 
L 79.155676 151.776 
L 69.179063 146.016 
L 59.202451 151.776 
z
" clip-path="url(#p1b7f61889d)" style="fill: #ffcf9e"/>
   </g>
   <g id="patch_97">
    <path d="M 79.155676 163.296 
L 89.132289 169.056 
L 99.108901 163.296 
L 99.108901 151.776 
L 89.132289 146.016 
L 79.155676 151.776 
z
" clip-path="url(#p1b7f61889d)" style="fill: #d18a45"/>
   </g>
   <g id="patch_98">
    <path d="M 99.108901 163.296 
L 109.085514 169.056 
L 119.062127 163.296 
L 119.062127 151.776 
L 109.085514 146.016 
L 99.108901 151.776 
z
" clip-path="url(#p1b7f61889d)" style="fill: #e8ad70"/>
   </g>
   <g id="patch_99">
    <path d="M 119.062127 163.296 
L 129.038739 169.056 
L 139.015352 163.296 
L 139.015352 151.776 
L 129.038739 146.016 
L 119.062127 151.776 
z
" clip-path="url(#p1b7f61889d)" style="fill: #ffcf9e"/>
   </g>
   <g id="patch_100">
    <path d="M 139.015352 163.296 
L 148.991964 169.056 
L 158.968577 163.296 
L 158.968577 151.776 
L 148.991964 146.016 
L 139.015352 151.776 
z
" clip-path="url(#p1b7f61889d)" style="fill: #d18a45"/>
   </g>
   <g id="patch_101">
    <path d="M 158.968577 163.296 
L 168.94519 169.056 
L 178.921802 163.296 
L 178.921802 151.776 
L 168.94519 146.016 
L 158.968577 151.776 
z
" clip-path="url(#p1b7f61889d)" style="fill: #e8ad70"/>
   </g>
   <g id="patch_102">
    <path d="M 178.921802 163.296 
L 188.898415 169.056 
L 198.875028 163.296 
L 198.875028 151.776 
L 188.898415 146.016 
L 178.921802 151.776 
z
" clip-path="url(#p1b7f61889d)" style="fill: #ffcf9e"/>
   </g>
   <g id="patch_103">
    <path d="M 198.875028 163.296 
L 208.85164 169.056 
L 218.828253 163.296 
L 218.828253 151.776 
L 208.85164 146.016 
L 198.875028 151.776 
z
" clip-path="url(#p1b7f61889d)" style="fill: #d18a45"/>
   </g>
   <g id="patch_104">
    <path d="M 218.828253 163.296 
L 228.804866 169.056 
L 238.781478 163.296 
L 238.781478 151.776 
L 228.804866 146.016 
L 218.828253 151.776 
z
" clip-path="url(#p1b7f61889d)" style="fill: #e8ad70"/>
   </g>
   <g id="patch_105">
    <path d="M 238.781478 163.296 
L 248.758091 169.056 
L 258.734704 163.296 
L 258.734704 151.776 
L 248.758091 146.016 
L 238.781478 151.776 
z
" clip-path="url(#p1b7f61889d)" style="fill: #ffcf9e"/>
   </g>
   <g id="patch_106">
    <path d="M 258.734704 163.296 
L 268.711316 169.056 
L 278.687929 163.296 
L 278.687929 151.776 
L 268.711316 146.016 
L 258.734704 151.776 
z
" clip-path="url(#p1b7f61889d)" style="fill: #d18a45"/>
   </g>
   <g id="patch_107">
    <path d="M 278.687929 163.296 
L 288.664542 169.056 
L 298.641154 163.296 
L 298.641154 151.776 
L 288.664542 146.016 
L 278.687929 151.776 
z
" clip-path="url(#p1b7f61889d)" style="fill: #e8ad70"/>
   </g>
   <g id="patch_108">
    <path d="M 29.272613 180.576 
L 39.249225 186.336 
L 49.225838 180.576 
L 49.225838 169.056 
L 39.249225 163.296 
L 29.272613 169.056 
z
" clip-path="url(#p1b7f61889d)" style="fill: #ffcf9e"/>
   </g>
   <g id="patch_109">
    <path d="M 49.225838 180.576 
L 59.202451 186.336 
L 69.179063 180.576 
L 69.179063 169.056 
L 59.202451 163.296 
L 49.225838 169.056 
z
" clip-path="url(#p1b7f61889d)" style="fill: #d18a45"/>
   </g>
   <g id="patch_110">
    <path d="M 69.179063 180.576 
L 79.155676 186.336 
L 89.132289 180.576 
L 89.132289 169.056 
L 79.155676 163.296 
L 69.179063 169.056 
z
" clip-path="url(#p1b7f61889d)" style="fill: #e8ad70"/>
   </g>
   <g id="patch_111">
    <path d="M 89.132289 180.576 
L 99.108901 186.336 
L 109.085514 180.576 
L 109.085514 169.056 
L 99.108901 163.296 
L 89.132289 169.056 
z
" clip-path="url(#p1b7f61889d)" style="fill: #ffcf9e"/>
   </g>
   <g id="patch_112">
    <path d="M 109.085514 180.576 
L 119.062127 186.336 
L 129.038739 180.576 
L 129.038739 169.056 
L 119.062127 163.296 
L 109.085514 169.056 
z
" clip-path="url(#p1b7f61889d)" style="fill: #d18a45"/>
   </g>
   <g id="patch_113">
    <path d="M 129.038739 180.576 
L 139.015352 186.336 
L 148.991964 180.576 
L 148.991964 169.056 
L 139.015352 163.296 
L 129.038739 169.056 
z
" clip-path="url(#p1b7f61889d)" style="fill: #e8ad70"/>
   </g>
   <g id="patch_114">
    <path d="M 148.991964 180.576 
L 158.968577 186.336 
L 168.94519 180.576 
L 168.94519 169.056 
L 158.968577 163.296 
L 148.991964 169.056 
z
" clip-path="url(#p1b7f61889d)" style="fill: #ffcf9e"/>
   </g>
   <g id="patch_115">
    <path d="M 168.94519 180.576 
L 178.921802 186.336 
L 188.898415 180.576 
L 188.898415 169.056 
L 178.921802 163.296 
L 168.94519 169.056 
z
" clip-path="url(#p1b7f61889d)" style="fill: #d18a45"/>
   </g>
   <g id="patch_116">
    <path d="M 188.898415 180.576 
L 198.875028 186.336 
L 208.85164 180.576 
L 208.85164 169.056 
L 198.875028 163.296 
L 188.898415 169.056 
z
" clip-path="url(#p1b7f61889d)" style="fill: #e8ad70"/>
   </g>
   <g id="patch_117">
    <path d="M 208.85164 180.576 
L 218.828253 186.336 
L 228.804866 180.576 
L 228.804866 169.056 
L 218.828253 163.296 
L 208.85164 169.056 
z
" clip-path="url(#p1b7f61889d)" style="fill: #ffcf9e"/>
   </g>
   <g id="patch_118">
    <path d="M 228.804866 180.576 
L 238.781478 186.336 
L 248.758091 180.576 
L 248.758091 169.056 
L 238.781478 163.296 
L 228.804866 169.056 
z
" clip-path="url(#p1b7f61889d)" style="fill: #d18a45"/>
   </g>
   <g id="patch_119">
    <path d="M 248.758091 180.576 
L 258.734704 186.336 
L 268.711316 180.576 
L 268.711316 169.056 
L 258.734704 163.296 
L 248.758091 169.056 
z
" clip-path="url(#p1b7f61889d)" style="fill: #e8ad70"/>
   </g>
   <g id="patch_120">
    <path d="M 268.711316 180.576 
L 278.687929 186.336 
L 288.664542 180.576 
L 288.664542 169.056 
L 278.687929 163.296 
L 268.711316 169.056 
z
" clip-path="url(#p1b7f61889d)" style="fill: #ffcf9e"/>
   </g>
   <g id="patch_121">
    <path d="M 39.249225 197.856 
L 49.225838 203.616 
L 59.202451 197.856 
L 59.202451 186.336 
L 49.225838 180.576 
L 39.249225 186.336 
z
" clip-path="url(#p1b7f61889d)" style="fill: #e8ad70"/>
   </g>
   <g id="patch_122">
    <path d="M 59.202451 197.856 
L 69.179063 203.616 
L 79.155676 197.856 
L 79.155676 186.336 
L 69.179063 180.576 
L 59.202451 186.336 
z
" clip-path="url(#p1b7f61889d)" style="fill: #ffcf9e"/>
   </g>
   <g id="patch_123">
    <path d="M 79.155676 197.856 
L 89.132289 203.616 
L 99.108901 197.856 
L 99.108901 186.336 
L 89.132289 180.576 
L 79.155676 186.336 
z
" clip-path="url(#p1b7f61889d)" style="fill: #d18a45"/>
   </g>
   <g id="patch_124">
    <path d="M 99.108901 197.856 
L 109.085514 203.616 
L 119.062127 197.856 
L 119.062127 186.336 
L 109.085514 180.576 
L 99.108901 186.336 
z
" clip-path="url(#p1b7f61889d)" style="fill: #e8ad70"/>
   </g>
   <g id="patch_125">
    <path d="M 119.062127 197.856 
L 129.038739 203.616 
L 139.015352 197.856 
L 139.015352 186.336 
L 129.038739 180.576 
L 119.062127 186.336 
z
" clip-path="url(#p1b7f61889d)" style="fill: #ffcf9e"/>
   </g>
   <g id="patch_126">
    <path d="M 139.015352 197.856 
L 148.991964 203.616 
L 158.968577 197.856 
L 158.968577 186.336 
L 148.991964 180.576 
L 139.015352 186.336 
z
" clip-path="url(#p1b7f61889d)" style="fill: #d18a45"/>
   </g>
   <g id="patch_127">
    <path d="M 158.968577 197.856 
L 168.94519 203.616 
L 178.921802 197.856 
L 178.921802 186.336 
L 168.94519 180.576 
L 158.968577 186.336 
z
" clip-path="url(#p1b7f61889d)" style="fill: #e8ad70"/>
   </g>
   <g id="patch_128">
    <path d="M 178.921802 197.856 
L 188.898415 203.616 
L 198.875028 197.856 
L 198.875028 186.336 
L 188.898415 180.576 
L 178.921802 186.336 
z
" clip-path="url(#p1b7f61889d)" style="fill: #ffcf9e"/>
   </g>
   <g id="patch_129">
    <path d="M 198.875028 197.856 
L 208.85164 203.616 
L 218.828253 197.856 
L 218.828253 186.336 
L 208.85164 180.576 
L 198.875028 186.336 
z
" clip-path="url(#p1b7f61889d)" style="fill: #d18a45"/>
   </g>
   <g id="patch_130">
    <path d="M 218.828253 197.856 
L 228.804866 203.616 
L 238.781478 197.856 
L 238.781478 186.336 
L 228.804866 180.576 
L 218.828253 186.336 
z
" clip-path="url(#p1b7f61889d)" style="fill: #e8ad70"/>
   </g>
   <g id="patch_131">
    <path d="M 238.781478 197.856 
L 248.758091 203.616 
L 258.734704 197.856 
L 258.734704 186.336 
L 248.758091 180.576 
L 238.781478 186.336 
z
" clip-path="url(#p1b7f61889d)" style="fill: #ffcf9e"/>
   </g>
   <g id="patch_132">
    <path d="M 258.734704 197.856 
L 268.711316 203.616 
L 278.687929 197.856 
L 278.687929 186.336 
L 268.711316 180.576 
L 258.734704 186.336 
z
" clip-path="url(#p1b7f61889d)" style="fill: #d18a45"/>
   </g>
   <g id="patch_133">
    <path d="M 49.225838 215.136 
L 59.202451 220.896 
L 69.179063 215.136 
L 69.179063 203.616 
L 59.202451 197.856 
L 49.225838 203.616 
z
" clip-path="url(#p1b7f61889d)" style="fill: #d18a45"/>
   </g>
   <g id="patch_134">
    <path d="M 69.179063 215.136 
L 79.155676 220.896 
L 89.132289 215.136 
L 89.132289 203.616 
L 79.155676 197.856 
L 69.179063 203.616 
z
" clip-path="url(#p1b7f61889d)" style="fill: #e8ad70"/>
   </g>
   <g id="patch_135">
    <path d="M 89.132289 215.136 
L 99.108901 220.896 
L 109.085514 215.136 
L 109.085514 203.616 
L 99.108901 197.856 
L 89.132289 203.616 
z
" clip-path="url(#p1b7f61889d)" style="fill: #ffcf9e"/>
   </g>
   <g id="patch_136">
    <path d="M 109.085514 215.136 
L 119.062127 220.896 
L 129.038739 215.136 
L 129.038739 203.616 
L 119.062127 197.856 
L 109.085514 203.616 
z
" clip-path="url(#p1b7f61889d)" style="fill: #d18a45"/>
   </g>
   <g id="patch_137">
    <path d="M 129.038739 215.136 
L 139.015352 220.896 
L 148.991964 215.136 
L 148.991964 203.616 
L 139.015352 197.856 
L 129.038739 203.616 
z
" clip-path="url(#p1b7f61889d)" style="fill: #e8ad70"/>
   </g>
   <g id="patch_138">
    <path d="M 148.991964 215.136 
L 158.968577 220.896 
L 168.94519 215.136 
L 168.94519 203.616 
L 158.968577 197.856 
L 148.991964 203.616 
z
" clip-path="url(#p1b7f61889d)" style="fill: #ffcf9e"/>
   </g>
   <g id="patch_139">
    <path d="M 168.94519 215.136 
L 178.921802 220.896 
L 188.898415 215.136 
L 188.898415 203.616 
L 178.921802 197.856 
L 168.94519 203.616 
z
" clip-path="url(#p1b7f61889d)" style="fill: #d18a45"/>
   </g>
   <g id="patch_140">
    <path d="M 188.898415 215.136 
L 198.875028 220.896 
L 208.85164 215.136 
L 208.85164 203.616 
L 198.875028 197.856 
L 188.898415 203.616 
z
" clip-path="url(#p1b7f61889d)" style="fill: #e8ad70"/>
   </g>
   <g id="patch_141">
    <path d="M 208.85164 215.136 
L 218.828253 220.896 
L 228.804866 215.136 
L 228.804866 203.616 
L 218.828253 197.856 
L 208.85164 203.616 
z
" clip-path="url(#p1b7f61889d)" style="fill: #ffcf9e"/>
   </g>
   <g id="patch_142">
    <path d="M 228.804866 215.136 
L 238.781478 220.896 
L 248.758091 215.136 
L 248.758091 203.616 
L 238.781478 197.856 
L 228.804866 203.616 
z
" clip-path="url(#p1b7f61889d)" style="fill: #d18a45"/>
   </g>
   <g id="patch_143">
    <path d="M 248.758091 215.136 
L 258.734704 220.896 
L 268.711316 215.136 
L 268.711316 203.616 
L 258.734704 197.856 
L 248.758091 203.616 
z
" clip-path="url(#p1b7f61889d)" style="fill: #e8ad70"/>
   </g>
   <g id="patch_144">
    <path d="M 59.202451 232.416 
L 69.179063 238.176 
L 79.155676 232.416 
L 79.155676 220.896 
L 69.179063 215.136 
L 59.202451 220.896 
z
" clip-path="url(#p1b7f61889d)" style="fill: #ffcf9e"/>
   </g>
   <g id="patch_145">
    <path d="M 79.155676 232.416 
L 89.132289 238.176 
L 99.108901 232.416 
L 99.108901 220.896 
L 89.132289 215.136 
L 79.155676 220.896 
z
" clip-path="url(#p1b7f61889d)" style="fill: #d18a45"/>
   </g>
   <g id="patch_146">
    <path d="M 99.108901 232.416 
L 109.085514 238.176 
L 119.062127 232.416 
L 119.062127 220.896 
L 109.085514 215.136 
L 99.108901 220.896 
z
" clip-path="url(#p1b7f61889d)" style="fill: #e8ad70"/>
   </g>
   <g id="patch_147">
    <path d="M 119.062127 232.416 
L 129.038739 238.176 
L 139.015352 232.416 
L 139.015352 220.896 
L 129.038739 215.136 
L 119.062127 220.896 
z
" clip-path="url(#p1b7f61889d)" style="fill: #ffcf9e"/>
   </g>
   <g id="patch_148">
    <path d="M 139.015352 232.416 
L 148.991964 238.176 
L 158.968577 232.416 
L 158.968577 220.896 
L 148.991964 215.136 
L 139.015352 220.896 
z
" clip-path="url(#p1b7f61889d)" style="fill: #d18a45"/>
   </g>
   <g id="patch_149">
    <path d="M 158.968577 232.416 
L 168.94519 238.176 
L 178.921802 232.416 
L 178.921802 220.896 
L 168.94519 215.136 
L 158.968577 220.896 
z
" clip-path="url(#p1b7f61889d)" style="fill: #e8ad70"/>
   </g>
   <g id="patch_150">
    <path d="M 178.921802 232.416 
L 188.898415 238.176 
L 198.875028 232.416 
L 198.875028 220.896 
L 188.898415 215.136 
L 178.921802 220.896 
z
" clip-path="url(#p1b7f61889d)" style="fill: #ffcf9e"/>
   </g>
   <g id="patch_151">
    <path d="M 198.875028 232.416 
L 208.85164 238.176 
L 218.828253 232.416 
L 218.828253 220.896 
L 208.85164 215.136 
L 198.875028 220.896 
z
" clip-path="url(#p1b7f61889d)" style="fill: #d18a45"/>
   </g>
   <g id="patch_152">
    <path d="M 218.828253 232.416 
L 228.804866 238.176 
L 238.781478 232.416 
L 238.781478 220.896 
L 228.804866 215.136 
L 218.828253 220.896 
z
" clip-path="url(#p1b7f61889d)" style="fill: #e8ad70"/>
   </g>
   <g id="patch_153">
    <path d="M 238.781478 232.416 
L 248.758091 238.176 
L 258.734704 232.416 
L 258.734704 220.896 
L 248.758091 215.136 
L 238.781478 220.896 
z
" clip-path="url(#p1b7f61889d)" style="fill: #ffcf9e"/>
   </g>
   <g id="patch_154">
    <path d="M 69.179063 249.696 
L 79.155676 255.456 
L 89.132289 249.696 
L 89.132289 238.176 
L 79.155676 232.416 
L 69.179063 238.176 
z
" clip-path="url(#p1b7f61889d)" style="fill: #e8ad70"/>
   </g>
   <g id="patch_155">
    <path d="M 89.132289 249.696 
L 99.108901 255.456 
L 109.085514 249.696 
L 109.085514 238.176 
L 99.108901 232.416 
L 89.132289 238.176 
z
" clip-path="url(#p1b7f61889d)" style="fill: #ffcf9e"/>
   </g>
   <g id="patch_156">
    <path d="M 109.085514 249.696 
L 119.062127 255.456 
L 129.038739 249.696 
L 129.038739 238.176 
L 119.062127 232.416 
L 109.085514 238.176 
z
" clip-path="url(#p1b7f61889d)" style="fill: #d18a45"/>
   </g>
   <g id="patch_157">
    <path d="M 129.038739 249.696 
L 139.015352 255.456 
L 148.991964 249.696 
L 148.991964 238.176 
L 139.015352 232.416 
L 129.038739 238.176 
z
" clip-path="url(#p1b7f61889d)" style="fill: #e8ad70"/>
   </g>
   <g id="patch_158">
    <path d="M 148.991964 249.696 
L 158.968577 255.456 
L 168.94519 249.696 
L 168.94519 238.176 
L 158.968577 232.416 
L 148.991964 238.176 
z
" clip-path="url(#p1b7f61889d)" style="fill: #ffcf9e"/>
   </g>
   <g id="patch_159">
    <path d="M 168.94519 249.696 
L 178.921802 255.456 
L 188.898415 249.696 
L 188.898415 238.176 
L 178.921802 232.416 
L 168.94519 238.176 
z
" clip-path="url(#p1b7f61889d)" style="fill: #d18a45"/>
   </g>
   <g id="patch_160">
    <path d="M 188.898415 249.696 
L 198.875028 255.456 
L 208.85164 249.696 
L 208.85164 238.176 
L 198.875028 232.416 
L 188.898415 238.176 
z
" clip-path="url(#p1b7f61889d)" style="fill: #e8ad70"/>
   </g>
   <g id="patch_161">
    <path d="M 208.85164 249.696 
L 218.828253 255.456 
L 228.804866 249.696 
L 228.804866 238.176 
L 218.828253 232.416 
L 208.85164 238.176 
z
" clip-path="url(#p1b7f61889d)" style="fill: #ffcf9e"/>
   </g>
   <g id="patch_162">
    <path d="M 228.804866 249.696 
L 238.781478 255.456 
L 248.758091 249.696 
L 248.758091 238.176 
L 238.781478 232.416 
L 228.804866 238.176 
z
" clip-path="url(#p1b7f61889d)" style="fill: #d18a45"/>
   </g>
   <g id="patch_163">
    <path d="M 79.155676 266.976 
L 89.132289 272.736 
L 99.108901 266.976 
L 99.108901 255.456 
L 89.132289 249.696 
L 79.155676 255.456 
z
" clip-path="url(#p1b7f61889d)" style="fill: #d18a45"/>
   </g>
   <g id="patch_164">
    <path d="M 99.108901 266.976 
L 109.085514 272.736 
L 119.062127 266.976 
L 119.062127 255.456 
L 109.085514 249.696 
L 99.108901 255.456 
z
" clip-path="url(#p1b7f61889d)" style="fill: #e8ad70"/>
   </g>
   <g id="patch_165">
    <path d="M 119.062127 266.976 
L 129.038739 272.736 
L 139.015352 266.976 
L 139.015352 255.456 
L 129.038739 249.696 
L 119.062127 255.456 
z
" clip-path="url(#p1b7f61889d)" style="fill: #ffcf9e"/>
   </g>
   <g id="patch_166">
    <path d="M 139.015352 266.976 
L 148.991964 272.736 
L 158.968577 266.976 
L 158.968577 255.456 
L 148.991964 249.696 
L 139.015352 255.456 
z
" clip-path="url(#p1b7f61889d)" style="fill: #d18a45"/>
   </g>
   <g id="patch_167">
    <path d="M 158.968577 266.976 
L 168.94519 272.736 
L 178.921802 266.976 
L 178.921802 255.456 
L 168.94519 249.696 
L 158.968577 255.456 
z
" clip-path="url(#p1b7f61889d)" style="fill: #e8ad70"/>
   </g>
   <g id="patch_168">
    <path d="M 178.921802 266.976 
L 188.898415 272.736 
L 198.875028 266.976 
L 198.875028 255.456 
L 188.898415 249.696 
L 178.921802 255.456 
z
" clip-path="url(#p1b7f61889d)" style="fill: #ffcf9e"/>
   </g>
   <g id="patch_169">
    <path d="M 198.875028 266.976 
L 208.85164 272.736 
L 218.828253 266.976 
L 218.828253 255.456 
L 208.85164 249.696 
L 198.875028 255.456 
z
" clip-path="url(#p1b7f61889d)" style="fill: #d18a45"/>
   </g>
   <g id="patch_170">
    <path d="M 218.828253 266.976 
L 228.804866 272.736 
L 238.781478 266.976 
L 238.781478 255.456 
L 228.804866 249.696 
L 218.828253 255.456 
z
" clip-path="url(#p1b7f61889d)" style="fill: #e8ad70"/>
   </g>
   <g id="line2d_1">
    <defs>
     <path id="md912e0a2dc" d="M 0 7 
C 1.856422 7 3.637059 6.262436 4.949747 4.949747 
C 6.262436 3.637059 7 1.856422 7 0 
C 7 -1.856422 6.262436 -3.637059 4.949747 -4.949747 
C 3.637059 -6.262436 1.856422 -7 0 -7 
C -1.856422 -7 -3.637059 -6.262436 -4.949747 -4.949747 
C -6.262436 -3.637059 -7 -1.856422 -7 0 
C -7 1.856422 -6.262436 3.637059 -4.949747 4.949747 
C -3.637059 6.262436 -1.856422 7 0 7 
z
" style="stroke: #000000"/>
    </defs>
    <g clip-path="url(#p1b7f61889d)">
     <use xlink:href="#md912e0a2dc" x="89.132289" y="19.296" style="fill: #ffff00; stroke: #000000"/>
    </g>
   </g>
   <g id="line2d_2">
    <g clip-path="url(#p1b7f61889d)">
     <use xlink:href="#md912e0a2dc" x="109.085514" y="19.296" style="fill: #ffff00; stroke: #000000"/>
    </g>
   </g>
   <g id="line2d_3">
    <g clip-path="url(#p1b7f61889d)">
     <use xlink:href="#md912e0a2dc" x="129.038739" y="19.296" style="fill: #ffff00; stroke: #000000"/>
    </g>
   </g>
   <g id="line2d_4">
    <g clip-path="url(#p1b7f61889d)">
     <use xlink:href="#md912e0a2dc" x="148.991964" y="19.296" style="fill: #ffff00; stroke: #000000"/>
    </g>
   </g>
   <g id="line2d_5">
    <g clip-path="url(#p1b7f61889d)">
     <use xlink:href="#md912e0a2dc" x="79.155676" y="36.576" style="fill: #ffff00; stroke: #000000"/>
    </g>
   </g>
   <g id="line2d_6">
    <defs>
     <path id="m195621cc38" d="M 0 7 
C 1.856422 7 3.637059 6.262436 4.949747 4.949747 
C 6.262436 3.637059 7 1.856422 7 0 
C 7 -1.856422 6.262436 -3.637059 4.949747 -4.949747 
C 3.637059 -6.262436 1.856422 -7 0 -7 
C -1.856422 -7 -3.637059 -6.262436 -4.949747 -4.949747 
C -6.262436 -3.637059 -7 -1.856422 -7 0 
C -7 1.856422 -6.262436 3.637059 -4.949747 4.949747 
C -3.637059 6.262436 -1.856422 7 0 7 
z
" style="stroke: #000000"/>
    </defs>
    <g clip-path="url(#p1b7f61889d)">
     <use xlink:href="#m195621cc38" x="158.968577" y="36.576" style="fill: #ffffff; stroke: #000000"/>
    </g>
   </g>
   <g id="line2d_7">
    <defs>
     <path id="m7902791a51" d="M 0 7 
C 1.856422 7 3.637059 6.262436 4.949747 4.949747 
C 6.262436 3.637059 7 1.856422 7 0 
C 7 -1.856422 6.262436 -3.637059 4.949747 -4.949747 
C 3.637059 -6.262436 1.856422 -7 0 -7 
C -1.856422 -7 -3.637059 -6.262436 -4.949747 -4.949747 
C -6.262436 -3.637059 -7 -1.856422 -7 0 
C -7 1.856422 -6.262436 3.637059 -4.949747 4.949747 
C -3.637059 6.262436 -1.856422 7 0 7 
z
" style="stroke: #808080"/>
    </defs>
    <g clip-path="url(#p1b7f61889d)">
     <use xlink:href="#m7902791a51" x="178.921802" y="36.576" style="stroke: #808080"/>
    </g>
   </g>
   <g id="line2d_8">
    <g clip-path="url(#p1b7f61889d)">
     <use xlink:href="#m195621cc38" x="148.991964" y="53.856" style="fill: #ffffff; stroke: #000000"/>
    </g>
   </g>
   <g id="line2d_9">
    <g clip-path="url(#p1b7f61889d)">
     <use xlink:href="#m7902791a51" x="208.85164" y="53.856" style="stroke: #808080"/>
    </g>
   </g>
   <g id="line2d_10">
    <defs>
     <path id="ma4ceb56f3e" d="M 0 7 
C 1.856422 7 3.637059 6.262436 4.949747 4.949747 
C 6.262436 3.637059 7 1.856422 7 0 
C 7 -1.856422 6.262436 -3.637059 4.949747 -4.949747 
C 3.637059 -6.262436 1.856422 -7 0 -7 
C -1.856422 -7 -3.637059 -6.262436 -4.949747 -4.949747 
C -6.262436 -3.637059 -7 -1.856422 -7 0 
C -7 1.856422 -6.262436 3.637059 -4.949747 4.949747 
C -3.637059 6.262436 -1.856422 7 0 7 
z
" style="stroke: #000000"/>
    </defs>
    <g clip-path="url(#p1b7f61889d)">
     <use xlink:href="#ma4ceb56f3e" x="248.758091" y="53.856" style="fill: #32cd32; stroke: #000000"/>
    </g>
   </g>
   <g id="line2d_11">
    <g clip-path="url(#p1b7f61889d)">
     <use xlink:href="#m7902791a51" x="119.062127" y="71.136" style="stroke: #808080"/>
    </g>
   </g>
   <g id="line2d_12">
    <g clip-path="url(#p1b7f61889d)">
     <use xlink:href="#m195621cc38" x="139.015352" y="71.136" style="fill: #ffffff; stroke: #000000"/>
    </g>
   </g>
   <g id="line2d_13">
    <g clip-path="url(#p1b7f61889d)">
     <use xlink:href="#m195621cc38" x="178.921802" y="71.136" style="fill: #ffffff; stroke: #000000"/>
    </g>
   </g>
   <g id="line2d_14">
    <g clip-path="url(#p1b7f61889d)">
     <use xlink:href="#m195621cc38" x="129.038739" y="88.416" style="fill: #ffffff; stroke: #000000"/>
    </g>
   </g>
   <g id="line2d_15">
    <g clip-path="url(#p1b7f61889d)">
     <use xlink:href="#m7902791a51" x="148.991964" y="88.416" style="stroke: #808080"/>
    </g>
   </g>
   <g id="line2d_16">
    <g clip-path="url(#p1b7f61889d)">
     <use xlink:href="#m195621cc38" x="188.898415" y="88.416" style="fill: #ffffff; stroke: #000000"/>
    </g>
   </g>
   <g id="line2d_17">
    <g clip-path="url(#p1b7f61889d)">
     <use xlink:href="#m7902791a51" x="208.85164" y="88.416" style="stroke: #808080"/>
    </g>
   </g>
   <g id="line2d_18">
    <g clip-path="url(#p1b7f61889d)">
     <use xlink:href="#m195621cc38" x="79.155676" y="105.696" style="fill: #ffffff; stroke: #000000"/>
    </g>
   </g>
   <g id="line2d_19">
    <g clip-path="url(#p1b7f61889d)">
     <use xlink:href="#m195621cc38" x="99.108901" y="105.696" style="fill: #ffffff; stroke: #000000"/>
    </g>
   </g>
   <g id="line2d_20">
    <g clip-path="url(#p1b7f61889d)">
     <use xlink:href="#m195621cc38" x="119.062127" y="105.696" style="fill: #ffffff; stroke: #000000"/>
    </g>
   </g>
   <g id="line2d_21">
    <g clip-path="url(#p1b7f61889d)">
     <use xlink:href="#m7902791a51" x="139.015352" y="105.696" style="stroke: #808080"/>
    </g>
   </g>
   <g id="line2d_22">
    <g clip-path="url(#p1b7f61889d)">
     <use xlink:href="#m7902791a51" x="178.921802" y="105.696" style="stroke: #808080"/>
    </g>
   </g>
   <g id="line2d_23">
    <g clip-path="url(#p1b7f61889d)">
     <use xlink:href="#m7902791a51" x="218.828253" y="105.696" style="stroke: #808080"/>
    </g>
   </g>
   <g id="line2d_24">
    <g clip-path="url(#p1b7f61889d)">
     <use xlink:href="#m7902791a51" x="69.179063" y="122.976" style="stroke: #808080"/>
    </g>
   </g>
   <g id="line2d_25">
    <g clip-path="url(#p1b7f61889d)">
     <use xlink:href="#m7902791a51" x="89.132289" y="122.976" style="stroke: #808080"/>
    </g>
   </g>
   <g id="line2d_26">
    <g clip-path="url(#p1b7f61889d)">
     <use xlink:href="#m7902791a51" x="109.085514" y="122.976" style="stroke: #808080"/>
    </g>
   </g>
   <g id="line2d_27">
    <g clip-path="url(#p1b7f61889d)">
     <use xlink:href="#m7902791a51" x="129.038739" y="122.976" style="stroke: #808080"/>
    </g>
   </g>
   <g id="line2d_28">
    <g clip-path="url(#p1b7f61889d)">
     <use xlink:href="#m195621cc38" x="148.991964" y="122.976" style="fill: #ffffff; stroke: #000000"/>
    </g>
   </g>
   <g id="line2d_29">
    <g clip-path="url(#p1b7f61889d)">
     <use xlink:href="#m195621cc38" x="168.94519" y="122.976" style="fill: #ffffff; stroke: #000000"/>
    </g>
   </g>
   <g id="line2d_30">
    <g clip-path="url(#p1b7f61889d)">
     <use xlink:href="#m7902791a51" x="188.898415" y="122.976" style="stroke: #808080"/>
    </g>
   </g>
   <g id="line2d_31">
    <g clip-path="url(#p1b7f61889d)">
     <use xlink:href="#m7902791a51" x="248.758091" y="122.976" style="stroke: #808080"/>
    </g>
   </g>
   <g id="line2d_32">
    <g clip-path="url(#p1b7f61889d)">
     <use xlink:href="#m7902791a51" x="158.968577" y="140.256" style="stroke: #808080"/>
    </g>
   </g>
   <g id="line2d_33">
    <g clip-path="url(#p1b7f61889d)">
     <use xlink:href="#m7902791a51" x="178.921802" y="140.256" style="stroke: #808080"/>
    </g>
   </g>
   <g id="line2d_34">
    <g clip-path="url(#p1b7f61889d)">
     <use xlink:href="#m195621cc38" x="218.828253" y="140.256" style="fill: #ffffff; stroke: #000000"/>
    </g>
   </g>
   <g id="line2d_35">
    <g clip-path="url(#p1b7f61889d)">
     <use xlink:href="#m7902791a51" x="278.687929" y="140.256" style="stroke: #808080"/>
    </g>
   </g>
   <g id="line2d_36">
    <g clip-path="url(#p1b7f61889d)">
     <use xlink:href="#m195621cc38" x="148.991964" y="157.536" style="fill: #ffffff; stroke: #000000"/>
    </g>
   </g>
   <g id="line2d_37">
    <g clip-path="url(#p1b7f61889d)">
     <use xlink:href="#m195621cc38" x="168.94519" y="157.536" style="fill: #ffffff; stroke: #000000"/>
    </g>
   </g>
   <g id="line2d_38">
    <g clip-path="url(#p1b7f61889d)">
     <use xlink:href="#m195621cc38" x="188.898415" y="157.536" style="fill: #ffffff; stroke: #000000"/>
    </g>
   </g>
   <g id="line2d_39">
    <g clip-path="url(#p1b7f61889d)">
     <use xlink:href="#m195621cc38" x="248.758091" y="157.536" style="fill: #ffffff; stroke: #000000"/>
    </g>
   </g>
   <g id="line2d_40">
    <g clip-path="url(#p1b7f61889d)">
     <use xlink:href="#m7902791a51" x="79.155676" y="174.816" style="stroke: #808080"/>
    </g>
   </g>
   <g id="line2d_41">
    <g clip-path="url(#p1b7f61889d)">
     <use xlink:href="#m195621cc38" x="119.062127" y="174.816" style="fill: #ffffff; stroke: #000000"/>
    </g>
   </g>
   <g id="line2d_42">
    <g clip-path="url(#p1b7f61889d)">
     <use xlink:href="#m7902791a51" x="178.921802" y="174.816" style="stroke: #808080"/>
    </g>
   </g>
   <g id="line2d_43">
    <g clip-path="url(#p1b7f61889d)">
     <use xlink:href="#m7902791a51" x="69.179063" y="192.096" style="stroke: #808080"/>
    </g>
   </g>
   <g id="line2d_44">
    <g clip-path="url(#p1b7f61889d)">
     <use xlink:href="#m195621cc38" x="89.132289" y="192.096" style="fill: #ffffff; stroke: #000000"/>
    </g>
   </g>
   <g id="line2d_45">
    <g clip-path="url(#p1b7f61889d)">
     <use xlink:href="#m195621cc38" x="79.155676" y="209.376" style="fill: #ffffff; stroke: #000000"/>
    </g>
   </g>
   <g id="line2d_46">
    <defs>
     <path id="m1c8f41102d" d="M 0 7 
C 1.856422 7 3.637059 6.262436 4.949747 4.949747 
C 6.262436 3.637059 7 1.856422 7 0 
C 7 -1.856422 6.262436 -3.637059 4.949747 -4.949747 
C 3.637059 -6.262436 1.856422 -7 0 -7 
C -1.856422 -7 -3.637059 -6.262436 -4.949747 -4.949747 
C -6.262436 -3.637059 -7 -1.856422 -7 0 
C -7 1.856422 -6.262436 3.637059 -4.949747 4.949747 
C -3.637059 6.262436 -1.856422 7 0 7 
z
" style="stroke: #000000"/>
    </defs>
    <g clip-path="url(#p1b7f61889d)">
     <use xlink:href="#m1c8f41102d" x="188.898415" y="261.216" style="fill: #00bfff; stroke: #000000"/>
    </g>
   </g>
  </g>
 </g>
 <defs>
  <clipPath id="p1b7f61889d">
   <rect x="7.2" y="7.2" width="303.537154" height="266.112"/>
  </clipPath>
 </defs>
</svg>
