<?xml version="1.0" encoding="utf-8" standalone="no"?>
<!DOCTYPE svg PUBLIC "-//W3C//DTD SVG 1.1//EN"
  "http://www.w3.org/Graphics/SVG/1.1/DTD/svg11.dtd">
<svg xmlns:xlink="http://www.w3.org/1999/xlink" width="189.318353pt" height="280.512pt" viewBox="0 0 189.318353 280.512" xmlns="http://www.w3.org/2000/svg" version="1.1">
 <metadata>
  <rdf:RDF xmlns:dc="http://purl.org/dc/elements/1.1/" xmlns:cc="http://creativecommons.org/ns#" xmlns:rdf="http://www.w3.org/1999/02/22-rdf-syntax-ns#">
   <cc:Work>
    <dc:type rdf:resource="http://purl.org/dc/dcmitype/StillImage"/>
    <dc:date>2025-01-27T20:26:29.278966</dc:date>
    <dc:format>image/svg+xml</dc:format>
    <dc:creator>
     <cc:Agent>
      <dc:title>Matplotlib v3.8.0, https://matplotlib.org/</dc:title>
     </cc:Agent>
    </dc:creator>
   </cc:Work>
  </rdf:RDF>
 </metadata>
 <defs>
  <style type="text/css">*{stroke-linejoin: round; stroke-linecap: butt}</style>
 </defs>
 <g id="figure_1">
  <g id="patch_1">
   <path d="M 0 280.512 
L 189.318353 280.512 
L 189.318353 0 
L 0 0 
z
" style="fill: #fffff0"/>
  </g>
  <g id="axes_1">
   <g id="patch_2">
    <path d="M 73.897036 44.359784 
L 94.659176 56.346811 
L 115.421316 44.359784 
L 115.421316 20.38573 
L 94.659176 8.398703 
L 73.897036 20.38573 
z
" clip-path="url(#p87e4801ea1)" style="fill: #d18a45"/>
   </g>
   <g id="patch_3">
    <path d="M 53.134897 80.320865 
L 73.897036 92.307892 
L 94.659176 80.320865 
L 94.659176 56.346811 
L 73.897036 44.359784 
L 53.134897 56.346811 
z
" clip-path="url(#p87e4801ea1)" style="fill: #e8ad70"/>
   </g>
   <g id="patch_4">
    <path d="M 94.659176 80.320865 
L 115.421316 92.307892 
L 136.183456 80.320865 
L 136.183456 56.346811 
L 115.421316 44.359784 
L 94.659176 56.346811 
z
" clip-path="url(#p87e4801ea1)" style="fill: #ffcf9e"/>
   </g>
   <g id="patch_5">
    <path d="M 32.372757 116.281946 
L 53.134897 128.268973 
L 73.897036 116.281946 
L 73.897036 92.307892 
L 53.134897 80.320865 
L 32.372757 92.307892 
z
" clip-path="url(#p87e4801ea1)" style="fill: #ffcf9e"/>
   </g>
   <g id="patch_6">
    <path d="M 73.897036 116.281946 
L 94.659176 128.268973 
L 115.421316 116.281946 
L 115.421316 92.307892 
L 94.659176 80.320865 
L 73.897036 92.307892 
z
" clip-path="url(#p87e4801ea1)" style="fill: #d18a45"/>
   </g>
   <g id="patch_7">
    <path d="M 115.421316 116.281946 
L 136.183456 128.268973 
L 156.945596 116.281946 
L 156.945596 92.307892 
L 136.183456 80.320865 
L 115.421316 92.307892 
z
" clip-path="url(#p87e4801ea1)" style="fill: #e8ad70"/>
   </g>
   <g id="patch_8">
    <path d="M 11.610617 152.243027 
L 32.372757 164.230054 
L 53.134897 152.243027 
L 53.134897 128.268973 
L 32.372757 116.281946 
L 11.610617 128.268973 
z
" clip-path="url(#p87e4801ea1)" style="fill: #d18a45"/>
   </g>
   <g id="patch_9">
    <path d="M 53.134897 152.243027 
L 73.897036 164.230054 
L 94.659176 152.243027 
L 94.659176 128.268973 
L 73.897036 116.281946 
L 53.134897 128.268973 
z
" clip-path="url(#p87e4801ea1)" style="fill: #e8ad70"/>
   </g>
   <g id="patch_10">
    <path d="M 94.659176 152.243027 
L 115.421316 164.230054 
L 136.183456 152.243027 
L 136.183456 128.268973 
L 115.421316 116.281946 
L 94.659176 128.268973 
z
" clip-path="url(#p87e4801ea1)" style="fill: #ffcf9e"/>
   </g>
   <g id="patch_11">
    <path d="M 136.183456 152.243027 
L 156.945596 164.230054 
L 177.707736 152.243027 
L 177.707736 128.268973 
L 156.945596 116.281946 
L 136.183456 128.268973 
z
" clip-path="url(#p87e4801ea1)" style="fill: #d18a45"/>
   </g>
   <g id="patch_12">
    <path d="M 32.372757 188.204108 
L 53.134897 200.191135 
L 73.897036 188.204108 
L 73.897036 164.230054 
L 53.134897 152.243027 
L 32.372757 164.230054 
z
" clip-path="url(#p87e4801ea1)" style="fill: #ffcf9e"/>
   </g>
   <g id="patch_13">
    <path d="M 73.897036 188.204108 
L 94.659176 200.191135 
L 115.421316 188.204108 
L 115.421316 164.230054 
L 94.659176 152.243027 
L 73.897036 164.230054 
z
" clip-path="url(#p87e4801ea1)" style="fill: #d18a45"/>
   </g>
   <g id="patch_14">
    <path d="M 115.421316 188.204108 
L 136.183456 200.191135 
L 156.945596 188.204108 
L 156.945596 164.230054 
L 136.183456 152.243027 
L 115.421316 164.230054 
z
" clip-path="url(#p87e4801ea1)" style="fill: #e8ad70"/>
   </g>
   <g id="patch_15">
    <path d="M 53.134897 224.165189 
L 73.897036 236.152216 
L 94.659176 224.165189 
L 94.659176 200.191135 
L 73.897036 188.204108 
L 53.134897 200.191135 
z
" clip-path="url(#p87e4801ea1)" style="fill: #e8ad70"/>
   </g>
   <g id="patch_16">
    <path d="M 94.659176 224.165189 
L 115.421316 236.152216 
L 136.183456 224.165189 
L 136.183456 200.191135 
L 115.421316 188.204108 
L 94.659176 200.191135 
z
" clip-path="url(#p87e4801ea1)" style="fill: #ffcf9e"/>
   </g>
   <g id="patch_17">
    <path d="M 73.897036 260.12627 
L 94.659176 272.113297 
L 115.421316 260.12627 
L 115.421316 236.152216 
L 94.659176 224.165189 
L 73.897036 236.152216 
z
" clip-path="url(#p87e4801ea1)" style="fill: #d18a45"/>
   </g>
   <g id="line2d_1">
    <defs>
     <path id="m82ce36be72" d="M 0 13 
C 3.44764 13 6.754538 11.630238 9.192388 9.192388 
C 11.630238 6.754538 13 3.44764 13 0 
C 13 -3.44764 11.630238 -6.754538 9.192388 -9.192388 
C 6.754538 -11.630238 3.44764 -13 0 -13 
C -3.44764 -13 -6.754538 -11.630238 -9.192388 -9.192388 
C -11.630238 -6.754538 -13 -3.44764 -13 0 
C -13 3.44764 -11.630238 6.754538 -9.192388 9.192388 
C -6.754538 11.630238 -3.44764 13 0 13 
z
" style="stroke: #808080"/>
    </defs>
    <g clip-path="url(#p87e4801ea1)">
     <use xlink:href="#m82ce36be72" x="94.659176" y="32.372757" style="stroke: #808080"/>
    </g>
   </g>
   <g id="line2d_2">
    <g clip-path="url(#p87e4801ea1)">
     <use xlink:href="#m82ce36be72" x="73.897036" y="68.333838" style="stroke: #808080"/>
    </g>
   </g>
   <g id="line2d_3">
    <g clip-path="url(#p87e4801ea1)">
     <use xlink:href="#m82ce36be72" x="115.421316" y="68.333838" style="stroke: #808080"/>
    </g>
   </g>
   <g id="line2d_4">
    <g clip-path="url(#p87e4801ea1)">
     <use xlink:href="#m82ce36be72" x="53.134897" y="104.294919" style="stroke: #808080"/>
    </g>
   </g>
   <g id="line2d_5">
    <g clip-path="url(#p87e4801ea1)">
     <use xlink:href="#m82ce36be72" x="94.659176" y="104.294919" style="stroke: #808080"/>
    </g>
   </g>
   <g id="line2d_6">
    <g clip-path="url(#p87e4801ea1)">
     <use xlink:href="#m82ce36be72" x="136.183456" y="104.294919" style="stroke: #808080"/>
    </g>
   </g>
   <g id="line2d_7">
    <g clip-path="url(#p87e4801ea1)">
     <use xlink:href="#m82ce36be72" x="32.372757" y="140.256" style="stroke: #808080"/>
    </g>
   </g>
   <g id="line2d_8">
    <g clip-path="url(#p87e4801ea1)">
     <use xlink:href="#m82ce36be72" x="73.897036" y="140.256" style="stroke: #808080"/>
    </g>
   </g>
   <g id="line2d_9">
    <defs>
     <path id="ma9524df029" d="M 0 13 
C 3.44764 13 6.754538 11.630238 9.192388 9.192388 
C 11.630238 6.754538 13 3.44764 13 0 
C 13 -3.44764 11.630238 -6.754538 9.192388 -9.192388 
C 6.754538 -11.630238 3.44764 -13 0 -13 
C -3.44764 -13 -6.754538 -11.630238 -9.192388 -9.192388 
C -11.630238 -6.754538 -13 -3.44764 -13 0 
C -13 3.44764 -11.630238 6.754538 -9.192388 9.192388 
C -6.754538 11.630238 -3.44764 13 0 13 
z
" style="stroke: #000000"/>
    </defs>
    <g clip-path="url(#p87e4801ea1)">
     <use xlink:href="#ma9524df029" x="115.421316" y="140.256" style="fill: #c0c0c0; stroke: #000000"/>
    </g>
   </g>
   <g id="line2d_10">
    <g clip-path="url(#p87e4801ea1)">
     <use xlink:href="#m82ce36be72" x="156.945596" y="140.256" style="stroke: #808080"/>
    </g>
   </g>
   <g id="line2d_11">
    <g clip-path="url(#p87e4801ea1)">
     <use xlink:href="#m82ce36be72" x="53.134897" y="176.217081" style="stroke: #808080"/>
    </g>
   </g>
   <g id="line2d_12">
    <g clip-path="url(#p87e4801ea1)">
     <use xlink:href="#m82ce36be72" x="94.659176" y="176.217081" style="stroke: #808080"/>
    </g>
   </g>
   <g id="line2d_13">
    <g clip-path="url(#p87e4801ea1)">
     <use xlink:href="#m82ce36be72" x="136.183456" y="176.217081" style="stroke: #808080"/>
    </g>
   </g>
   <g id="line2d_14">
    <g clip-path="url(#p87e4801ea1)">
     <use xlink:href="#m82ce36be72" x="73.897036" y="212.178162" style="stroke: #808080"/>
    </g>
   </g>
   <g id="line2d_15">
    <g clip-path="url(#p87e4801ea1)">
     <use xlink:href="#ma9524df029" x="115.421316" y="212.178162" style="fill: #c0c0c0; stroke: #000000"/>
    </g>
   </g>
   <g id="line2d_16">
    <g clip-path="url(#p87e4801ea1)">
     <use xlink:href="#m82ce36be72" x="94.659176" y="248.139243" style="stroke: #808080"/>
    </g>
   </g>
   <g id="text_1">
    <!-- 3 -->
    <g style="fill: #ffffff" transform="translate(88.932926 37.339632) scale(0.18 -0.18)">
     <defs>
      <path id="DejaVuSans-33" d="M 2597 2516 
Q 3050 2419 3304 2112 
Q 3559 1806 3559 1356 
Q 3559 666 3084 287 
Q 2609 -91 1734 -91 
Q 1441 -91 1130 -33 
Q 819 25 488 141 
L 488 750 
Q 750 597 1062 519 
Q 1375 441 1716 441 
Q 2309 441 2620 675 
Q 2931 909 2931 1356 
Q 2931 1769 2642 2001 
Q 2353 2234 1838 2234 
L 1294 2234 
L 1294 2753 
L 1863 2753 
Q 2328 2753 2575 2939 
Q 2822 3125 2822 3475 
Q 2822 3834 2567 4026 
Q 2313 4219 1838 4219 
Q 1578 4219 1281 4162 
Q 984 4106 628 3988 
L 628 4550 
Q 988 4650 1302 4700 
Q 1616 4750 1894 4750 
Q 2613 4750 3031 4423 
Q 3450 4097 3450 3541 
Q 3450 3153 3228 2886 
Q 3006 2619 2597 2516 
z
" transform="scale(0.015625)"/>
     </defs>
     <use xlink:href="#DejaVuSans-33"/>
    </g>
   </g>
   <g id="text_2">
    <!-- 3 -->
    <g style="fill: #ffffff" transform="translate(68.170786 73.300713) scale(0.18 -0.18)">
     <use xlink:href="#DejaVuSans-33"/>
    </g>
   </g>
   <g id="text_3">
    <!-- 6 -->
    <g style="fill: #ffffff" transform="translate(109.695066 73.300713) scale(0.18 -0.18)">
     <defs>
      <path id="DejaVuSans-36" d="M 2113 2584 
Q 1688 2584 1439 2293 
Q 1191 2003 1191 1497 
Q 1191 994 1439 701 
Q 1688 409 2113 409 
Q 2538 409 2786 701 
Q 3034 994 3034 1497 
Q 3034 2003 2786 2293 
Q 2538 2584 2113 2584 
z
M 3366 4563 
L 3366 3988 
Q 3128 4100 2886 4159 
Q 2644 4219 2406 4219 
Q 1781 4219 1451 3797 
Q 1122 3375 1075 2522 
Q 1259 2794 1537 2939 
Q 1816 3084 2150 3084 
Q 2853 3084 3261 2657 
Q 3669 2231 3669 1497 
Q 3669 778 3244 343 
Q 2819 -91 2113 -91 
Q 1303 -91 875 529 
Q 447 1150 447 2328 
Q 447 3434 972 4092 
Q 1497 4750 2381 4750 
Q 2619 4750 2861 4703 
Q 3103 4656 3366 4563 
z
" transform="scale(0.015625)"/>
     </defs>
     <use xlink:href="#DejaVuSans-36"/>
    </g>
   </g>
   <g id="text_4">
    <!-- 5 -->
    <g style="fill: #ffffff" transform="translate(47.408647 109.261794) scale(0.18 -0.18)">
     <defs>
      <path id="DejaVuSans-35" d="M 691 4666 
L 3169 4666 
L 3169 4134 
L 1269 4134 
L 1269 2991 
Q 1406 3038 1543 3061 
Q 1681 3084 1819 3084 
Q 2600 3084 3056 2656 
Q 3513 2228 3513 1497 
Q 3513 744 3044 326 
Q 2575 -91 1722 -91 
Q 1428 -91 1123 -41 
Q 819 9 494 109 
L 494 744 
Q 775 591 1075 516 
Q 1375 441 1709 441 
Q 2250 441 2565 725 
Q 2881 1009 2881 1497 
Q 2881 1984 2565 2268 
Q 2250 2553 1709 2553 
Q 1456 2553 1204 2497 
Q 953 2441 691 2322 
L 691 4666 
z
" transform="scale(0.015625)"/>
     </defs>
     <use xlink:href="#DejaVuSans-35"/>
    </g>
   </g>
   <g id="text_5">
    <!-- 2 -->
    <g style="fill: #ffffff" transform="translate(88.932926 109.261794) scale(0.18 -0.18)">
     <defs>
      <path id="DejaVuSans-32" d="M 1228 531 
L 3431 531 
L 3431 0 
L 469 0 
L 469 531 
Q 828 903 1448 1529 
Q 2069 2156 2228 2338 
Q 2531 2678 2651 2914 
Q 2772 3150 2772 3378 
Q 2772 3750 2511 3984 
Q 2250 4219 1831 4219 
Q 1534 4219 1204 4116 
Q 875 4013 500 3803 
L 500 4441 
Q 881 4594 1212 4672 
Q 1544 4750 1819 4750 
Q 2544 4750 2975 4387 
Q 3406 4025 3406 3419 
Q 3406 3131 3298 2873 
Q 3191 2616 2906 2266 
Q 2828 2175 2409 1742 
Q 1991 1309 1228 531 
z
" transform="scale(0.015625)"/>
     </defs>
     <use xlink:href="#DejaVuSans-32"/>
    </g>
   </g>
   <g id="text_6">
    <!-- 5 -->
    <g style="fill: #ffffff" transform="translate(130.457206 109.261794) scale(0.18 -0.18)">
     <use xlink:href="#DejaVuSans-35"/>
    </g>
   </g>
   <g id="text_7">
    <!-- 4 -->
    <g style="fill: #ffffff" transform="translate(26.646507 145.222875) scale(0.18 -0.18)">
     <defs>
      <path id="DejaVuSans-34" d="M 2419 4116 
L 825 1625 
L 2419 1625 
L 2419 4116 
z
M 2253 4666 
L 3047 4666 
L 3047 1625 
L 3713 1625 
L 3713 1100 
L 3047 1100 
L 3047 0 
L 2419 0 
L 2419 1100 
L 313 1100 
L 313 1709 
L 2253 4666 
z
" transform="scale(0.015625)"/>
     </defs>
     <use xlink:href="#DejaVuSans-34"/>
    </g>
   </g>
   <g id="text_8">
    <!-- 4 -->
    <g style="fill: #ffffff" transform="translate(68.170786 145.222875) scale(0.18 -0.18)">
     <use xlink:href="#DejaVuSans-34"/>
    </g>
   </g>
   <g id="text_9">
    <!-- 5 -->
    <g transform="translate(109.695066 145.222875) scale(0.18 -0.18)">
     <use xlink:href="#DejaVuSans-35"/>
    </g>
   </g>
   <g id="text_10">
    <!-- 1 -->
    <g style="fill: #ffffff" transform="translate(151.219346 145.222875) scale(0.18 -0.18)">
     <defs>
      <path id="DejaVuSans-31" d="M 794 531 
L 1825 531 
L 1825 4091 
L 703 3866 
L 703 4441 
L 1819 4666 
L 2450 4666 
L 2450 531 
L 3481 531 
L 3481 0 
L 794 0 
L 794 531 
z
" transform="scale(0.015625)"/>
     </defs>
     <use xlink:href="#DejaVuSans-31"/>
    </g>
   </g>
   <g id="text_11">
    <!-- 3 -->
    <g style="fill: #ffffff" transform="translate(47.408647 181.183956) scale(0.18 -0.18)">
     <use xlink:href="#DejaVuSans-33"/>
    </g>
   </g>
   <g id="text_12">
    <!-- 4 -->
    <g style="fill: #ffffff" transform="translate(88.932926 181.183956) scale(0.18 -0.18)">
     <use xlink:href="#DejaVuSans-34"/>
    </g>
   </g>
   <g id="text_13">
    <!-- 6 -->
    <g style="fill: #ffffff" transform="translate(130.457206 181.183956) scale(0.18 -0.18)">
     <use xlink:href="#DejaVuSans-36"/>
    </g>
   </g>
   <g id="text_14">
    <!-- 2 -->
    <g style="fill: #ffffff" transform="translate(68.170786 217.145037) scale(0.18 -0.18)">
     <use xlink:href="#DejaVuSans-32"/>
    </g>
   </g>
   <g id="text_15">
    <!-- 7 -->
    <g transform="translate(109.695066 217.145037) scale(0.18 -0.18)">
     <defs>
      <path id="DejaVuSans-37" d="M 525 4666 
L 3525 4666 
L 3525 4397 
L 1831 0 
L 1172 0 
L 2766 4134 
L 525 4134 
L 525 4666 
z
" transform="scale(0.015625)"/>
     </defs>
     <use xlink:href="#DejaVuSans-37"/>
    </g>
   </g>
   <g id="text_16">
    <!-- 4 -->
    <g style="fill: #ffffff" transform="translate(88.932926 253.106118) scale(0.18 -0.18)">
     <use xlink:href="#DejaVuSans-34"/>
    </g>
   </g>
  </g>
 </g>
 <defs>
  <clipPath id="p87e4801ea1">
   <rect x="7.2" y="7.2" width="174.918353" height="266.112"/>
  </clipPath>
 </defs>
</svg>
