<?xml version="1.0" encoding="utf-8" standalone="no"?>
<!DOCTYPE svg PUBLIC "-//W3C//DTD SVG 1.1//EN"
  "http://www.w3.org/Graphics/SVG/1.1/DTD/svg11.dtd">
<svg xmlns:xlink="http://www.w3.org/1999/xlink" width="216pt" height="216pt" viewBox="0 0 216 216" xmlns="http://www.w3.org/2000/svg" version="1.1">
 <metadata>
  <rdf:RDF xmlns:dc="http://purl.org/dc/elements/1.1/" xmlns:cc="http://creativecommons.org/ns#" xmlns:rdf="http://www.w3.org/1999/02/22-rdf-syntax-ns#">
   <cc:Work>
    <dc:type rdf:resource="http://purl.org/dc/dcmitype/StillImage"/>
    <dc:date>2025-03-01T13:16:05.157782</dc:date>
    <dc:format>image/svg+xml</dc:format>
    <dc:creator>
     <cc:Agent>
      <dc:title>Matplotlib v3.8.0, https://matplotlib.org/</dc:title>
     </cc:Agent>
    </dc:creator>
   </cc:Work>
  </rdf:RDF>
 </metadata>
 <defs>
  <style type="text/css">*{stroke-linejoin: round; stroke-linecap: butt}</style>
 </defs>
 <g id="figure_1">
  <g id="patch_1">
   <path d="M 0 216 
L 216 216 
L 216 0 
L 0 0 
z
" style="fill: #fffff0"/>
  </g>
  <g id="axes_1">
   <g id="line2d_1">
    <path d="M 18 198 
L 18 18 
" clip-path="url(#p6e912bd40d)" style="fill: none; stroke: #000000; stroke-width: 0.5; stroke-linecap: square"/>
   </g>
   <g id="line2d_2">
    <path d="M 54 198 
L 54 18 
" clip-path="url(#p6e912bd40d)" style="fill: none; stroke: #000000; stroke-width: 0.5; stroke-linecap: square"/>
   </g>
   <g id="line2d_3">
    <path d="M 90 198 
L 90 18 
" clip-path="url(#p6e912bd40d)" style="fill: none; stroke: #000000; stroke-width: 0.5; stroke-linecap: square"/>
   </g>
   <g id="line2d_4">
    <path d="M 126 198 
L 126 18 
" clip-path="url(#p6e912bd40d)" style="fill: none; stroke: #000000; stroke-width: 0.5; stroke-linecap: square"/>
   </g>
   <g id="line2d_5">
    <path d="M 162 198 
L 162 18 
" clip-path="url(#p6e912bd40d)" style="fill: none; stroke: #000000; stroke-width: 0.5; stroke-linecap: square"/>
   </g>
   <g id="line2d_6">
    <path d="M 198 198 
L 198 18 
" clip-path="url(#p6e912bd40d)" style="fill: none; stroke: #000000; stroke-width: 0.5; stroke-linecap: square"/>
   </g>
   <g id="line2d_7">
    <path d="M 18 198 
L 198 198 
" clip-path="url(#p6e912bd40d)" style="fill: none; stroke: #000000; stroke-width: 0.5; stroke-linecap: square"/>
   </g>
   <g id="line2d_8">
    <path d="M 18 162 
L 198 162 
" clip-path="url(#p6e912bd40d)" style="fill: none; stroke: #000000; stroke-width: 0.5; stroke-linecap: square"/>
   </g>
   <g id="line2d_9">
    <path d="M 18 126 
L 198 126 
" clip-path="url(#p6e912bd40d)" style="fill: none; stroke: #000000; stroke-width: 0.5; stroke-linecap: square"/>
   </g>
   <g id="line2d_10">
    <path d="M 18 90 
L 198 90 
" clip-path="url(#p6e912bd40d)" style="fill: none; stroke: #000000; stroke-width: 0.5; stroke-linecap: square"/>
   </g>
   <g id="line2d_11">
    <path d="M 18 54 
L 198 54 
" clip-path="url(#p6e912bd40d)" style="fill: none; stroke: #000000; stroke-width: 0.5; stroke-linecap: square"/>
   </g>
   <g id="line2d_12">
    <path d="M 18 18 
L 198 18 
" clip-path="url(#p6e912bd40d)" style="fill: none; stroke: #000000; stroke-width: 0.5; stroke-linecap: square"/>
   </g>
   <g id="line2d_13">
    <defs>
     <path id="m8d4031f4ce" d="M 0 10.5 
C 2.784633 10.5 5.455589 9.393654 7.424621 7.424621 
C 9.393654 5.455589 10.5 2.784633 10.5 0 
C 10.5 -2.784633 9.393654 -5.455589 7.424621 -7.424621 
C 5.455589 -9.393654 2.784633 -10.5 0 -10.5 
C -2.784633 -10.5 -5.455589 -9.393654 -7.424621 -7.424621 
C -9.393654 -5.455589 -10.5 -2.784633 -10.5 0 
C -10.5 2.784633 -9.393654 5.455589 -7.424621 7.424621 
C -5.455589 9.393654 -2.784633 10.5 0 10.5 
z
" style="stroke: #000000"/>
    </defs>
    <g clip-path="url(#p6e912bd40d)">
     <use xlink:href="#m8d4031f4ce" x="36" y="36" style="fill: #32cd32; stroke: #000000"/>
    </g>
   </g>
   <g id="line2d_14">
    <defs>
     <path id="m08f59d5041" d="M 0 10.5 
C 2.784633 10.5 5.455589 9.393654 7.424621 7.424621 
C 9.393654 5.455589 10.5 2.784633 10.5 0 
C 10.5 -2.784633 9.393654 -5.455589 7.424621 -7.424621 
C 5.455589 -9.393654 2.784633 -10.5 0 -10.5 
C -2.784633 -10.5 -5.455589 -9.393654 -7.424621 -7.424621 
C -9.393654 -5.455589 -10.5 -2.784633 -10.5 0 
C -10.5 2.784633 -9.393654 5.455589 -7.424621 7.424621 
C -5.455589 9.393654 -2.784633 10.5 0 10.5 
z
" style="stroke: #000000"/>
    </defs>
    <g clip-path="url(#p6e912bd40d)">
     <use xlink:href="#m08f59d5041" x="36" y="30.6" style="fill: #ffa500; stroke: #000000"/>
    </g>
   </g>
   <g id="line2d_15">
    <g clip-path="url(#p6e912bd40d)">
     <use xlink:href="#m8d4031f4ce" x="72" y="36" style="fill: #32cd32; stroke: #000000"/>
    </g>
   </g>
   <g id="line2d_16">
    <defs>
     <path id="meeb2e27668" d="M 0 10.5 
C 2.784633 10.5 5.455589 9.393654 7.424621 7.424621 
C 9.393654 5.455589 10.5 2.784633 10.5 0 
C 10.5 -2.784633 9.393654 -5.455589 7.424621 -7.424621 
C 5.455589 -9.393654 2.784633 -10.5 0 -10.5 
C -2.784633 -10.5 -5.455589 -9.393654 -7.424621 -7.424621 
C -9.393654 -5.455589 -10.5 -2.784633 -10.5 0 
C -10.5 2.784633 -9.393654 5.455589 -7.424621 7.424621 
C -5.455589 9.393654 -2.784633 10.5 0 10.5 
z
" style="stroke: #000000"/>
    </defs>
    <g clip-path="url(#p6e912bd40d)">
     <use xlink:href="#meeb2e27668" x="108" y="36" style="fill: #ffffff; stroke: #000000"/>
    </g>
   </g>
   <g id="line2d_17">
    <g clip-path="url(#p6e912bd40d)">
     <use xlink:href="#m08f59d5041" x="144" y="36" style="fill: #ffa500; stroke: #000000"/>
    </g>
   </g>
   <g id="line2d_18">
    <g clip-path="url(#p6e912bd40d)">
     <use xlink:href="#m8d4031f4ce" x="36" y="72" style="fill: #32cd32; stroke: #000000"/>
    </g>
   </g>
   <g id="line2d_19">
    <g clip-path="url(#p6e912bd40d)">
     <use xlink:href="#m8d4031f4ce" x="72" y="72" style="fill: #32cd32; stroke: #000000"/>
    </g>
   </g>
   <g id="line2d_20">
    <g clip-path="url(#p6e912bd40d)">
     <use xlink:href="#meeb2e27668" x="108" y="72" style="fill: #ffffff; stroke: #000000"/>
    </g>
   </g>
   <g id="line2d_21">
    <g clip-path="url(#p6e912bd40d)">
     <use xlink:href="#m08f59d5041" x="144" y="72" style="fill: #ffa500; stroke: #000000"/>
    </g>
   </g>
   <g id="line2d_22">
    <g clip-path="url(#p6e912bd40d)">
     <use xlink:href="#m08f59d5041" x="180" y="72" style="fill: #ffa500; stroke: #000000"/>
    </g>
   </g>
   <g id="line2d_23">
    <g clip-path="url(#p6e912bd40d)">
     <use xlink:href="#meeb2e27668" x="180" y="66.6" style="fill: #ffffff; stroke: #000000"/>
    </g>
   </g>
   <g id="line2d_24">
    <g clip-path="url(#p6e912bd40d)">
     <use xlink:href="#m8d4031f4ce" x="36" y="108" style="fill: #32cd32; stroke: #000000"/>
    </g>
   </g>
   <g id="line2d_25">
    <defs>
     <path id="mf315d707fe" d="M 0 10.5 
C 2.784633 10.5 5.455589 9.393654 7.424621 7.424621 
C 9.393654 5.455589 10.5 2.784633 10.5 0 
C 10.5 -2.784633 9.393654 -5.455589 7.424621 -7.424621 
C 5.455589 -9.393654 2.784633 -10.5 0 -10.5 
C -2.784633 -10.5 -5.455589 -9.393654 -7.424621 -7.424621 
C -9.393654 -5.455589 -10.5 -2.784633 -10.5 0 
C -10.5 2.784633 -9.393654 5.455589 -7.424621 7.424621 
C -5.455589 9.393654 -2.784633 10.5 0 10.5 
z
" style="stroke: #000000"/>
    </defs>
    <g clip-path="url(#p6e912bd40d)">
     <use xlink:href="#mf315d707fe" x="72" y="108" style="fill: #ff0000; stroke: #000000"/>
    </g>
   </g>
   <g id="line2d_26">
    <g clip-path="url(#p6e912bd40d)">
     <use xlink:href="#meeb2e27668" x="108" y="108" style="fill: #ffffff; stroke: #000000"/>
    </g>
   </g>
   <g id="line2d_27">
    <g clip-path="url(#p6e912bd40d)">
     <use xlink:href="#m08f59d5041" x="144" y="108" style="fill: #ffa500; stroke: #000000"/>
    </g>
   </g>
   <g id="line2d_28">
    <defs>
     <path id="m3fa77ad457" d="M 0 10.5 
C 2.784633 10.5 5.455589 9.393654 7.424621 7.424621 
C 9.393654 5.455589 10.5 2.784633 10.5 0 
C 10.5 -2.784633 9.393654 -5.455589 7.424621 -7.424621 
C 5.455589 -9.393654 2.784633 -10.5 0 -10.5 
C -2.784633 -10.5 -5.455589 -9.393654 -7.424621 -7.424621 
C -9.393654 -5.455589 -10.5 -2.784633 -10.5 0 
C -10.5 2.784633 -9.393654 5.455589 -7.424621 7.424621 
C -5.455589 9.393654 -2.784633 10.5 0 10.5 
z
" style="stroke: #808080"/>
    </defs>
    <g clip-path="url(#p6e912bd40d)">
     <use xlink:href="#m3fa77ad457" x="180" y="108" style="stroke: #808080"/>
    </g>
   </g>
   <g id="line2d_29">
    <g clip-path="url(#p6e912bd40d)">
     <use xlink:href="#mf315d707fe" x="36" y="144" style="fill: #ff0000; stroke: #000000"/>
    </g>
   </g>
   <g id="line2d_30">
    <g clip-path="url(#p6e912bd40d)">
     <use xlink:href="#mf315d707fe" x="72" y="144" style="fill: #ff0000; stroke: #000000"/>
    </g>
   </g>
   <g id="line2d_31">
    <g clip-path="url(#p6e912bd40d)">
     <use xlink:href="#m3fa77ad457" x="144" y="144" style="stroke: #808080"/>
    </g>
   </g>
   <g id="line2d_32">
    <g clip-path="url(#p6e912bd40d)">
     <use xlink:href="#m3fa77ad457" x="180" y="144" style="stroke: #808080"/>
    </g>
   </g>
   <g id="line2d_33">
    <g clip-path="url(#p6e912bd40d)">
     <use xlink:href="#mf315d707fe" x="36" y="180" style="fill: #ff0000; stroke: #000000"/>
    </g>
   </g>
   <g id="line2d_34">
    <g clip-path="url(#p6e912bd40d)">
     <use xlink:href="#meeb2e27668" x="36" y="174.6" style="fill: #ffffff; stroke: #000000"/>
    </g>
   </g>
   <g id="line2d_35">
    <g clip-path="url(#p6e912bd40d)">
     <use xlink:href="#mf315d707fe" x="72" y="180" style="fill: #ff0000; stroke: #000000"/>
    </g>
   </g>
   <g id="line2d_36">
    <g clip-path="url(#p6e912bd40d)">
     <use xlink:href="#m3fa77ad457" x="144" y="180" style="stroke: #808080"/>
    </g>
   </g>
   <g id="line2d_37">
    <g clip-path="url(#p6e912bd40d)">
     <use xlink:href="#m3fa77ad457" x="180" y="180" style="stroke: #808080"/>
    </g>
   </g>
   <g id="text_1">
    <!-- A -->
    <g transform="translate(34.2 207) scale(0.06 -0.06)">
     <defs>
      <path id="DejaVuSans-41" d="M 2188 4044 
L 1331 1722 
L 3047 1722 
L 2188 4044 
z
M 1831 4666 
L 2547 4666 
L 4325 0 
L 3669 0 
L 3244 1197 
L 1141 1197 
L 716 0 
L 50 0 
L 1831 4666 
z
" transform="scale(0.015625)"/>
     </defs>
     <use xlink:href="#DejaVuSans-41"/>
    </g>
   </g>
   <g id="text_2">
    <!-- B -->
    <g transform="translate(70.2 207) scale(0.06 -0.06)">
     <defs>
      <path id="DejaVuSans-42" d="M 1259 2228 
L 1259 519 
L 2272 519 
Q 2781 519 3026 730 
Q 3272 941 3272 1375 
Q 3272 1813 3026 2020 
Q 2781 2228 2272 2228 
L 1259 2228 
z
M 1259 4147 
L 1259 2741 
L 2194 2741 
Q 2656 2741 2882 2914 
Q 3109 3088 3109 3444 
Q 3109 3797 2882 3972 
Q 2656 4147 2194 4147 
L 1259 4147 
z
M 628 4666 
L 2241 4666 
Q 2963 4666 3353 4366 
Q 3744 4066 3744 3513 
Q 3744 3084 3544 2831 
Q 3344 2578 2956 2516 
Q 3422 2416 3680 2098 
Q 3938 1781 3938 1306 
Q 3938 681 3513 340 
Q 3088 0 2303 0 
L 628 0 
L 628 4666 
z
" transform="scale(0.015625)"/>
     </defs>
     <use xlink:href="#DejaVuSans-42"/>
    </g>
   </g>
   <g id="text_3">
    <!-- C -->
    <g transform="translate(106.2 207) scale(0.06 -0.06)">
     <defs>
      <path id="DejaVuSans-43" d="M 4122 4306 
L 4122 3641 
Q 3803 3938 3442 4084 
Q 3081 4231 2675 4231 
Q 1875 4231 1450 3742 
Q 1025 3253 1025 2328 
Q 1025 1406 1450 917 
Q 1875 428 2675 428 
Q 3081 428 3442 575 
Q 3803 722 4122 1019 
L 4122 359 
Q 3791 134 3420 21 
Q 3050 -91 2638 -91 
Q 1578 -91 968 557 
Q 359 1206 359 2328 
Q 359 3453 968 4101 
Q 1578 4750 2638 4750 
Q 3056 4750 3426 4639 
Q 3797 4528 4122 4306 
z
" transform="scale(0.015625)"/>
     </defs>
     <use xlink:href="#DejaVuSans-43"/>
    </g>
   </g>
   <g id="text_4">
    <!-- D -->
    <g transform="translate(142.2 207) scale(0.06 -0.06)">
     <defs>
      <path id="DejaVuSans-44" d="M 1259 4147 
L 1259 519 
L 2022 519 
Q 2988 519 3436 956 
Q 3884 1394 3884 2338 
Q 3884 3275 3436 3711 
Q 2988 4147 2022 4147 
L 1259 4147 
z
M 628 4666 
L 1925 4666 
Q 3281 4666 3915 4102 
Q 4550 3538 4550 2338 
Q 4550 1131 3912 565 
Q 3275 0 1925 0 
L 628 0 
L 628 4666 
z
" transform="scale(0.015625)"/>
     </defs>
     <use xlink:href="#DejaVuSans-44"/>
    </g>
   </g>
   <g id="text_5">
    <!-- E -->
    <g transform="translate(178.2 207) scale(0.06 -0.06)">
     <defs>
      <path id="DejaVuSans-45" d="M 628 4666 
L 3578 4666 
L 3578 4134 
L 1259 4134 
L 1259 2753 
L 3481 2753 
L 3481 2222 
L 1259 2222 
L 1259 531 
L 3634 531 
L 3634 0 
L 628 0 
L 628 4666 
z
" transform="scale(0.015625)"/>
     </defs>
     <use xlink:href="#DejaVuSans-45"/>
    </g>
   </g>
   <g id="text_6">
    <!-- 1 -->
    <g transform="translate(9 181.8) scale(0.06 -0.06)">
     <defs>
      <path id="DejaVuSans-31" d="M 794 531 
L 1825 531 
L 1825 4091 
L 703 3866 
L 703 4441 
L 1819 4666 
L 2450 4666 
L 2450 531 
L 3481 531 
L 3481 0 
L 794 0 
L 794 531 
z
" transform="scale(0.015625)"/>
     </defs>
     <use xlink:href="#DejaVuSans-31"/>
    </g>
   </g>
   <g id="text_7">
    <!-- 2 -->
    <g transform="translate(9 145.8) scale(0.06 -0.06)">
     <defs>
      <path id="DejaVuSans-32" d="M 1228 531 
L 3431 531 
L 3431 0 
L 469 0 
L 469 531 
Q 828 903 1448 1529 
Q 2069 2156 2228 2338 
Q 2531 2678 2651 2914 
Q 2772 3150 2772 3378 
Q 2772 3750 2511 3984 
Q 2250 4219 1831 4219 
Q 1534 4219 1204 4116 
Q 875 4013 500 3803 
L 500 4441 
Q 881 4594 1212 4672 
Q 1544 4750 1819 4750 
Q 2544 4750 2975 4387 
Q 3406 4025 3406 3419 
Q 3406 3131 3298 2873 
Q 3191 2616 2906 2266 
Q 2828 2175 2409 1742 
Q 1991 1309 1228 531 
z
" transform="scale(0.015625)"/>
     </defs>
     <use xlink:href="#DejaVuSans-32"/>
    </g>
   </g>
   <g id="text_8">
    <!-- 3 -->
    <g transform="translate(9 109.8) scale(0.06 -0.06)">
     <defs>
      <path id="DejaVuSans-33" d="M 2597 2516 
Q 3050 2419 3304 2112 
Q 3559 1806 3559 1356 
Q 3559 666 3084 287 
Q 2609 -91 1734 -91 
Q 1441 -91 1130 -33 
Q 819 25 488 141 
L 488 750 
Q 750 597 1062 519 
Q 1375 441 1716 441 
Q 2309 441 2620 675 
Q 2931 909 2931 1356 
Q 2931 1769 2642 2001 
Q 2353 2234 1838 2234 
L 1294 2234 
L 1294 2753 
L 1863 2753 
Q 2328 2753 2575 2939 
Q 2822 3125 2822 3475 
Q 2822 3834 2567 4026 
Q 2313 4219 1838 4219 
Q 1578 4219 1281 4162 
Q 984 4106 628 3988 
L 628 4550 
Q 988 4650 1302 4700 
Q 1616 4750 1894 4750 
Q 2613 4750 3031 4423 
Q 3450 4097 3450 3541 
Q 3450 3153 3228 2886 
Q 3006 2619 2597 2516 
z
" transform="scale(0.015625)"/>
     </defs>
     <use xlink:href="#DejaVuSans-33"/>
    </g>
   </g>
   <g id="text_9">
    <!-- 4 -->
    <g transform="translate(9 73.8) scale(0.06 -0.06)">
     <defs>
      <path id="DejaVuSans-34" d="M 2419 4116 
L 825 1625 
L 2419 1625 
L 2419 4116 
z
M 2253 4666 
L 3047 4666 
L 3047 1625 
L 3713 1625 
L 3713 1100 
L 3047 1100 
L 3047 0 
L 2419 0 
L 2419 1100 
L 313 1100 
L 313 1709 
L 2253 4666 
z
" transform="scale(0.015625)"/>
     </defs>
     <use xlink:href="#DejaVuSans-34"/>
    </g>
   </g>
   <g id="text_10">
    <!-- 5 -->
    <g transform="translate(9 37.8) scale(0.06 -0.06)">
     <defs>
      <path id="DejaVuSans-35" d="M 691 4666 
L 3169 4666 
L 3169 4134 
L 1269 4134 
L 1269 2991 
Q 1406 3038 1543 3061 
Q 1681 3084 1819 3084 
Q 2600 3084 3056 2656 
Q 3513 2228 3513 1497 
Q 3513 744 3044 326 
Q 2575 -91 1722 -91 
Q 1428 -91 1123 -41 
Q 819 9 494 109 
L 494 744 
Q 775 591 1075 516 
Q 1375 441 1709 441 
Q 2250 441 2565 725 
Q 2881 1009 2881 1497 
Q 2881 1984 2565 2268 
Q 2250 2553 1709 2553 
Q 1456 2553 1204 2497 
Q 953 2441 691 2322 
L 691 4666 
z
" transform="scale(0.015625)"/>
     </defs>
     <use xlink:href="#DejaVuSans-35"/>
    </g>
   </g>
  </g>
 </g>
 <defs>
  <clipPath id="p6e912bd40d">
   <rect x="0" y="0" width="216" height="216"/>
  </clipPath>
 </defs>
</svg>
