<?xml version="1.0" encoding="utf-8" standalone="no"?>
<!DOCTYPE svg PUBLIC "-//W3C//DTD SVG 1.1//EN"
  "http://www.w3.org/Graphics/SVG/1.1/DTD/svg11.dtd">
<svg xmlns:xlink="http://www.w3.org/1999/xlink" width="252pt" height="288pt" viewBox="0 0 252 288" xmlns="http://www.w3.org/2000/svg" version="1.1">
 <metadata>
  <rdf:RDF xmlns:dc="http://purl.org/dc/elements/1.1/" xmlns:cc="http://creativecommons.org/ns#" xmlns:rdf="http://www.w3.org/1999/02/22-rdf-syntax-ns#">
   <cc:Work>
    <dc:type rdf:resource="http://purl.org/dc/dcmitype/StillImage"/>
    <dc:date>2025-02-21T14:26:29.816020</dc:date>
    <dc:format>image/svg+xml</dc:format>
    <dc:creator>
     <cc:Agent>
      <dc:title>Matplotlib v3.8.0, https://matplotlib.org/</dc:title>
     </cc:Agent>
    </dc:creator>
   </cc:Work>
  </rdf:RDF>
 </metadata>
 <defs>
  <style type="text/css">*{stroke-linejoin: round; stroke-linecap: butt}</style>
 </defs>
 <g id="figure_1">
  <g id="patch_1">
   <path d="M 0 288 
L 252 288 
L 252 0 
L 0 0 
z
" style="fill: #fffff0"/>
  </g>
  <g id="axes_1">
   <g id="line2d_1">
    <path d="M 18 270 
L 18 18 
" clip-path="url(#p634a012e45)" style="fill: none; stroke: #000000; stroke-width: 0.5; stroke-linecap: square"/>
   </g>
   <g id="line2d_2">
    <path d="M 54 270 
L 54 18 
" clip-path="url(#p634a012e45)" style="fill: none; stroke: #000000; stroke-width: 0.5; stroke-linecap: square"/>
   </g>
   <g id="line2d_3">
    <path d="M 90 270 
L 90 18 
" clip-path="url(#p634a012e45)" style="fill: none; stroke: #000000; stroke-width: 0.5; stroke-linecap: square"/>
   </g>
   <g id="line2d_4">
    <path d="M 126 270 
L 126 18 
" clip-path="url(#p634a012e45)" style="fill: none; stroke: #000000; stroke-width: 0.5; stroke-linecap: square"/>
   </g>
   <g id="line2d_5">
    <path d="M 162 270 
L 162 18 
" clip-path="url(#p634a012e45)" style="fill: none; stroke: #000000; stroke-width: 0.5; stroke-linecap: square"/>
   </g>
   <g id="line2d_6">
    <path d="M 198 270 
L 198 18 
" clip-path="url(#p634a012e45)" style="fill: none; stroke: #000000; stroke-width: 0.5; stroke-linecap: square"/>
   </g>
   <g id="line2d_7">
    <path d="M 234 270 
L 234 18 
" clip-path="url(#p634a012e45)" style="fill: none; stroke: #000000; stroke-width: 0.5; stroke-linecap: square"/>
   </g>
   <g id="line2d_8">
    <path d="M 18 270 
L 234 270 
" clip-path="url(#p634a012e45)" style="fill: none; stroke: #000000; stroke-width: 0.5; stroke-linecap: square"/>
   </g>
   <g id="line2d_9">
    <path d="M 18 234 
L 234 234 
" clip-path="url(#p634a012e45)" style="fill: none; stroke: #000000; stroke-width: 0.5; stroke-linecap: square"/>
   </g>
   <g id="line2d_10">
    <path d="M 18 198 
L 234 198 
" clip-path="url(#p634a012e45)" style="fill: none; stroke: #000000; stroke-width: 0.5; stroke-linecap: square"/>
   </g>
   <g id="line2d_11">
    <path d="M 18 162 
L 234 162 
" clip-path="url(#p634a012e45)" style="fill: none; stroke: #000000; stroke-width: 0.5; stroke-linecap: square"/>
   </g>
   <g id="line2d_12">
    <path d="M 18 126 
L 234 126 
" clip-path="url(#p634a012e45)" style="fill: none; stroke: #000000; stroke-width: 0.5; stroke-linecap: square"/>
   </g>
   <g id="line2d_13">
    <path d="M 18 90 
L 234 90 
" clip-path="url(#p634a012e45)" style="fill: none; stroke: #000000; stroke-width: 0.5; stroke-linecap: square"/>
   </g>
   <g id="line2d_14">
    <path d="M 18 54 
L 234 54 
" clip-path="url(#p634a012e45)" style="fill: none; stroke: #000000; stroke-width: 0.5; stroke-linecap: square"/>
   </g>
   <g id="line2d_15">
    <path d="M 18 18 
L 234 18 
" clip-path="url(#p634a012e45)" style="fill: none; stroke: #000000; stroke-width: 0.5; stroke-linecap: square"/>
   </g>
   <g id="line2d_16">
    <defs>
     <path id="m216b0a27cd" d="M 0 10.5 
C 2.784633 10.5 5.455589 9.393654 7.424621 7.424621 
C 9.393654 5.455589 10.5 2.784633 10.5 0 
C 10.5 -2.784633 9.393654 -5.455589 7.424621 -7.424621 
C 5.455589 -9.393654 2.784633 -10.5 0 -10.5 
C -2.784633 -10.5 -5.455589 -9.393654 -7.424621 -7.424621 
C -9.393654 -5.455589 -10.5 -2.784633 -10.5 0 
C -10.5 2.784633 -9.393654 5.455589 -7.424621 7.424621 
C -5.455589 9.393654 -2.784633 10.5 0 10.5 
z
" style="stroke: #000000"/>
    </defs>
    <g clip-path="url(#p634a012e45)">
     <use xlink:href="#m216b0a27cd" x="144" y="36" style="fill: #00bfff; stroke: #000000"/>
    </g>
   </g>
   <g id="line2d_17">
    <g clip-path="url(#p634a012e45)">
     <use xlink:href="#m216b0a27cd" x="72" y="72" style="fill: #00bfff; stroke: #000000"/>
    </g>
   </g>
   <g id="line2d_18">
    <g clip-path="url(#p634a012e45)">
     <use xlink:href="#m216b0a27cd" x="108" y="144" style="fill: #00bfff; stroke: #000000"/>
    </g>
   </g>
   <g id="line2d_19">
    <defs>
     <path id="mdbe8b68d52" d="M 0 10.5 
C 2.784633 10.5 5.455589 9.393654 7.424621 7.424621 
C 9.393654 5.455589 10.5 2.784633 10.5 0 
C 10.5 -2.784633 9.393654 -5.455589 7.424621 -7.424621 
C 5.455589 -9.393654 2.784633 -10.5 0 -10.5 
C -2.784633 -10.5 -5.455589 -9.393654 -7.424621 -7.424621 
C -9.393654 -5.455589 -10.5 -2.784633 -10.5 0 
C -10.5 2.784633 -9.393654 5.455589 -7.424621 7.424621 
C -5.455589 9.393654 -2.784633 10.5 0 10.5 
z
" style="stroke: #000000"/>
    </defs>
    <g clip-path="url(#p634a012e45)">
     <use xlink:href="#mdbe8b68d52" x="36" y="180" style="fill: #ffffff; stroke: #000000"/>
    </g>
   </g>
   <g id="line2d_20">
    <g clip-path="url(#p634a012e45)">
     <use xlink:href="#mdbe8b68d52" x="108" y="216" style="fill: #ffffff; stroke: #000000"/>
    </g>
   </g>
   <g id="line2d_21">
    <g clip-path="url(#p634a012e45)">
     <use xlink:href="#mdbe8b68d52" x="180" y="252" style="fill: #ffffff; stroke: #000000"/>
    </g>
   </g>
   <g id="line2d_22">
    <defs>
     <path id="mf427a3fb09" d="M 0 3.5 
C 0.928211 3.5 1.81853 3.131218 2.474874 2.474874 
C 3.131218 1.81853 3.5 0.928211 3.5 0 
C 3.5 -0.928211 3.131218 -1.81853 2.474874 -2.474874 
C 1.81853 -3.131218 0.928211 -3.5 0 -3.5 
C -0.928211 -3.5 -1.81853 -3.131218 -2.474874 -2.474874 
C -3.131218 -1.81853 -3.5 -0.928211 -3.5 0 
C -3.5 0.928211 -3.131218 1.81853 -2.474874 2.474874 
C -1.81853 3.131218 -0.928211 3.5 0 3.5 
z
" style="stroke: #d3d3d3"/>
    </defs>
    <g clip-path="url(#p634a012e45)">
     <use xlink:href="#mf427a3fb09" x="108.036" y="216" style="fill: #d3d3d3; stroke: #d3d3d3"/>
    </g>
   </g>
   <g id="line2d_23">
    <g clip-path="url(#p634a012e45)">
     <use xlink:href="#mf427a3fb09" x="180.036" y="252" style="fill: #d3d3d3; stroke: #d3d3d3"/>
    </g>
   </g>
   <g id="text_1">
    <!-- ♚ -->
    <g transform="translate(138.620625 39.31125) scale(0.12 -0.12)">
     <defs>
      <path id="DejaVuSans-265a" d="M 2650 3022 
Q 2653 3031 2659 3041 
Q 2550 3175 2391 3263 
Q 2159 3391 1915 3391 
Q 1672 3391 1442 3264 
Q 1213 3138 1081 2905 
Q 950 2672 950 2422 
Q 950 2169 1078 1941 
Q 1206 1713 1438 1588 
Q 1506 1544 1578 1519 
L 2650 1519 
L 2650 3022 
z
M 3091 1519 
L 4159 1519 
Q 4234 1544 4303 1588 
Q 4534 1713 4661 1941 
Q 4788 2169 4788 2422 
Q 4788 2672 4658 2905 
Q 4528 3138 4298 3264 
Q 4069 3391 3822 3391 
Q 3581 3391 3350 3263 
Q 3188 3175 3081 3041 
Q 3088 3031 3091 3022 
L 3091 1519 
z
M 1688 1197 
L 1688 250 
L 4053 250 
L 4053 1197 
L 1688 1197 
z
M 1431 0 
L 1431 1197 
Q 1300 1238 1181 1306 
Q 966 1475 797 1781 
Q 628 2088 628 2422 
Q 628 2759 800 3067 
Q 972 3375 1281 3540 
Q 1591 3706 1916 3706 
Q 2166 3706 2403 3609 
L 2403 3616 
Q 2403 3728 2459 3826 
Q 2516 3925 2616 3981 
Q 2656 4003 2706 4016 
L 2706 4184 
L 2369 4184 
L 2369 4403 
L 2706 4403 
L 2706 4675 
L 3034 4675 
L 3034 4403 
L 3372 4403 
L 3372 4184 
L 3034 4184 
L 3034 4016 
Q 3084 4003 3125 3981 
Q 3222 3925 3280 3826 
Q 3338 3728 3338 3616 
L 3338 3609 
Q 3575 3706 3822 3706 
Q 4147 3706 4456 3540 
Q 4766 3375 4937 3067 
Q 5109 2759 5109 2422 
Q 5109 2088 4940 1781 
Q 4772 1475 4559 1306 
Q 4438 1238 4309 1197 
L 4309 0 
L 1431 0 
z
M 2578 3591 
Q 2578 3513 2617 3445 
Q 2656 3378 2726 3339 
Q 2797 3300 2869 3300 
Q 2944 3300 3014 3339 
Q 3084 3378 3121 3445 
Q 3159 3513 3159 3591 
Q 3159 3666 3121 3736 
Q 3084 3806 3014 3842 
Q 2944 3878 2869 3878 
Q 2797 3878 2726 3842 
Q 2656 3806 2617 3736 
Q 2578 3666 2578 3591 
z
M 3891 1034 
L 3891 409 
L 1850 409 
L 1850 1034 
L 3891 1034 
z
M 2494 1678 
L 1619 1678 
Q 1563 1700 1509 1738 
Q 1319 1841 1216 2030 
Q 1113 2219 1113 2428 
Q 1113 2634 1219 2826 
Q 1325 3019 1511 3123 
Q 1697 3228 1897 3228 
Q 2091 3228 2281 3125 
Q 2409 3053 2500 2941 
Q 2494 2931 2494 2925 
L 2494 1678 
z
M 3247 2925 
Q 3247 2931 3241 2941 
Q 3331 3053 3459 3125 
Q 3650 3228 3841 3228 
Q 4044 3228 4230 3123 
Q 4416 3019 4522 2826 
Q 4628 2634 4628 2428 
Q 4628 2219 4525 2030 
Q 4422 1841 4231 1738 
Q 4175 1700 4119 1678 
L 3247 1678 
L 3247 2925 
z
" transform="scale(0.015625)"/>
     </defs>
     <use xlink:href="#DejaVuSans-265a"/>
    </g>
   </g>
   <g id="text_2">
    <!-- ♔ -->
    <g transform="translate(30.620625 183.31125) scale(0.12 -0.12)">
     <defs>
      <path id="DejaVuSans-2654" d="M 2650 3022 
Q 2653 3031 2659 3041 
Q 2550 3175 2391 3263 
Q 2159 3391 1915 3391 
Q 1672 3391 1442 3264 
Q 1213 3138 1081 2905 
Q 950 2672 950 2422 
Q 950 2169 1078 1941 
Q 1206 1713 1438 1588 
Q 1506 1544 1578 1519 
L 2650 1519 
L 2650 3022 
z
M 3091 1519 
L 4159 1519 
Q 4234 1544 4303 1588 
Q 4534 1713 4661 1941 
Q 4788 2169 4788 2422 
Q 4788 2672 4658 2905 
Q 4528 3138 4298 3264 
Q 4069 3391 3822 3391 
Q 3581 3391 3350 3263 
Q 3188 3175 3081 3041 
Q 3088 3031 3091 3022 
L 3091 1519 
z
M 1688 1197 
L 1688 250 
L 4053 250 
L 4053 1197 
L 1688 1197 
z
M 1431 0 
L 1431 1197 
Q 1300 1238 1181 1306 
Q 966 1475 797 1781 
Q 628 2088 628 2422 
Q 628 2759 800 3067 
Q 972 3375 1281 3540 
Q 1591 3706 1916 3706 
Q 2166 3706 2403 3609 
L 2403 3616 
Q 2403 3728 2459 3826 
Q 2516 3925 2616 3981 
Q 2656 4003 2706 4016 
L 2706 4184 
L 2369 4184 
L 2369 4403 
L 2706 4403 
L 2706 4675 
L 3034 4675 
L 3034 4403 
L 3372 4403 
L 3372 4184 
L 3034 4184 
L 3034 4016 
Q 3084 4003 3125 3981 
Q 3222 3925 3280 3826 
Q 3338 3728 3338 3616 
L 3338 3609 
Q 3575 3706 3822 3706 
Q 4147 3706 4456 3540 
Q 4766 3375 4937 3067 
Q 5109 2759 5109 2422 
Q 5109 2088 4940 1781 
Q 4772 1475 4559 1306 
Q 4438 1238 4309 1197 
L 4309 0 
L 1431 0 
z
M 2578 3591 
Q 2578 3513 2617 3445 
Q 2656 3378 2726 3339 
Q 2797 3300 2869 3300 
Q 2944 3300 3014 3339 
Q 3084 3378 3121 3445 
Q 3159 3513 3159 3591 
Q 3159 3666 3121 3736 
Q 3084 3806 3014 3842 
Q 2944 3878 2869 3878 
Q 2797 3878 2726 3842 
Q 2656 3806 2617 3736 
Q 2578 3666 2578 3591 
z
" transform="scale(0.015625)"/>
     </defs>
     <use xlink:href="#DejaVuSans-2654"/>
    </g>
   </g>
   <g id="text_3">
    <!-- A -->
    <g transform="translate(34.2 279) scale(0.06 -0.06)">
     <defs>
      <path id="DejaVuSans-41" d="M 2188 4044 
L 1331 1722 
L 3047 1722 
L 2188 4044 
z
M 1831 4666 
L 2547 4666 
L 4325 0 
L 3669 0 
L 3244 1197 
L 1141 1197 
L 716 0 
L 50 0 
L 1831 4666 
z
" transform="scale(0.015625)"/>
     </defs>
     <use xlink:href="#DejaVuSans-41"/>
    </g>
   </g>
   <g id="text_4">
    <!-- B -->
    <g transform="translate(70.2 279) scale(0.06 -0.06)">
     <defs>
      <path id="DejaVuSans-42" d="M 1259 2228 
L 1259 519 
L 2272 519 
Q 2781 519 3026 730 
Q 3272 941 3272 1375 
Q 3272 1813 3026 2020 
Q 2781 2228 2272 2228 
L 1259 2228 
z
M 1259 4147 
L 1259 2741 
L 2194 2741 
Q 2656 2741 2882 2914 
Q 3109 3088 3109 3444 
Q 3109 3797 2882 3972 
Q 2656 4147 2194 4147 
L 1259 4147 
z
M 628 4666 
L 2241 4666 
Q 2963 4666 3353 4366 
Q 3744 4066 3744 3513 
Q 3744 3084 3544 2831 
Q 3344 2578 2956 2516 
Q 3422 2416 3680 2098 
Q 3938 1781 3938 1306 
Q 3938 681 3513 340 
Q 3088 0 2303 0 
L 628 0 
L 628 4666 
z
" transform="scale(0.015625)"/>
     </defs>
     <use xlink:href="#DejaVuSans-42"/>
    </g>
   </g>
   <g id="text_5">
    <!-- C -->
    <g transform="translate(106.2 279) scale(0.06 -0.06)">
     <defs>
      <path id="DejaVuSans-43" d="M 4122 4306 
L 4122 3641 
Q 3803 3938 3442 4084 
Q 3081 4231 2675 4231 
Q 1875 4231 1450 3742 
Q 1025 3253 1025 2328 
Q 1025 1406 1450 917 
Q 1875 428 2675 428 
Q 3081 428 3442 575 
Q 3803 722 4122 1019 
L 4122 359 
Q 3791 134 3420 21 
Q 3050 -91 2638 -91 
Q 1578 -91 968 557 
Q 359 1206 359 2328 
Q 359 3453 968 4101 
Q 1578 4750 2638 4750 
Q 3056 4750 3426 4639 
Q 3797 4528 4122 4306 
z
" transform="scale(0.015625)"/>
     </defs>
     <use xlink:href="#DejaVuSans-43"/>
    </g>
   </g>
   <g id="text_6">
    <!-- D -->
    <g transform="translate(142.2 279) scale(0.06 -0.06)">
     <defs>
      <path id="DejaVuSans-44" d="M 1259 4147 
L 1259 519 
L 2022 519 
Q 2988 519 3436 956 
Q 3884 1394 3884 2338 
Q 3884 3275 3436 3711 
Q 2988 4147 2022 4147 
L 1259 4147 
z
M 628 4666 
L 1925 4666 
Q 3281 4666 3915 4102 
Q 4550 3538 4550 2338 
Q 4550 1131 3912 565 
Q 3275 0 1925 0 
L 628 0 
L 628 4666 
z
" transform="scale(0.015625)"/>
     </defs>
     <use xlink:href="#DejaVuSans-44"/>
    </g>
   </g>
   <g id="text_7">
    <!-- E -->
    <g transform="translate(178.2 279) scale(0.06 -0.06)">
     <defs>
      <path id="DejaVuSans-45" d="M 628 4666 
L 3578 4666 
L 3578 4134 
L 1259 4134 
L 1259 2753 
L 3481 2753 
L 3481 2222 
L 1259 2222 
L 1259 531 
L 3634 531 
L 3634 0 
L 628 0 
L 628 4666 
z
" transform="scale(0.015625)"/>
     </defs>
     <use xlink:href="#DejaVuSans-45"/>
    </g>
   </g>
   <g id="text_8">
    <!-- F -->
    <g transform="translate(214.2 279) scale(0.06 -0.06)">
     <defs>
      <path id="DejaVuSans-46" d="M 628 4666 
L 3309 4666 
L 3309 4134 
L 1259 4134 
L 1259 2759 
L 3109 2759 
L 3109 2228 
L 1259 2228 
L 1259 0 
L 628 0 
L 628 4666 
z
" transform="scale(0.015625)"/>
     </defs>
     <use xlink:href="#DejaVuSans-46"/>
    </g>
   </g>
   <g id="text_9">
    <!-- 1 -->
    <g transform="translate(9 253.8) scale(0.06 -0.06)">
     <defs>
      <path id="DejaVuSans-31" d="M 794 531 
L 1825 531 
L 1825 4091 
L 703 3866 
L 703 4441 
L 1819 4666 
L 2450 4666 
L 2450 531 
L 3481 531 
L 3481 0 
L 794 0 
L 794 531 
z
" transform="scale(0.015625)"/>
     </defs>
     <use xlink:href="#DejaVuSans-31"/>
    </g>
   </g>
   <g id="text_10">
    <!-- 2 -->
    <g transform="translate(9 217.8) scale(0.06 -0.06)">
     <defs>
      <path id="DejaVuSans-32" d="M 1228 531 
L 3431 531 
L 3431 0 
L 469 0 
L 469 531 
Q 828 903 1448 1529 
Q 2069 2156 2228 2338 
Q 2531 2678 2651 2914 
Q 2772 3150 2772 3378 
Q 2772 3750 2511 3984 
Q 2250 4219 1831 4219 
Q 1534 4219 1204 4116 
Q 875 4013 500 3803 
L 500 4441 
Q 881 4594 1212 4672 
Q 1544 4750 1819 4750 
Q 2544 4750 2975 4387 
Q 3406 4025 3406 3419 
Q 3406 3131 3298 2873 
Q 3191 2616 2906 2266 
Q 2828 2175 2409 1742 
Q 1991 1309 1228 531 
z
" transform="scale(0.015625)"/>
     </defs>
     <use xlink:href="#DejaVuSans-32"/>
    </g>
   </g>
   <g id="text_11">
    <!-- 3 -->
    <g transform="translate(9 181.8) scale(0.06 -0.06)">
     <defs>
      <path id="DejaVuSans-33" d="M 2597 2516 
Q 3050 2419 3304 2112 
Q 3559 1806 3559 1356 
Q 3559 666 3084 287 
Q 2609 -91 1734 -91 
Q 1441 -91 1130 -33 
Q 819 25 488 141 
L 488 750 
Q 750 597 1062 519 
Q 1375 441 1716 441 
Q 2309 441 2620 675 
Q 2931 909 2931 1356 
Q 2931 1769 2642 2001 
Q 2353 2234 1838 2234 
L 1294 2234 
L 1294 2753 
L 1863 2753 
Q 2328 2753 2575 2939 
Q 2822 3125 2822 3475 
Q 2822 3834 2567 4026 
Q 2313 4219 1838 4219 
Q 1578 4219 1281 4162 
Q 984 4106 628 3988 
L 628 4550 
Q 988 4650 1302 4700 
Q 1616 4750 1894 4750 
Q 2613 4750 3031 4423 
Q 3450 4097 3450 3541 
Q 3450 3153 3228 2886 
Q 3006 2619 2597 2516 
z
" transform="scale(0.015625)"/>
     </defs>
     <use xlink:href="#DejaVuSans-33"/>
    </g>
   </g>
   <g id="text_12">
    <!-- 4 -->
    <g transform="translate(9 145.8) scale(0.06 -0.06)">
     <defs>
      <path id="DejaVuSans-34" d="M 2419 4116 
L 825 1625 
L 2419 1625 
L 2419 4116 
z
M 2253 4666 
L 3047 4666 
L 3047 1625 
L 3713 1625 
L 3713 1100 
L 3047 1100 
L 3047 0 
L 2419 0 
L 2419 1100 
L 313 1100 
L 313 1709 
L 2253 4666 
z
" transform="scale(0.015625)"/>
     </defs>
     <use xlink:href="#DejaVuSans-34"/>
    </g>
   </g>
   <g id="text_13">
    <!-- 5 -->
    <g transform="translate(9 109.8) scale(0.06 -0.06)">
     <defs>
      <path id="DejaVuSans-35" d="M 691 4666 
L 3169 4666 
L 3169 4134 
L 1269 4134 
L 1269 2991 
Q 1406 3038 1543 3061 
Q 1681 3084 1819 3084 
Q 2600 3084 3056 2656 
Q 3513 2228 3513 1497 
Q 3513 744 3044 326 
Q 2575 -91 1722 -91 
Q 1428 -91 1123 -41 
Q 819 9 494 109 
L 494 744 
Q 775 591 1075 516 
Q 1375 441 1709 441 
Q 2250 441 2565 725 
Q 2881 1009 2881 1497 
Q 2881 1984 2565 2268 
Q 2250 2553 1709 2553 
Q 1456 2553 1204 2497 
Q 953 2441 691 2322 
L 691 4666 
z
" transform="scale(0.015625)"/>
     </defs>
     <use xlink:href="#DejaVuSans-35"/>
    </g>
   </g>
   <g id="text_14">
    <!-- 6 -->
    <g transform="translate(9 73.8) scale(0.06 -0.06)">
     <defs>
      <path id="DejaVuSans-36" d="M 2113 2584 
Q 1688 2584 1439 2293 
Q 1191 2003 1191 1497 
Q 1191 994 1439 701 
Q 1688 409 2113 409 
Q 2538 409 2786 701 
Q 3034 994 3034 1497 
Q 3034 2003 2786 2293 
Q 2538 2584 2113 2584 
z
M 3366 4563 
L 3366 3988 
Q 3128 4100 2886 4159 
Q 2644 4219 2406 4219 
Q 1781 4219 1451 3797 
Q 1122 3375 1075 2522 
Q 1259 2794 1537 2939 
Q 1816 3084 2150 3084 
Q 2853 3084 3261 2657 
Q 3669 2231 3669 1497 
Q 3669 778 3244 343 
Q 2819 -91 2113 -91 
Q 1303 -91 875 529 
Q 447 1150 447 2328 
Q 447 3434 972 4092 
Q 1497 4750 2381 4750 
Q 2619 4750 2861 4703 
Q 3103 4656 3366 4563 
z
" transform="scale(0.015625)"/>
     </defs>
     <use xlink:href="#DejaVuSans-36"/>
    </g>
   </g>
   <g id="text_15">
    <!-- 7 -->
    <g transform="translate(9 37.8) scale(0.06 -0.06)">
     <defs>
      <path id="DejaVuSans-37" d="M 525 4666 
L 3525 4666 
L 3525 4397 
L 1831 0 
L 1172 0 
L 2766 4134 
L 525 4134 
L 525 4666 
z
" transform="scale(0.015625)"/>
     </defs>
     <use xlink:href="#DejaVuSans-37"/>
    </g>
   </g>
  </g>
 </g>
 <defs>
  <clipPath id="p634a012e45">
   <rect x="0" y="0" width="252" height="288"/>
  </clipPath>
 </defs>
</svg>
