<?xml version="1.0" encoding="utf-8" standalone="no"?>
<!DOCTYPE svg PUBLIC "-//W3C//DTD SVG 1.1//EN"
  "http://www.w3.org/Graphics/SVG/1.1/DTD/svg11.dtd">
<svg xmlns:xlink="http://www.w3.org/1999/xlink" width="1368pt" height="1368pt" viewBox="0 0 1368 1368" xmlns="http://www.w3.org/2000/svg" version="1.1">
 <metadata>
  <rdf:RDF xmlns:dc="http://purl.org/dc/elements/1.1/" xmlns:cc="http://creativecommons.org/ns#" xmlns:rdf="http://www.w3.org/1999/02/22-rdf-syntax-ns#">
   <cc:Work>
    <dc:type rdf:resource="http://purl.org/dc/dcmitype/StillImage"/>
    <dc:date>2025-01-20T10:23:13.621109</dc:date>
    <dc:format>image/svg+xml</dc:format>
    <dc:creator>
     <cc:Agent>
      <dc:title>Matplotlib v3.8.0, https://matplotlib.org/</dc:title>
     </cc:Agent>
    </dc:creator>
   </cc:Work>
  </rdf:RDF>
 </metadata>
 <defs>
  <style type="text/css">*{stroke-linejoin: round; stroke-linecap: butt}</style>
 </defs>
 <g id="figure_1">
  <g id="patch_1">
   <path d="M 0 1368 
L 1368 1368 
L 1368 0 
L 0 0 
z
" style="fill: #fffff2"/>
  </g>
  <g id="axes_1">
   <g id="line2d_1">
    <path d="M 36 1332 
L 36 36 
" clip-path="url(#p141e16c7c6)" style="fill: none; stroke: #000000; stroke-width: 1.5; stroke-linecap: square"/>
   </g>
   <g id="line2d_2">
    <path d="M 108 1332 
L 108 36 
" clip-path="url(#p141e16c7c6)" style="fill: none; stroke: #000000; stroke-width: 1.5; stroke-linecap: square"/>
   </g>
   <g id="line2d_3">
    <path d="M 180 1332 
L 180 36 
" clip-path="url(#p141e16c7c6)" style="fill: none; stroke: #000000; stroke-width: 1.5; stroke-linecap: square"/>
   </g>
   <g id="line2d_4">
    <path d="M 252 1332 
L 252 36 
" clip-path="url(#p141e16c7c6)" style="fill: none; stroke: #000000; stroke-width: 1.5; stroke-linecap: square"/>
   </g>
   <g id="line2d_5">
    <path d="M 324 1332 
L 324 36 
" clip-path="url(#p141e16c7c6)" style="fill: none; stroke: #000000; stroke-width: 1.5; stroke-linecap: square"/>
   </g>
   <g id="line2d_6">
    <path d="M 396 1332 
L 396 36 
" clip-path="url(#p141e16c7c6)" style="fill: none; stroke: #000000; stroke-width: 1.5; stroke-linecap: square"/>
   </g>
   <g id="line2d_7">
    <path d="M 468 1332 
L 468 36 
" clip-path="url(#p141e16c7c6)" style="fill: none; stroke: #000000; stroke-width: 1.5; stroke-linecap: square"/>
   </g>
   <g id="line2d_8">
    <path d="M 540 1332 
L 540 36 
" clip-path="url(#p141e16c7c6)" style="fill: none; stroke: #000000; stroke-width: 1.5; stroke-linecap: square"/>
   </g>
   <g id="line2d_9">
    <path d="M 612 1332 
L 612 36 
" clip-path="url(#p141e16c7c6)" style="fill: none; stroke: #000000; stroke-width: 1.5; stroke-linecap: square"/>
   </g>
   <g id="line2d_10">
    <path d="M 684 1332 
L 684 36 
" clip-path="url(#p141e16c7c6)" style="fill: none; stroke: #000000; stroke-width: 1.5; stroke-linecap: square"/>
   </g>
   <g id="line2d_11">
    <path d="M 756 1332 
L 756 36 
" clip-path="url(#p141e16c7c6)" style="fill: none; stroke: #000000; stroke-width: 1.5; stroke-linecap: square"/>
   </g>
   <g id="line2d_12">
    <path d="M 828 1332 
L 828 36 
" clip-path="url(#p141e16c7c6)" style="fill: none; stroke: #000000; stroke-width: 1.5; stroke-linecap: square"/>
   </g>
   <g id="line2d_13">
    <path d="M 900 1332 
L 900 36 
" clip-path="url(#p141e16c7c6)" style="fill: none; stroke: #000000; stroke-width: 1.5; stroke-linecap: square"/>
   </g>
   <g id="line2d_14">
    <path d="M 972 1332 
L 972 36 
" clip-path="url(#p141e16c7c6)" style="fill: none; stroke: #000000; stroke-width: 1.5; stroke-linecap: square"/>
   </g>
   <g id="line2d_15">
    <path d="M 1044 1332 
L 1044 36 
" clip-path="url(#p141e16c7c6)" style="fill: none; stroke: #000000; stroke-width: 1.5; stroke-linecap: square"/>
   </g>
   <g id="line2d_16">
    <path d="M 1116 1332 
L 1116 36 
" clip-path="url(#p141e16c7c6)" style="fill: none; stroke: #000000; stroke-width: 1.5; stroke-linecap: square"/>
   </g>
   <g id="line2d_17">
    <path d="M 1188 1332 
L 1188 36 
" clip-path="url(#p141e16c7c6)" style="fill: none; stroke: #000000; stroke-width: 1.5; stroke-linecap: square"/>
   </g>
   <g id="line2d_18">
    <path d="M 1260 1332 
L 1260 36 
" clip-path="url(#p141e16c7c6)" style="fill: none; stroke: #000000; stroke-width: 1.5; stroke-linecap: square"/>
   </g>
   <g id="line2d_19">
    <path d="M 1332 1332 
L 1332 36 
" clip-path="url(#p141e16c7c6)" style="fill: none; stroke: #000000; stroke-width: 1.5; stroke-linecap: square"/>
   </g>
   <g id="line2d_20">
    <path d="M 36 1332 
L 1332 1332 
" clip-path="url(#p141e16c7c6)" style="fill: none; stroke: #000000; stroke-width: 1.5; stroke-linecap: square"/>
   </g>
   <g id="line2d_21">
    <path d="M 36 1260 
L 1332 1260 
" clip-path="url(#p141e16c7c6)" style="fill: none; stroke: #000000; stroke-width: 1.5; stroke-linecap: square"/>
   </g>
   <g id="line2d_22">
    <path d="M 36 1188 
L 1332 1188 
" clip-path="url(#p141e16c7c6)" style="fill: none; stroke: #000000; stroke-width: 1.5; stroke-linecap: square"/>
   </g>
   <g id="line2d_23">
    <path d="M 36 1116 
L 1332 1116 
" clip-path="url(#p141e16c7c6)" style="fill: none; stroke: #000000; stroke-width: 1.5; stroke-linecap: square"/>
   </g>
   <g id="line2d_24">
    <path d="M 36 1044 
L 1332 1044 
" clip-path="url(#p141e16c7c6)" style="fill: none; stroke: #000000; stroke-width: 1.5; stroke-linecap: square"/>
   </g>
   <g id="line2d_25">
    <path d="M 36 972 
L 1332 972 
" clip-path="url(#p141e16c7c6)" style="fill: none; stroke: #000000; stroke-width: 1.5; stroke-linecap: square"/>
   </g>
   <g id="line2d_26">
    <path d="M 36 900 
L 1332 900 
" clip-path="url(#p141e16c7c6)" style="fill: none; stroke: #000000; stroke-width: 1.5; stroke-linecap: square"/>
   </g>
   <g id="line2d_27">
    <path d="M 36 828 
L 1332 828 
" clip-path="url(#p141e16c7c6)" style="fill: none; stroke: #000000; stroke-width: 1.5; stroke-linecap: square"/>
   </g>
   <g id="line2d_28">
    <path d="M 36 756 
L 1332 756 
" clip-path="url(#p141e16c7c6)" style="fill: none; stroke: #000000; stroke-width: 1.5; stroke-linecap: square"/>
   </g>
   <g id="line2d_29">
    <path d="M 36 684 
L 1332 684 
" clip-path="url(#p141e16c7c6)" style="fill: none; stroke: #000000; stroke-width: 1.5; stroke-linecap: square"/>
   </g>
   <g id="line2d_30">
    <path d="M 36 612 
L 1332 612 
" clip-path="url(#p141e16c7c6)" style="fill: none; stroke: #000000; stroke-width: 1.5; stroke-linecap: square"/>
   </g>
   <g id="line2d_31">
    <path d="M 36 540 
L 1332 540 
" clip-path="url(#p141e16c7c6)" style="fill: none; stroke: #000000; stroke-width: 1.5; stroke-linecap: square"/>
   </g>
   <g id="line2d_32">
    <path d="M 36 468 
L 1332 468 
" clip-path="url(#p141e16c7c6)" style="fill: none; stroke: #000000; stroke-width: 1.5; stroke-linecap: square"/>
   </g>
   <g id="line2d_33">
    <path d="M 36 396 
L 1332 396 
" clip-path="url(#p141e16c7c6)" style="fill: none; stroke: #000000; stroke-width: 1.5; stroke-linecap: square"/>
   </g>
   <g id="line2d_34">
    <path d="M 36 324 
L 1332 324 
" clip-path="url(#p141e16c7c6)" style="fill: none; stroke: #000000; stroke-width: 1.5; stroke-linecap: square"/>
   </g>
   <g id="line2d_35">
    <path d="M 36 252 
L 1332 252 
" clip-path="url(#p141e16c7c6)" style="fill: none; stroke: #000000; stroke-width: 1.5; stroke-linecap: square"/>
   </g>
   <g id="line2d_36">
    <path d="M 36 180 
L 1332 180 
" clip-path="url(#p141e16c7c6)" style="fill: none; stroke: #000000; stroke-width: 1.5; stroke-linecap: square"/>
   </g>
   <g id="line2d_37">
    <path d="M 36 108 
L 1332 108 
" clip-path="url(#p141e16c7c6)" style="fill: none; stroke: #000000; stroke-width: 1.5; stroke-linecap: square"/>
   </g>
   <g id="line2d_38">
    <path d="M 36 36 
L 1332 36 
" clip-path="url(#p141e16c7c6)" style="fill: none; stroke: #000000; stroke-width: 1.5; stroke-linecap: square"/>
   </g>
   <g id="line2d_39">
    <defs>
     <path id="ma20e3989cf" d="M 0 21 
C 5.569265 21 10.911177 18.787308 14.849242 14.849242 
C 18.787308 10.911177 21 5.569265 21 0 
C 21 -5.569265 18.787308 -10.911177 14.849242 -14.849242 
C 10.911177 -18.787308 5.569265 -21 0 -21 
C -5.569265 -21 -10.911177 -18.787308 -14.849242 -14.849242 
C -18.787308 -10.911177 -21 -5.569265 -21 0 
C -21 5.569265 -18.787308 10.911177 -14.849242 14.849242 
C -10.911177 18.787308 -5.569265 21 0 21 
z
" style="stroke: #4c4c4c; stroke-width: 2"/>
    </defs>
    <g clip-path="url(#p141e16c7c6)">
     <use xlink:href="#ma20e3989cf" x="108" y="1116" style="stroke: #4c4c4c; stroke-width: 2"/>
    </g>
   </g>
   <g id="line2d_40">
    <g clip-path="url(#p141e16c7c6)">
     <use xlink:href="#ma20e3989cf" x="180" y="1116" style="stroke: #4c4c4c; stroke-width: 2"/>
    </g>
   </g>
   <g id="line2d_41">
    <g clip-path="url(#p141e16c7c6)">
     <use xlink:href="#ma20e3989cf" x="108" y="1188" style="stroke: #4c4c4c; stroke-width: 2"/>
    </g>
   </g>
   <g id="line2d_42">
    <g clip-path="url(#p141e16c7c6)">
     <use xlink:href="#ma20e3989cf" x="108" y="1260" style="stroke: #4c4c4c; stroke-width: 2"/>
    </g>
   </g>
   <g id="line2d_43">
    <g clip-path="url(#p141e16c7c6)">
     <use xlink:href="#ma20e3989cf" x="180" y="1260" style="stroke: #4c4c4c; stroke-width: 2"/>
    </g>
   </g>
   <g id="line2d_44">
    <defs>
     <path id="m19e766446b" d="M 0 21 
C 5.569265 21 10.911177 18.787308 14.849242 14.849242 
C 18.787308 10.911177 21 5.569265 21 0 
C 21 -5.569265 18.787308 -10.911177 14.849242 -14.849242 
C 10.911177 -18.787308 5.569265 -21 0 -21 
C -5.569265 -21 -10.911177 -18.787308 -14.849242 -14.849242 
C -18.787308 -10.911177 -21 -5.569265 -21 0 
C -21 5.569265 -18.787308 10.911177 -14.849242 14.849242 
C -10.911177 18.787308 -5.569265 21 0 21 
z
" style="stroke: #000000; stroke-width: 2"/>
    </defs>
    <g clip-path="url(#p141e16c7c6)">
     <use xlink:href="#m19e766446b" x="180" y="1188" style="fill: #ffffff; stroke: #000000; stroke-width: 2"/>
    </g>
   </g>
   <g id="line2d_45">
    <g clip-path="url(#p141e16c7c6)">
     <use xlink:href="#m19e766446b" x="36" y="1332" style="fill: #ffffff; stroke: #000000; stroke-width: 2"/>
    </g>
   </g>
   <g id="line2d_46">
    <g clip-path="url(#p141e16c7c6)">
     <use xlink:href="#m19e766446b" x="108" y="1332" style="fill: #ffffff; stroke: #000000; stroke-width: 2"/>
    </g>
   </g>
   <g id="line2d_47">
    <defs>
     <path id="m92c85949ed" d="M 0 21 
C 5.569265 21 10.911177 18.787308 14.849242 14.849242 
C 18.787308 10.911177 21 5.569265 21 0 
C 21 -5.569265 18.787308 -10.911177 14.849242 -14.849242 
C 10.911177 -18.787308 5.569265 -21 0 -21 
C -5.569265 -21 -10.911177 -18.787308 -14.849242 -14.849242 
C -18.787308 -10.911177 -21 -5.569265 -21 0 
C -21 5.569265 -18.787308 10.911177 -14.849242 14.849242 
C -10.911177 18.787308 -5.569265 21 0 21 
z
" style="stroke: #000000; stroke-width: 2"/>
    </defs>
    <g clip-path="url(#p141e16c7c6)">
     <use xlink:href="#m92c85949ed" x="108" y="1044" style="fill: #ff0000; stroke: #000000; stroke-width: 2"/>
    </g>
   </g>
   <g id="line2d_48">
    <defs>
     <path id="m95a4566398" d="M 0 21 
C 5.569265 21 10.911177 18.787308 14.849242 14.849242 
C 18.787308 10.911177 21 5.569265 21 0 
C 21 -5.569265 18.787308 -10.911177 14.849242 -14.849242 
C 10.911177 -18.787308 5.569265 -21 0 -21 
C -5.569265 -21 -10.911177 -18.787308 -14.849242 -14.849242 
C -18.787308 -10.911177 -21 -5.569265 -21 0 
C -21 5.569265 -18.787308 10.911177 -14.849242 14.849242 
C -10.911177 18.787308 -5.569265 21 0 21 
z
" style="stroke: #000000; stroke-width: 2"/>
    </defs>
    <g clip-path="url(#p141e16c7c6)">
     <use xlink:href="#m95a4566398" x="252" y="1332" style="fill: #ffff00; stroke: #000000; stroke-width: 2"/>
    </g>
   </g>
   <g id="line2d_49">
    <defs>
     <path id="mc8ab251e68" d="M -6 6 
L 6 6 
L 6 -6 
L -6 -6 
z
" style="stroke: #ffffff; stroke-linejoin: miter"/>
    </defs>
    <g clip-path="url(#p141e16c7c6)">
     <use xlink:href="#mc8ab251e68" x="108.072" y="1260" style="fill: #ffffff; stroke: #ffffff; stroke-linejoin: miter"/>
    </g>
   </g>
   <g id="line2d_50">
    <defs>
     <path id="m1cea3a45c5" d="M 0 14 
C 3.712843 14 7.274118 12.524872 9.899495 9.899495 
C 12.524872 7.274118 14 3.712843 14 0 
C 14 -3.712843 12.524872 -7.274118 9.899495 -9.899495 
C 7.274118 -12.524872 3.712843 -14 0 -14 
C -3.712843 -14 -7.274118 -12.524872 -9.899495 -9.899495 
C -12.524872 -7.274118 -14 -3.712843 -14 0 
C -14 3.712843 -12.524872 7.274118 -9.899495 9.899495 
C -7.274118 12.524872 -3.712843 14 0 14 
z
" style="stroke: #808080"/>
    </defs>
    <g clip-path="url(#p141e16c7c6)">
     <use xlink:href="#m1cea3a45c5" x="180.072" y="1260" style="fill: #808080; stroke: #808080"/>
    </g>
   </g>
   <g id="line2d_51">
    <defs>
     <path id="mf3c1f71836" d="M -6 6 
L 6 6 
L 6 -6 
L -6 -6 
z
" style="stroke: #000000; stroke-linejoin: miter"/>
    </defs>
    <g clip-path="url(#p141e16c7c6)">
     <use xlink:href="#mf3c1f71836" x="36.072" y="1332" style="stroke: #000000; stroke-linejoin: miter"/>
    </g>
   </g>
   <g id="line2d_52">
    <defs>
     <path id="m553b8d4c94" d="M 0 14 
C 3.712843 14 7.274118 12.524872 9.899495 9.899495 
C 12.524872 7.274118 14 3.712843 14 0 
C 14 -3.712843 12.524872 -7.274118 9.899495 -9.899495 
C 7.274118 -12.524872 3.712843 -14 0 -14 
C -3.712843 -14 -7.274118 -12.524872 -9.899495 -9.899495 
C -12.524872 -7.274118 -14 -3.712843 -14 0 
C -14 3.712843 -12.524872 7.274118 -9.899495 9.899495 
C -7.274118 12.524872 -3.712843 14 0 14 
z
" style="stroke: #d3d3d3"/>
    </defs>
    <g clip-path="url(#p141e16c7c6)">
     <use xlink:href="#m553b8d4c94" x="108.072" y="1332" style="fill: #d3d3d3; stroke: #d3d3d3"/>
    </g>
   </g>
   <g id="text_1">
    <!-- 1 -->
    <g style="fill: #ffffff" transform="translate(100.365 1122.6225) scale(0.24 -0.24)">
     <defs>
      <path id="DejaVuSans-31" d="M 794 531 
L 1825 531 
L 1825 4091 
L 703 3866 
L 703 4441 
L 1819 4666 
L 2450 4666 
L 2450 531 
L 3481 531 
L 3481 0 
L 794 0 
L 794 531 
z
" transform="scale(0.015625)"/>
     </defs>
     <use xlink:href="#DejaVuSans-31"/>
    </g>
   </g>
   <g id="text_2">
    <!-- 2 -->
    <g style="fill: #ffffff" transform="translate(100.365 1194.6225) scale(0.24 -0.24)">
     <defs>
      <path id="DejaVuSans-32" d="M 1228 531 
L 3431 531 
L 3431 0 
L 469 0 
L 469 531 
Q 828 903 1448 1529 
Q 2069 2156 2228 2338 
Q 2531 2678 2651 2914 
Q 2772 3150 2772 3378 
Q 2772 3750 2511 3984 
Q 2250 4219 1831 4219 
Q 1534 4219 1204 4116 
Q 875 4013 500 3803 
L 500 4441 
Q 881 4594 1212 4672 
Q 1544 4750 1819 4750 
Q 2544 4750 2975 4387 
Q 3406 4025 3406 3419 
Q 3406 3131 3298 2873 
Q 3191 2616 2906 2266 
Q 2828 2175 2409 1742 
Q 1991 1309 1228 531 
z
" transform="scale(0.015625)"/>
     </defs>
     <use xlink:href="#DejaVuSans-32"/>
    </g>
   </g>
   <g id="text_3">
    <!-- 3 -->
    <g transform="translate(172.365 1194.6225) scale(0.24 -0.24)">
     <defs>
      <path id="DejaVuSans-33" d="M 2597 2516 
Q 3050 2419 3304 2112 
Q 3559 1806 3559 1356 
Q 3559 666 3084 287 
Q 2609 -91 1734 -91 
Q 1441 -91 1130 -33 
Q 819 25 488 141 
L 488 750 
Q 750 597 1062 519 
Q 1375 441 1716 441 
Q 2309 441 2620 675 
Q 2931 909 2931 1356 
Q 2931 1769 2642 2001 
Q 2353 2234 1838 2234 
L 1294 2234 
L 1294 2753 
L 1863 2753 
Q 2328 2753 2575 2939 
Q 2822 3125 2822 3475 
Q 2822 3834 2567 4026 
Q 2313 4219 1838 4219 
Q 1578 4219 1281 4162 
Q 984 4106 628 3988 
L 628 4550 
Q 988 4650 1302 4700 
Q 1616 4750 1894 4750 
Q 2613 4750 3031 4423 
Q 3450 4097 3450 3541 
Q 3450 3153 3228 2886 
Q 3006 2619 2597 2516 
z
" transform="scale(0.015625)"/>
     </defs>
     <use xlink:href="#DejaVuSans-33"/>
    </g>
   </g>
   <g id="text_4">
    <!-- a -->
    <g style="fill: #ffffff" transform="translate(172.64625 1266.6225) scale(0.24 -0.24)">
     <defs>
      <path id="DejaVuSans-61" d="M 2194 1759 
Q 1497 1759 1228 1600 
Q 959 1441 959 1056 
Q 959 750 1161 570 
Q 1363 391 1709 391 
Q 2188 391 2477 730 
Q 2766 1069 2766 1631 
L 2766 1759 
L 2194 1759 
z
M 3341 1997 
L 3341 0 
L 2766 0 
L 2766 531 
Q 2569 213 2275 61 
Q 1981 -91 1556 -91 
Q 1019 -91 701 211 
Q 384 513 384 1019 
Q 384 1609 779 1909 
Q 1175 2209 1959 2209 
L 2766 2209 
L 2766 2266 
Q 2766 2663 2505 2880 
Q 2244 3097 1772 3097 
Q 1472 3097 1187 3025 
Q 903 2953 641 2809 
L 641 3341 
Q 956 3463 1253 3523 
Q 1550 3584 1831 3584 
Q 2591 3584 2966 3190 
Q 3341 2797 3341 1997 
z
" transform="scale(0.015625)"/>
     </defs>
     <use xlink:href="#DejaVuSans-61"/>
    </g>
   </g>
   <g id="text_5">
    <!-- 3 -->
    <g transform="translate(100.365 1338.6225) scale(0.24 -0.24)">
     <use xlink:href="#DejaVuSans-33"/>
    </g>
   </g>
   <g id="text_6">
    <!-- 4 -->
    <g transform="translate(244.365 1338.6225) scale(0.24 -0.24)">
     <defs>
      <path id="DejaVuSans-34" d="M 2419 4116 
L 825 1625 
L 2419 1625 
L 2419 4116 
z
M 2253 4666 
L 3047 4666 
L 3047 1625 
L 3713 1625 
L 3713 1100 
L 3047 1100 
L 3047 0 
L 2419 0 
L 2419 1100 
L 313 1100 
L 313 1709 
L 2253 4666 
z
" transform="scale(0.015625)"/>
     </defs>
     <use xlink:href="#DejaVuSans-34"/>
    </g>
   </g>
   <g id="text_7">
    <!-- ♔ -->
    <g style="fill: #ffffff" transform="translate(169.24125 1122.6225) scale(0.24 -0.24)">
     <defs>
      <path id="DejaVuSans-2654" d="M 2650 3022 
Q 2653 3031 2659 3041 
Q 2550 3175 2391 3263 
Q 2159 3391 1915 3391 
Q 1672 3391 1442 3264 
Q 1213 3138 1081 2905 
Q 950 2672 950 2422 
Q 950 2169 1078 1941 
Q 1206 1713 1438 1588 
Q 1506 1544 1578 1519 
L 2650 1519 
L 2650 3022 
z
M 3091 1519 
L 4159 1519 
Q 4234 1544 4303 1588 
Q 4534 1713 4661 1941 
Q 4788 2169 4788 2422 
Q 4788 2672 4658 2905 
Q 4528 3138 4298 3264 
Q 4069 3391 3822 3391 
Q 3581 3391 3350 3263 
Q 3188 3175 3081 3041 
Q 3088 3031 3091 3022 
L 3091 1519 
z
M 1688 1197 
L 1688 250 
L 4053 250 
L 4053 1197 
L 1688 1197 
z
M 1431 0 
L 1431 1197 
Q 1300 1238 1181 1306 
Q 966 1475 797 1781 
Q 628 2088 628 2422 
Q 628 2759 800 3067 
Q 972 3375 1281 3540 
Q 1591 3706 1916 3706 
Q 2166 3706 2403 3609 
L 2403 3616 
Q 2403 3728 2459 3826 
Q 2516 3925 2616 3981 
Q 2656 4003 2706 4016 
L 2706 4184 
L 2369 4184 
L 2369 4403 
L 2706 4403 
L 2706 4675 
L 3034 4675 
L 3034 4403 
L 3372 4403 
L 3372 4184 
L 3034 4184 
L 3034 4016 
Q 3084 4003 3125 3981 
Q 3222 3925 3280 3826 
Q 3338 3728 3338 3616 
L 3338 3609 
Q 3575 3706 3822 3706 
Q 4147 3706 4456 3540 
Q 4766 3375 4937 3067 
Q 5109 2759 5109 2422 
Q 5109 2088 4940 1781 
Q 4772 1475 4559 1306 
Q 4438 1238 4309 1197 
L 4309 0 
L 1431 0 
z
M 2578 3591 
Q 2578 3513 2617 3445 
Q 2656 3378 2726 3339 
Q 2797 3300 2869 3300 
Q 2944 3300 3014 3339 
Q 3084 3378 3121 3445 
Q 3159 3513 3159 3591 
Q 3159 3666 3121 3736 
Q 3084 3806 3014 3842 
Q 2944 3878 2869 3878 
Q 2797 3878 2726 3842 
Q 2656 3806 2617 3736 
Q 2578 3666 2578 3591 
z
" transform="scale(0.015625)"/>
     </defs>
     <use xlink:href="#DejaVuSans-2654"/>
    </g>
   </g>
   <g id="text_8">
    <!-- A -->
    <g transform="translate(32.4 1368) scale(0.12 -0.12)">
     <defs>
      <path id="DejaVuSans-41" d="M 2188 4044 
L 1331 1722 
L 3047 1722 
L 2188 4044 
z
M 1831 4666 
L 2547 4666 
L 4325 0 
L 3669 0 
L 3244 1197 
L 1141 1197 
L 716 0 
L 50 0 
L 1831 4666 
z
" transform="scale(0.015625)"/>
     </defs>
     <use xlink:href="#DejaVuSans-41"/>
    </g>
   </g>
   <g id="text_9">
    <!-- B -->
    <g transform="translate(104.4 1368) scale(0.12 -0.12)">
     <defs>
      <path id="DejaVuSans-42" d="M 1259 2228 
L 1259 519 
L 2272 519 
Q 2781 519 3026 730 
Q 3272 941 3272 1375 
Q 3272 1813 3026 2020 
Q 2781 2228 2272 2228 
L 1259 2228 
z
M 1259 4147 
L 1259 2741 
L 2194 2741 
Q 2656 2741 2882 2914 
Q 3109 3088 3109 3444 
Q 3109 3797 2882 3972 
Q 2656 4147 2194 4147 
L 1259 4147 
z
M 628 4666 
L 2241 4666 
Q 2963 4666 3353 4366 
Q 3744 4066 3744 3513 
Q 3744 3084 3544 2831 
Q 3344 2578 2956 2516 
Q 3422 2416 3680 2098 
Q 3938 1781 3938 1306 
Q 3938 681 3513 340 
Q 3088 0 2303 0 
L 628 0 
L 628 4666 
z
" transform="scale(0.015625)"/>
     </defs>
     <use xlink:href="#DejaVuSans-42"/>
    </g>
   </g>
   <g id="text_10">
    <!-- C -->
    <g transform="translate(176.4 1368) scale(0.12 -0.12)">
     <defs>
      <path id="DejaVuSans-43" d="M 4122 4306 
L 4122 3641 
Q 3803 3938 3442 4084 
Q 3081 4231 2675 4231 
Q 1875 4231 1450 3742 
Q 1025 3253 1025 2328 
Q 1025 1406 1450 917 
Q 1875 428 2675 428 
Q 3081 428 3442 575 
Q 3803 722 4122 1019 
L 4122 359 
Q 3791 134 3420 21 
Q 3050 -91 2638 -91 
Q 1578 -91 968 557 
Q 359 1206 359 2328 
Q 359 3453 968 4101 
Q 1578 4750 2638 4750 
Q 3056 4750 3426 4639 
Q 3797 4528 4122 4306 
z
" transform="scale(0.015625)"/>
     </defs>
     <use xlink:href="#DejaVuSans-43"/>
    </g>
   </g>
   <g id="text_11">
    <!-- D -->
    <g transform="translate(248.4 1368) scale(0.12 -0.12)">
     <defs>
      <path id="DejaVuSans-44" d="M 1259 4147 
L 1259 519 
L 2022 519 
Q 2988 519 3436 956 
Q 3884 1394 3884 2338 
Q 3884 3275 3436 3711 
Q 2988 4147 2022 4147 
L 1259 4147 
z
M 628 4666 
L 1925 4666 
Q 3281 4666 3915 4102 
Q 4550 3538 4550 2338 
Q 4550 1131 3912 565 
Q 3275 0 1925 0 
L 628 0 
L 628 4666 
z
" transform="scale(0.015625)"/>
     </defs>
     <use xlink:href="#DejaVuSans-44"/>
    </g>
   </g>
   <g id="text_12">
    <!-- E -->
    <g transform="translate(320.4 1368) scale(0.12 -0.12)">
     <defs>
      <path id="DejaVuSans-45" d="M 628 4666 
L 3578 4666 
L 3578 4134 
L 1259 4134 
L 1259 2753 
L 3481 2753 
L 3481 2222 
L 1259 2222 
L 1259 531 
L 3634 531 
L 3634 0 
L 628 0 
L 628 4666 
z
" transform="scale(0.015625)"/>
     </defs>
     <use xlink:href="#DejaVuSans-45"/>
    </g>
   </g>
   <g id="text_13">
    <!-- F -->
    <g transform="translate(392.4 1368) scale(0.12 -0.12)">
     <defs>
      <path id="DejaVuSans-46" d="M 628 4666 
L 3309 4666 
L 3309 4134 
L 1259 4134 
L 1259 2759 
L 3109 2759 
L 3109 2228 
L 1259 2228 
L 1259 0 
L 628 0 
L 628 4666 
z
" transform="scale(0.015625)"/>
     </defs>
     <use xlink:href="#DejaVuSans-46"/>
    </g>
   </g>
   <g id="text_14">
    <!-- G -->
    <g transform="translate(464.4 1368) scale(0.12 -0.12)">
     <defs>
      <path id="DejaVuSans-47" d="M 3809 666 
L 3809 1919 
L 2778 1919 
L 2778 2438 
L 4434 2438 
L 4434 434 
Q 4069 175 3628 42 
Q 3188 -91 2688 -91 
Q 1594 -91 976 548 
Q 359 1188 359 2328 
Q 359 3472 976 4111 
Q 1594 4750 2688 4750 
Q 3144 4750 3555 4637 
Q 3966 4525 4313 4306 
L 4313 3634 
Q 3963 3931 3569 4081 
Q 3175 4231 2741 4231 
Q 1884 4231 1454 3753 
Q 1025 3275 1025 2328 
Q 1025 1384 1454 906 
Q 1884 428 2741 428 
Q 3075 428 3337 486 
Q 3600 544 3809 666 
z
" transform="scale(0.015625)"/>
     </defs>
     <use xlink:href="#DejaVuSans-47"/>
    </g>
   </g>
   <g id="text_15">
    <!-- H -->
    <g transform="translate(536.4 1368) scale(0.12 -0.12)">
     <defs>
      <path id="DejaVuSans-48" d="M 628 4666 
L 1259 4666 
L 1259 2753 
L 3553 2753 
L 3553 4666 
L 4184 4666 
L 4184 0 
L 3553 0 
L 3553 2222 
L 1259 2222 
L 1259 0 
L 628 0 
L 628 4666 
z
" transform="scale(0.015625)"/>
     </defs>
     <use xlink:href="#DejaVuSans-48"/>
    </g>
   </g>
   <g id="text_16">
    <!-- I -->
    <g transform="translate(608.4 1368) scale(0.12 -0.12)">
     <defs>
      <path id="DejaVuSans-49" d="M 628 4666 
L 1259 4666 
L 1259 0 
L 628 0 
L 628 4666 
z
" transform="scale(0.015625)"/>
     </defs>
     <use xlink:href="#DejaVuSans-49"/>
    </g>
   </g>
   <g id="text_17">
    <!-- J -->
    <g transform="translate(680.4 1368) scale(0.12 -0.12)">
     <defs>
      <path id="DejaVuSans-4a" d="M 628 4666 
L 1259 4666 
L 1259 325 
Q 1259 -519 939 -900 
Q 619 -1281 -91 -1281 
L -331 -1281 
L -331 -750 
L -134 -750 
Q 284 -750 456 -515 
Q 628 -281 628 325 
L 628 4666 
z
" transform="scale(0.015625)"/>
     </defs>
     <use xlink:href="#DejaVuSans-4a"/>
    </g>
   </g>
   <g id="text_18">
    <!-- K -->
    <g transform="translate(752.4 1368) scale(0.12 -0.12)">
     <defs>
      <path id="DejaVuSans-4b" d="M 628 4666 
L 1259 4666 
L 1259 2694 
L 3353 4666 
L 4166 4666 
L 1850 2491 
L 4331 0 
L 3500 0 
L 1259 2247 
L 1259 0 
L 628 0 
L 628 4666 
z
" transform="scale(0.015625)"/>
     </defs>
     <use xlink:href="#DejaVuSans-4b"/>
    </g>
   </g>
   <g id="text_19">
    <!-- L -->
    <g transform="translate(824.4 1368) scale(0.12 -0.12)">
     <defs>
      <path id="DejaVuSans-4c" d="M 628 4666 
L 1259 4666 
L 1259 531 
L 3531 531 
L 3531 0 
L 628 0 
L 628 4666 
z
" transform="scale(0.015625)"/>
     </defs>
     <use xlink:href="#DejaVuSans-4c"/>
    </g>
   </g>
   <g id="text_20">
    <!-- M -->
    <g transform="translate(896.4 1368) scale(0.12 -0.12)">
     <defs>
      <path id="DejaVuSans-4d" d="M 628 4666 
L 1569 4666 
L 2759 1491 
L 3956 4666 
L 4897 4666 
L 4897 0 
L 4281 0 
L 4281 4097 
L 3078 897 
L 2444 897 
L 1241 4097 
L 1241 0 
L 628 0 
L 628 4666 
z
" transform="scale(0.015625)"/>
     </defs>
     <use xlink:href="#DejaVuSans-4d"/>
    </g>
   </g>
   <g id="text_21">
    <!-- N -->
    <g transform="translate(968.4 1368) scale(0.12 -0.12)">
     <defs>
      <path id="DejaVuSans-4e" d="M 628 4666 
L 1478 4666 
L 3547 763 
L 3547 4666 
L 4159 4666 
L 4159 0 
L 3309 0 
L 1241 3903 
L 1241 0 
L 628 0 
L 628 4666 
z
" transform="scale(0.015625)"/>
     </defs>
     <use xlink:href="#DejaVuSans-4e"/>
    </g>
   </g>
   <g id="text_22">
    <!-- O -->
    <g transform="translate(1040.4 1368) scale(0.12 -0.12)">
     <defs>
      <path id="DejaVuSans-4f" d="M 2522 4238 
Q 1834 4238 1429 3725 
Q 1025 3213 1025 2328 
Q 1025 1447 1429 934 
Q 1834 422 2522 422 
Q 3209 422 3611 934 
Q 4013 1447 4013 2328 
Q 4013 3213 3611 3725 
Q 3209 4238 2522 4238 
z
M 2522 4750 
Q 3503 4750 4090 4092 
Q 4678 3434 4678 2328 
Q 4678 1225 4090 567 
Q 3503 -91 2522 -91 
Q 1538 -91 948 565 
Q 359 1222 359 2328 
Q 359 3434 948 4092 
Q 1538 4750 2522 4750 
z
" transform="scale(0.015625)"/>
     </defs>
     <use xlink:href="#DejaVuSans-4f"/>
    </g>
   </g>
   <g id="text_23">
    <!-- P -->
    <g transform="translate(1112.4 1368) scale(0.12 -0.12)">
     <defs>
      <path id="DejaVuSans-50" d="M 1259 4147 
L 1259 2394 
L 2053 2394 
Q 2494 2394 2734 2622 
Q 2975 2850 2975 3272 
Q 2975 3691 2734 3919 
Q 2494 4147 2053 4147 
L 1259 4147 
z
M 628 4666 
L 2053 4666 
Q 2838 4666 3239 4311 
Q 3641 3956 3641 3272 
Q 3641 2581 3239 2228 
Q 2838 1875 2053 1875 
L 1259 1875 
L 1259 0 
L 628 0 
L 628 4666 
z
" transform="scale(0.015625)"/>
     </defs>
     <use xlink:href="#DejaVuSans-50"/>
    </g>
   </g>
   <g id="text_24">
    <!-- Q -->
    <g transform="translate(1184.4 1368) scale(0.12 -0.12)">
     <defs>
      <path id="DejaVuSans-51" d="M 2522 4238 
Q 1834 4238 1429 3725 
Q 1025 3213 1025 2328 
Q 1025 1447 1429 934 
Q 1834 422 2522 422 
Q 3209 422 3611 934 
Q 4013 1447 4013 2328 
Q 4013 3213 3611 3725 
Q 3209 4238 2522 4238 
z
M 3406 84 
L 4238 -825 
L 3475 -825 
L 2784 -78 
Q 2681 -84 2626 -87 
Q 2572 -91 2522 -91 
Q 1538 -91 948 567 
Q 359 1225 359 2328 
Q 359 3434 948 4092 
Q 1538 4750 2522 4750 
Q 3503 4750 4090 4092 
Q 4678 3434 4678 2328 
Q 4678 1516 4351 937 
Q 4025 359 3406 84 
z
" transform="scale(0.015625)"/>
     </defs>
     <use xlink:href="#DejaVuSans-51"/>
    </g>
   </g>
   <g id="text_25">
    <!-- R -->
    <g transform="translate(1256.4 1368) scale(0.12 -0.12)">
     <defs>
      <path id="DejaVuSans-52" d="M 2841 2188 
Q 3044 2119 3236 1894 
Q 3428 1669 3622 1275 
L 4263 0 
L 3584 0 
L 2988 1197 
Q 2756 1666 2539 1819 
Q 2322 1972 1947 1972 
L 1259 1972 
L 1259 0 
L 628 0 
L 628 4666 
L 2053 4666 
Q 2853 4666 3247 4331 
Q 3641 3997 3641 3322 
Q 3641 2881 3436 2590 
Q 3231 2300 2841 2188 
z
M 1259 4147 
L 1259 2491 
L 2053 2491 
Q 2509 2491 2742 2702 
Q 2975 2913 2975 3322 
Q 2975 3731 2742 3939 
Q 2509 4147 2053 4147 
L 1259 4147 
z
" transform="scale(0.015625)"/>
     </defs>
     <use xlink:href="#DejaVuSans-52"/>
    </g>
   </g>
   <g id="text_26">
    <!-- S -->
    <g transform="translate(1328.4 1368) scale(0.12 -0.12)">
     <defs>
      <path id="DejaVuSans-53" d="M 3425 4513 
L 3425 3897 
Q 3066 4069 2747 4153 
Q 2428 4238 2131 4238 
Q 1616 4238 1336 4038 
Q 1056 3838 1056 3469 
Q 1056 3159 1242 3001 
Q 1428 2844 1947 2747 
L 2328 2669 
Q 3034 2534 3370 2195 
Q 3706 1856 3706 1288 
Q 3706 609 3251 259 
Q 2797 -91 1919 -91 
Q 1588 -91 1214 -16 
Q 841 59 441 206 
L 441 856 
Q 825 641 1194 531 
Q 1563 422 1919 422 
Q 2459 422 2753 634 
Q 3047 847 3047 1241 
Q 3047 1584 2836 1778 
Q 2625 1972 2144 2069 
L 1759 2144 
Q 1053 2284 737 2584 
Q 422 2884 422 3419 
Q 422 4038 858 4394 
Q 1294 4750 2059 4750 
Q 2388 4750 2728 4690 
Q 3069 4631 3425 4513 
z
" transform="scale(0.015625)"/>
     </defs>
     <use xlink:href="#DejaVuSans-53"/>
    </g>
   </g>
   <g id="text_27">
    <!-- 1 -->
    <g transform="translate(0 1335.6) scale(0.12 -0.12)">
     <use xlink:href="#DejaVuSans-31"/>
    </g>
   </g>
   <g id="text_28">
    <!-- 2 -->
    <g transform="translate(0 1263.6) scale(0.12 -0.12)">
     <use xlink:href="#DejaVuSans-32"/>
    </g>
   </g>
   <g id="text_29">
    <!-- 3 -->
    <g transform="translate(0 1191.6) scale(0.12 -0.12)">
     <use xlink:href="#DejaVuSans-33"/>
    </g>
   </g>
   <g id="text_30">
    <!-- 4 -->
    <g transform="translate(0 1119.6) scale(0.12 -0.12)">
     <use xlink:href="#DejaVuSans-34"/>
    </g>
   </g>
   <g id="text_31">
    <!-- 5 -->
    <g transform="translate(0 1047.6) scale(0.12 -0.12)">
     <defs>
      <path id="DejaVuSans-35" d="M 691 4666 
L 3169 4666 
L 3169 4134 
L 1269 4134 
L 1269 2991 
Q 1406 3038 1543 3061 
Q 1681 3084 1819 3084 
Q 2600 3084 3056 2656 
Q 3513 2228 3513 1497 
Q 3513 744 3044 326 
Q 2575 -91 1722 -91 
Q 1428 -91 1123 -41 
Q 819 9 494 109 
L 494 744 
Q 775 591 1075 516 
Q 1375 441 1709 441 
Q 2250 441 2565 725 
Q 2881 1009 2881 1497 
Q 2881 1984 2565 2268 
Q 2250 2553 1709 2553 
Q 1456 2553 1204 2497 
Q 953 2441 691 2322 
L 691 4666 
z
" transform="scale(0.015625)"/>
     </defs>
     <use xlink:href="#DejaVuSans-35"/>
    </g>
   </g>
   <g id="text_32">
    <!-- 6 -->
    <g transform="translate(0 975.6) scale(0.12 -0.12)">
     <defs>
      <path id="DejaVuSans-36" d="M 2113 2584 
Q 1688 2584 1439 2293 
Q 1191 2003 1191 1497 
Q 1191 994 1439 701 
Q 1688 409 2113 409 
Q 2538 409 2786 701 
Q 3034 994 3034 1497 
Q 3034 2003 2786 2293 
Q 2538 2584 2113 2584 
z
M 3366 4563 
L 3366 3988 
Q 3128 4100 2886 4159 
Q 2644 4219 2406 4219 
Q 1781 4219 1451 3797 
Q 1122 3375 1075 2522 
Q 1259 2794 1537 2939 
Q 1816 3084 2150 3084 
Q 2853 3084 3261 2657 
Q 3669 2231 3669 1497 
Q 3669 778 3244 343 
Q 2819 -91 2113 -91 
Q 1303 -91 875 529 
Q 447 1150 447 2328 
Q 447 3434 972 4092 
Q 1497 4750 2381 4750 
Q 2619 4750 2861 4703 
Q 3103 4656 3366 4563 
z
" transform="scale(0.015625)"/>
     </defs>
     <use xlink:href="#DejaVuSans-36"/>
    </g>
   </g>
   <g id="text_33">
    <!-- 7 -->
    <g transform="translate(0 903.6) scale(0.12 -0.12)">
     <defs>
      <path id="DejaVuSans-37" d="M 525 4666 
L 3525 4666 
L 3525 4397 
L 1831 0 
L 1172 0 
L 2766 4134 
L 525 4134 
L 525 4666 
z
" transform="scale(0.015625)"/>
     </defs>
     <use xlink:href="#DejaVuSans-37"/>
    </g>
   </g>
   <g id="text_34">
    <!-- 8 -->
    <g transform="translate(0 831.6) scale(0.12 -0.12)">
     <defs>
      <path id="DejaVuSans-38" d="M 2034 2216 
Q 1584 2216 1326 1975 
Q 1069 1734 1069 1313 
Q 1069 891 1326 650 
Q 1584 409 2034 409 
Q 2484 409 2743 651 
Q 3003 894 3003 1313 
Q 3003 1734 2745 1975 
Q 2488 2216 2034 2216 
z
M 1403 2484 
Q 997 2584 770 2862 
Q 544 3141 544 3541 
Q 544 4100 942 4425 
Q 1341 4750 2034 4750 
Q 2731 4750 3128 4425 
Q 3525 4100 3525 3541 
Q 3525 3141 3298 2862 
Q 3072 2584 2669 2484 
Q 3125 2378 3379 2068 
Q 3634 1759 3634 1313 
Q 3634 634 3220 271 
Q 2806 -91 2034 -91 
Q 1263 -91 848 271 
Q 434 634 434 1313 
Q 434 1759 690 2068 
Q 947 2378 1403 2484 
z
M 1172 3481 
Q 1172 3119 1398 2916 
Q 1625 2713 2034 2713 
Q 2441 2713 2670 2916 
Q 2900 3119 2900 3481 
Q 2900 3844 2670 4047 
Q 2441 4250 2034 4250 
Q 1625 4250 1398 4047 
Q 1172 3844 1172 3481 
z
" transform="scale(0.015625)"/>
     </defs>
     <use xlink:href="#DejaVuSans-38"/>
    </g>
   </g>
   <g id="text_35">
    <!-- 9 -->
    <g transform="translate(0 759.6) scale(0.12 -0.12)">
     <defs>
      <path id="DejaVuSans-39" d="M 703 97 
L 703 672 
Q 941 559 1184 500 
Q 1428 441 1663 441 
Q 2288 441 2617 861 
Q 2947 1281 2994 2138 
Q 2813 1869 2534 1725 
Q 2256 1581 1919 1581 
Q 1219 1581 811 2004 
Q 403 2428 403 3163 
Q 403 3881 828 4315 
Q 1253 4750 1959 4750 
Q 2769 4750 3195 4129 
Q 3622 3509 3622 2328 
Q 3622 1225 3098 567 
Q 2575 -91 1691 -91 
Q 1453 -91 1209 -44 
Q 966 3 703 97 
z
M 1959 2075 
Q 2384 2075 2632 2365 
Q 2881 2656 2881 3163 
Q 2881 3666 2632 3958 
Q 2384 4250 1959 4250 
Q 1534 4250 1286 3958 
Q 1038 3666 1038 3163 
Q 1038 2656 1286 2365 
Q 1534 2075 1959 2075 
z
" transform="scale(0.015625)"/>
     </defs>
     <use xlink:href="#DejaVuSans-39"/>
    </g>
   </g>
   <g id="text_36">
    <!-- 10 -->
    <g transform="translate(0 687.6) scale(0.12 -0.12)">
     <defs>
      <path id="DejaVuSans-30" d="M 2034 4250 
Q 1547 4250 1301 3770 
Q 1056 3291 1056 2328 
Q 1056 1369 1301 889 
Q 1547 409 2034 409 
Q 2525 409 2770 889 
Q 3016 1369 3016 2328 
Q 3016 3291 2770 3770 
Q 2525 4250 2034 4250 
z
M 2034 4750 
Q 2819 4750 3233 4129 
Q 3647 3509 3647 2328 
Q 3647 1150 3233 529 
Q 2819 -91 2034 -91 
Q 1250 -91 836 529 
Q 422 1150 422 2328 
Q 422 3509 836 4129 
Q 1250 4750 2034 4750 
z
" transform="scale(0.015625)"/>
     </defs>
     <use xlink:href="#DejaVuSans-31"/>
     <use xlink:href="#DejaVuSans-30" x="63.623047"/>
    </g>
   </g>
   <g id="text_37">
    <!-- 11 -->
    <g transform="translate(0 615.6) scale(0.12 -0.12)">
     <use xlink:href="#DejaVuSans-31"/>
     <use xlink:href="#DejaVuSans-31" x="63.623047"/>
    </g>
   </g>
   <g id="text_38">
    <!-- 12 -->
    <g transform="translate(0 543.6) scale(0.12 -0.12)">
     <use xlink:href="#DejaVuSans-31"/>
     <use xlink:href="#DejaVuSans-32" x="63.623047"/>
    </g>
   </g>
   <g id="text_39">
    <!-- 13 -->
    <g transform="translate(0 471.6) scale(0.12 -0.12)">
     <use xlink:href="#DejaVuSans-31"/>
     <use xlink:href="#DejaVuSans-33" x="63.623047"/>
    </g>
   </g>
   <g id="text_40">
    <!-- 14 -->
    <g transform="translate(0 399.6) scale(0.12 -0.12)">
     <use xlink:href="#DejaVuSans-31"/>
     <use xlink:href="#DejaVuSans-34" x="63.623047"/>
    </g>
   </g>
   <g id="text_41">
    <!-- 15 -->
    <g transform="translate(0 327.6) scale(0.12 -0.12)">
     <use xlink:href="#DejaVuSans-31"/>
     <use xlink:href="#DejaVuSans-35" x="63.623047"/>
    </g>
   </g>
   <g id="text_42">
    <!-- 16 -->
    <g transform="translate(0 255.6) scale(0.12 -0.12)">
     <use xlink:href="#DejaVuSans-31"/>
     <use xlink:href="#DejaVuSans-36" x="63.623047"/>
    </g>
   </g>
   <g id="text_43">
    <!-- 17 -->
    <g transform="translate(0 183.6) scale(0.12 -0.12)">
     <use xlink:href="#DejaVuSans-31"/>
     <use xlink:href="#DejaVuSans-37" x="63.623047"/>
    </g>
   </g>
   <g id="text_44">
    <!-- 18 -->
    <g transform="translate(0 111.6) scale(0.12 -0.12)">
     <use xlink:href="#DejaVuSans-31"/>
     <use xlink:href="#DejaVuSans-38" x="63.623047"/>
    </g>
   </g>
   <g id="text_45">
    <!-- 19 -->
    <g transform="translate(0 39.6) scale(0.12 -0.12)">
     <use xlink:href="#DejaVuSans-31"/>
     <use xlink:href="#DejaVuSans-39" x="63.623047"/>
    </g>
   </g>
  </g>
 </g>
 <defs>
  <clipPath id="p141e16c7c6">
   <rect x="0" y="0" width="1368" height="1368"/>
  </clipPath>
 </defs>
</svg>
